<svg width="41" height="22" viewBox="0 0 41 22" fill="none" xmlns="http://www.w3.org/2000/svg">
<path fill-rule="evenodd" clip-rule="evenodd" d="M13.6885 17.1259V19.563H16.179V22H18.6699V19.563H21.1609V17.1259H18.6699V14.6884H16.179V17.1259H13.6885ZM37.826 10.6739H36.4004V12.0691H37.826V13.4645H39.2516V12.0691H40.6772V10.6739H39.2516V9.27952H37.826V10.6739ZM3.67716 22H7.42676V18.3353H11.1711V14.6653H7.42676V11H3.67716V14.6653H0V18.3327H3.67716V22ZM7.42676 11H11.1711V7.33006H14.9208V11H18.6699V14.6653H22.4153V11H26.1644V7.33006H28.6556V9.76752H31.1465V7.33006H33.6376V4.89288H31.1465V2.4558H28.6556V4.89288H26.1644V7.33006H22.4153V3.66462H18.6699V7.33006H14.9208V3.66462H11.1711V0H7.42676V3.66462H3.67716V7.33006H7.42676V11ZM31.1465 11.6277V13.5481H29.1841V15.4679H31.1465V17.3877H33.1091V15.4679H35.0712V13.5481H33.1091V11.6277H31.1465Z" fill="#FF9200"/>
<path fill-rule="evenodd" clip-rule="evenodd" d="M13.6885 17.1259V19.563H16.179V22H18.6699V19.563H21.1609V17.1259H18.6699V14.6884H16.179V17.1259H13.6885ZM37.826 10.6739H36.4004V12.0691H37.826V13.4645H39.2516V12.0691H40.6772V10.6739H39.2516V9.27952H37.826V10.6739ZM3.67716 22H7.42676V18.3353H11.1711V14.6653H7.42676V11H3.67716V14.6653H0V18.3327H3.67716V22ZM7.42676 11H11.1711V7.33006H14.9208V11H18.6699V14.6653H22.4153V11H26.1644V7.33006H28.6556V9.76752H31.1465V7.33006H33.6376V4.89288H31.1465V2.4558H28.6556V4.89288H26.1644V7.33006H22.4153V3.66462H18.6699V7.33006H14.9208V3.66462H11.1711V0H7.42676V3.66462H3.67716V7.33006H7.42676V11ZM31.1465 11.6277V13.5481H29.1841V15.4679H31.1465V17.3877H33.1091V15.4679H35.0712V13.5481H33.1091V11.6277H31.1465Z" fill="url(#paint0_linear_59_1037)"/>
<defs>
<linearGradient id="paint0_linear_59_1037" x1="6.0619" y1="-2.15196" x2="47.7346" y2="8.96132" gradientUnits="userSpaceOnUse">
<stop stop-color="#FFCC00"/>
<stop offset="1" stop-color="#FF9200"/>
</linearGradient>
</defs>
</svg>
