<svg width="202" height="188" viewBox="0 0 202 188" fill="none" xmlns="http://www.w3.org/2000/svg">
<g clip-path="url(#clip0_43_3789)">
<path fill-rule="evenodd" clip-rule="evenodd" d="M31.5868 109.71L31.6385 109.761L32.9849 110.537C33.5545 110.847 33.8651 111.157 33.9169 111.518C33.9169 111.622 33.9169 111.673 33.9169 111.777C33.8134 112.087 33.5545 112.397 33.0366 112.707L18.8485 120.872C17.6057 121.544 16.363 121.544 15.1202 120.872L13.6703 120.045L12.1169 119.115L7.76723 116.583L0.828492 112.655C0.258895 112.294 -0.0517951 111.984 -0.103577 111.622C-0.103577 111.26 0.207113 110.847 0.828492 110.485L3.67648 108.831V111.88C3.67648 112.139 3.93539 112.449 4.4532 112.759L16.1558 119.477C17.1397 120.045 18.1753 120.045 19.1592 119.425L30.7583 112.759C31.3279 112.397 31.5868 112.087 31.4832 111.725V109.916C31.535 109.865 31.535 109.761 31.4832 109.71H31.5868ZM60.7916 87.0753L59.2381 88.0055L52.0923 92.1396C50.8495 92.8114 49.6068 92.8114 48.4158 92.1396L41.0628 87.8505V87.9021L34.1241 83.923C33.5545 83.5613 33.2438 83.2512 33.192 82.8895C33.192 82.5278 33.5027 82.1143 34.1758 81.7526L36.1435 80.6157V80.7708H36.1953L36.1435 82.8378C36.1435 83.1479 36.4542 83.4063 36.972 83.768L48.9336 90.641C49.9692 91.2611 51.0049 91.2611 52.0405 90.641L63.9503 83.768C64.5716 83.4063 64.7788 83.0962 64.727 82.7345V80.9258L66.2287 81.8043C66.7982 82.1143 67.1089 82.4244 67.1607 82.7345C67.1607 82.8378 67.1607 82.9412 67.1607 82.9929C67.0572 83.3029 66.7982 83.613 66.2804 83.923L60.7916 87.0753ZM183.203 159.629L185.378 160.921C185.948 161.231 186.258 161.542 186.31 161.903C186.31 162.007 186.31 162.058 186.31 162.11C186.207 162.42 185.948 162.73 185.43 163.04L171.242 171.205C169.999 171.877 168.756 171.877 167.513 171.205L160.16 166.916L153.222 162.937C152.652 162.575 152.341 162.265 152.29 161.903C152.29 161.542 152.6 161.18 153.222 160.818L156.432 159.009L156.38 160.456L156.432 160.508V162.42C156.432 162.678 156.691 162.988 157.157 163.299L168.394 169.758C169.378 170.327 170.31 170.275 171.294 169.758L182.427 163.35C182.996 163.04 183.255 162.678 183.152 162.42V160.715C183.152 160.663 183.152 160.56 183.152 160.508L183.203 159.629ZM153.377 175.753L155.863 177.2C156.432 177.51 156.743 177.82 156.795 178.181C156.795 178.285 156.795 178.336 156.795 178.44C156.691 178.75 156.432 179.06 155.914 179.37L141.726 187.535C140.483 188.207 139.241 188.207 138.05 187.535L130.697 183.246L123.758 179.318C123.188 178.957 122.878 178.647 122.826 178.285C122.826 177.923 123.137 177.51 123.81 177.148L126.71 175.494V178.491C126.71 178.75 126.968 179.06 127.434 179.37L138.723 185.83C139.655 186.398 140.639 186.398 141.571 185.83L152.704 179.37C153.274 179.06 153.481 178.698 153.429 178.44V176.734C153.429 176.683 153.429 176.579 153.377 176.476V175.753Z" fill="#CBDFFF"/>
<path fill-rule="evenodd" clip-rule="evenodd" d="M64.727 78.807C64.6752 79.0654 64.4163 79.3238 63.9503 79.5822L52.0405 86.4552C51.0049 87.0236 49.9692 87.0236 48.9336 86.4552L42.7716 82.8378L42.7198 82.8895L36.9203 79.5822C36.4542 79.2721 36.1953 79.0137 36.1436 78.7037C36.1436 78.3936 36.4025 78.0835 36.9721 77.7735L39.3022 76.4299L40.8557 75.5514L48.8818 70.9522C49.9175 70.332 50.9013 70.332 51.9369 70.9522L55.4063 72.9159L63.9503 77.8252C64.4163 78.0835 64.6752 78.3419 64.727 78.652C64.727 78.7037 64.727 78.7553 64.727 78.807Z" fill="#ACD2FF"/>
<path fill-rule="evenodd" clip-rule="evenodd" d="M64.727 80.9257V82.7344C64.8306 83.0961 64.5717 83.4062 63.9503 83.7679L52.0405 90.6409C51.0049 91.2094 49.9692 91.2094 48.9336 90.6409L36.9721 83.7163C36.4542 83.4062 36.1953 83.0961 36.1436 82.7861L36.1953 80.719H36.1436V80.564V78.7036C36.1953 79.0137 36.4542 79.2721 36.9203 79.5821L42.7198 82.9411L42.7716 82.8894L48.9336 86.5068C49.9692 87.0752 51.0049 87.0752 52.0405 86.5068L63.9503 79.6338C64.3645 79.3754 64.6234 79.117 64.727 78.8586V80.6673C64.7788 80.719 64.7788 80.8224 64.727 80.9257Z" fill="url(#paint0_linear_43_3789)"/>
<path fill-rule="evenodd" clip-rule="evenodd" d="M188.123 57.7229L185.067 59.4799C184.239 58.0329 183.773 56.6377 183.773 55.2941C183.773 54.0022 184.187 53.072 184.964 52.6069L185.067 52.5552C185.119 52.5035 185.223 52.5035 185.326 52.4519C186.155 52.0901 187.087 52.2451 188.174 52.8653V52.9169L188.123 57.7229ZM124.379 34.6751L121.221 29.1973L115.162 25.6833L113.919 24.9598L111.02 23.3062L104.288 19.4304C103.201 18.8103 102.683 17.8801 102.683 16.6399V2.27373C102.683 1.65361 102.838 1.2402 103.097 1.08517C103.356 0.930139 103.77 1.03349 104.288 1.29188L129.765 16.0197C130.852 16.6399 131.422 17.5701 131.422 18.8103V33.1764C131.422 33.6932 131.318 34.0549 131.163 34.2616C131.059 34.3133 131.007 34.365 130.904 34.4167C130.645 34.4683 130.386 34.4167 129.972 34.21C129.92 34.1583 129.816 34.1583 129.765 34.1066L128.159 33.1248V41.1346L124.379 34.6751ZM183.203 158.699C183.151 158.906 182.996 159.113 182.685 159.319C182.634 159.371 182.582 159.423 182.53 159.423L171.345 165.882C170.361 166.451 169.378 166.451 168.446 165.882L161.61 162.007V161.955L157.209 159.423C156.95 159.268 156.743 159.113 156.639 158.906C156.536 158.803 156.536 158.699 156.484 158.544C156.484 158.286 156.743 157.976 157.209 157.717L168.342 151.258C169.326 150.689 170.258 150.689 171.242 151.258L174.452 153.066H174.504L179.268 155.805V155.857L182.53 157.717C182.944 157.976 183.203 158.234 183.255 158.493C183.203 158.596 183.203 158.648 183.203 158.699ZM103.511 5.99446V7.49309L117.907 15.7614V14.2111L103.511 5.99446ZM103.511 9.09507V10.5937L117.907 18.862V17.3117L103.511 9.09507ZM109.052 15.0379V16.5365L117.958 21.6008V20.1022L109.052 15.0379ZM124.172 19.8438C124.638 20.1022 125.001 20.5156 125.311 21.0324C125.622 21.4975 125.777 21.9626 125.777 22.376C125.777 22.4277 125.777 22.4793 125.777 22.5827C125.777 23.0478 125.622 23.4095 125.311 23.5646C125.001 23.7196 124.638 23.7196 124.172 23.4612V23.4095C124.12 23.4095 124.12 23.3578 124.017 23.3578C123.603 23.0995 123.292 22.7377 122.981 22.221C122.671 21.7042 122.515 21.2391 122.515 20.774C122.515 20.7223 122.515 20.7223 122.515 20.6707C122.515 20.619 122.515 20.5673 122.515 20.5156C122.515 20.1022 122.671 19.7922 122.981 19.6888C123.344 19.5338 123.758 19.5854 124.172 19.8438ZM124.172 16.7432C122.981 16.0714 121.997 15.9681 121.169 16.4332V16.4848C120.392 16.9499 119.978 17.8284 119.926 19.1204C119.926 20.0505 120.133 20.9807 120.548 21.9626C120.703 22.376 120.91 22.7377 121.169 23.1511C121.48 23.6162 121.79 24.0813 122.101 24.4947C122.722 25.2182 123.396 25.7867 124.172 26.2517C125.26 26.8719 126.192 26.9752 126.968 26.6652C127.072 26.6135 127.124 26.6135 127.227 26.5618C128.056 26.0967 128.47 25.2182 128.47 23.9263C128.47 22.6344 128.056 21.2908 127.227 19.8438C126.399 18.3969 125.363 17.415 124.172 16.7432ZM96.9869 126.608C97.3494 126.556 97.7636 126.608 98.385 126.711L108.793 128.417C110.295 128.675 111.33 129.14 111.952 129.864C112.055 130.019 112.159 130.122 112.262 130.277C112.314 130.329 112.314 130.38 112.314 130.432L115.369 136.478C115.887 137.512 115.266 137.925 113.402 137.615L102.942 135.858C101.129 135.548 99.9385 134.876 99.4206 133.843L96.4173 127.848C96.2102 127.435 96.2102 127.125 96.3138 126.918L97.0387 127.021L96.8316 126.66C96.8834 126.66 96.9351 126.608 96.9869 126.608ZM147.163 117.668C146.542 118.03 145.921 118.288 145.144 118.443C144.108 118.65 143.28 118.546 142.555 118.133L136.444 114.619L136.237 114.516L136.289 114.206L135.927 114.309L129.247 110.485C128.522 110.071 128.211 109.503 128.211 108.78C128.211 108.211 128.47 107.694 128.884 107.178C128.988 107.022 129.092 106.919 129.247 106.764C129.299 106.712 129.35 106.661 129.402 106.609C130.127 105.937 131.007 105.524 132.043 105.317C133.079 105.11 133.959 105.214 134.684 105.627L140.898 109.193L141.364 109.451L147.992 113.275C148.665 113.689 149.027 114.257 148.976 115.032C148.924 115.756 148.561 116.479 147.785 117.151C147.733 117.203 147.629 117.254 147.578 117.306C147.474 117.461 147.319 117.565 147.163 117.668Z" fill="#FF65A7"/>
<path fill-rule="evenodd" clip-rule="evenodd" d="M156.484 159.009V158.596C156.484 158.699 156.536 158.803 156.639 158.958C156.743 159.113 156.95 159.268 157.209 159.474L161.61 162.007V162.058L168.446 165.934C169.429 166.502 170.413 166.502 171.345 165.934L182.53 159.474C182.582 159.423 182.634 159.423 182.685 159.371C182.996 159.164 183.151 158.958 183.203 158.751V159.681V160.508C183.203 160.611 183.203 160.663 183.203 160.715V162.42C183.307 162.73 183.048 163.04 182.478 163.35L171.345 169.758C170.361 170.327 169.429 170.327 168.446 169.758L157.209 163.299C156.743 162.988 156.484 162.73 156.484 162.42V160.508L156.432 160.456L156.484 159.009Z" fill="url(#paint1_linear_43_3789)"/>
<path fill-rule="evenodd" clip-rule="evenodd" d="M31.5868 108.004C31.4832 108.263 31.2761 108.521 30.81 108.78L19.211 115.446C18.7449 115.704 18.2789 115.859 17.8129 115.911C17.2433 115.963 16.7255 115.808 16.1559 115.497L10.201 112.035L9.11356 111.415L4.505 108.78C4.40143 108.728 4.29787 108.676 4.24609 108.624C3.9354 108.418 3.78005 108.159 3.72827 107.953C3.72827 107.643 3.98718 107.333 4.505 107.023L9.00999 104.439L10.5634 103.56L16.0523 100.408C17.0361 99.8395 18.0718 99.8395 19.1074 100.408L22.4214 102.32H22.4732L27.3925 105.162H27.3407L30.7583 107.126C31.2243 107.384 31.4832 107.643 31.535 107.901C31.6386 107.849 31.6385 107.953 31.5868 108.004Z" fill="#FFDC78"/>
<path fill-rule="evenodd" clip-rule="evenodd" d="M31.5868 108.004V109.71V109.813C31.6386 109.865 31.6386 109.968 31.5868 110.02V111.828C31.6904 112.139 31.4315 112.5 30.8619 112.862L19.2628 119.528C18.2789 120.097 17.2433 120.148 16.2595 119.58L4.55681 112.862C4.09078 112.552 3.83187 112.242 3.78009 111.983V108.935V108.004C3.83187 108.211 3.98722 108.418 4.29791 108.676C4.40147 108.728 4.45325 108.78 4.55681 108.831L9.16538 111.467L10.2528 112.087L16.2077 115.549C16.7773 115.859 17.2951 116.014 17.8647 115.963C18.3307 115.963 18.7968 115.808 19.2628 115.498L30.8619 108.831C31.2761 108.521 31.535 108.263 31.5868 108.004Z" fill="url(#paint2_linear_43_3789)"/>
<path fill-rule="evenodd" clip-rule="evenodd" d="M51.0567 149.397L33.8134 139.527L32.2599 138.649L29.0495 136.788C25.1141 134.566 23.9231 132.344 25.4248 130.122C26.564 131.052 28.0139 131.982 29.8262 133.016L94.7085 170.378C97.8154 172.135 100.56 173.375 103.045 173.996C106.463 174.822 109.311 174.616 111.641 173.272L168.446 140.561C170.361 139.424 170.931 138.08 170.258 136.582C171.242 134.773 169.74 132.551 165.753 129.864L166.737 130.277C166.892 130.329 166.996 130.38 167.099 130.432L171.552 131.311C171.604 131.311 171.656 131.311 171.708 131.311C171.76 131.259 171.811 131.259 171.863 131.259C171.967 131.259 172.07 131.207 172.122 131.207C172.174 131.207 172.226 131.207 172.277 131.207C175.125 131.621 177.041 130.639 178.025 128.313L178.439 127.228L181.236 128.83C182.893 129.76 184.032 130.69 184.757 131.621C186.414 133.843 185.326 136.065 181.494 138.235L114.593 176.528C109.207 179.628 103.719 179.577 98.1261 176.373L83.6273 168.053L82.0738 167.174L52.6101 150.328L51.0567 149.397Z" fill="#C5E3FF"/>
<path fill-rule="evenodd" clip-rule="evenodd" d="M174.711 123.301L172.951 127.693L156.329 118.185C157.002 117.306 157.675 116.428 158.296 115.549L165.39 119.58C166.478 120.2 167.513 120.769 168.446 121.234C169.637 121.802 170.724 122.267 171.708 122.629C172.018 122.732 172.381 122.836 172.64 122.939C173.417 123.146 174.09 123.249 174.711 123.301ZM173.675 80.5641L186.673 88.0055C187.346 88.3673 187.967 88.6773 188.485 88.884L186 95.0853L171.19 86.6103L173.675 80.5641ZM194.44 70.3838L196.356 69.2986L194.647 73.6911L186.155 68.7818C184.239 67.6966 182.789 67.4382 181.805 68.0066L177.922 70.2287L178.802 68.1617C179.734 65.8362 179.268 64.1826 177.352 63.2007H177.404L174.97 61.8054L176.782 60.7719L193.145 70.1771C193.715 70.4871 194.129 70.5905 194.44 70.4354C194.388 70.3838 194.388 70.3838 194.44 70.3838ZM93.2069 80.254L109.207 71.0556C109.156 71.2106 109.104 71.314 109.052 71.469L109 71.624V71.6757C107.084 77.0501 104.288 81.9594 100.663 86.3519L92.6891 81.8043L93.2069 80.254ZM163.682 49.7131V51.16C163.682 52.5036 164.251 53.5371 165.442 54.2089L168.704 56.0693V58.1364L150.218 47.5426C150.84 47.2843 151.461 47.1292 152.134 47.0259C152.445 46.9742 152.756 46.9225 153.118 46.9225C154.102 46.8192 155.138 46.8708 156.277 47.0776C158.089 47.3876 160.057 48.0594 162.18 49.0413C162.698 49.248 163.164 49.5064 163.682 49.7131Z" fill="#00195F"/>
<path fill-rule="evenodd" clip-rule="evenodd" d="M186.051 95.0336L174.711 123.249C174.09 123.197 173.417 123.094 172.692 122.887C172.381 122.784 172.07 122.681 171.76 122.577C170.776 122.216 169.688 121.75 168.497 121.182C167.565 120.717 166.53 120.148 165.442 119.528L158.348 115.498C159.85 113.327 161.196 111.053 162.335 108.676C162.387 108.521 162.439 108.315 162.542 108.159V108.108L171.293 86.5586L186.051 95.0336ZM194.595 73.6394L188.485 88.8324C187.915 88.6257 187.294 88.3673 186.673 87.9539L173.675 80.5124L177.87 70.1254L181.753 67.9033C182.737 67.3865 184.187 67.6449 186.103 68.6784L194.595 73.6394Z" fill="#0B2F96"/>
<path fill-rule="evenodd" clip-rule="evenodd" d="M165.753 129.864C164.665 129.399 163.474 128.778 162.18 128.003L152.497 122.422C153.481 121.44 154.413 120.459 155.293 119.425C155.448 119.27 155.552 119.115 155.707 118.96L172.536 128.623L173.002 127.642L174.763 123.249L186.103 95.0336L188.589 88.8323L194.699 73.6394L196.408 69.2469C196.666 69.0918 196.822 68.7301 196.822 68.1616L197.34 66.8181L196.822 66.508V61.9604C199.463 64.6476 200.239 67.2831 199.152 69.9187L175.643 128.262C174.918 129.915 173.779 130.846 172.226 131.156C172.174 131.156 172.174 131.156 172.07 131.156C171.967 131.156 171.915 131.207 171.811 131.207C171.76 131.207 171.708 131.207 171.656 131.259C171.604 131.259 171.552 131.259 171.501 131.259L167.047 130.38C166.944 130.329 166.84 130.277 166.685 130.225L165.753 129.864ZM99.9903 87.127C99.0064 88.2639 97.9708 89.3491 96.8834 90.4343C96.262 90.0726 95.6924 89.7108 95.1746 89.3491C95.071 89.2974 95.0192 89.2458 94.9157 89.1941L92.948 87.7471C90.1 85.3183 88.5465 83.1479 88.3912 81.1842V81.1325C88.3912 80.9775 88.3912 80.8225 88.3912 80.6674C88.3912 80.5124 88.3912 80.3574 88.3912 80.2023C88.3912 79.5822 88.5465 78.9621 88.8572 78.342L111.02 23.3579L113.92 25.0116L91.032 82.011L99.9903 87.127ZM133.234 30.0759V24.3914L163.682 41.9615V47.5426L133.234 30.0759Z" fill="#F1FBFF"/>
<path fill-rule="evenodd" clip-rule="evenodd" d="M196.77 68.1617C196.77 68.11 196.77 68.0583 196.77 68.0066V66.4563L197.288 66.7664L196.77 68.1617ZM109.259 71.0556L93.2068 80.254L115.11 25.6317L121.169 29.1457L124.328 34.6235C123.965 34.8302 123.654 35.2953 123.396 35.9154L109.259 71.0556ZM150.218 47.5427L132.302 37.2073V38.4475L129.972 37.104V34.2101C130.334 34.4168 130.645 34.4684 130.904 34.4168C130.956 34.4168 131.059 34.3651 131.163 34.2617L132.768 33.3315C132.82 33.3315 132.82 33.2799 132.872 33.2799C133.13 33.1248 133.286 32.7631 133.286 32.0913V30.0242L163.682 47.5427V49.7648C163.164 49.5064 162.698 49.2997 162.232 49.0413C160.109 48.0594 158.141 47.4393 156.329 47.0776C155.189 46.8709 154.102 46.8192 153.17 46.9225C152.859 46.9225 152.497 46.9742 152.186 47.0259C151.513 47.1292 150.84 47.2843 150.218 47.5427Z" fill="#0154A3"/>
<path fill-rule="evenodd" clip-rule="evenodd" d="M178.75 126.401L178.439 127.176L178.025 128.262C177.041 130.639 175.125 131.569 172.277 131.156C173.831 130.845 174.97 129.864 175.695 128.262L199.204 69.9186C200.291 67.2831 199.463 64.6475 196.874 61.9604V59.8933C201.379 63.304 202.932 66.6113 201.586 69.9186L178.75 126.401ZM22.9392 124.903C22.991 125.006 23.0428 125.058 23.0946 125.109C23.7159 126.195 24.9069 127.383 26.7711 128.727C27.6513 129.347 28.6352 129.967 29.8262 130.639L94.7085 168.053C97.8154 169.81 100.56 170.998 103.045 171.618C106.463 172.497 109.311 172.29 111.641 170.947H111.693L168.549 138.184C169.429 137.718 169.999 137.15 170.361 136.582C171.035 138.08 170.465 139.424 168.549 140.561L111.693 173.324C109.414 174.616 106.515 174.874 103.097 174.047C100.612 173.375 97.8672 172.187 94.7603 170.43L29.7744 133.016C27.962 131.982 26.5121 131 25.373 130.122C24.2338 129.192 23.457 128.313 23.0428 127.486C22.5767 126.556 22.525 125.678 22.9392 124.903ZM163.682 40.5662V41.9098L133.234 24.3397V22.9961L163.682 40.5662Z" fill="#54B2C6"/>
<path fill-rule="evenodd" clip-rule="evenodd" d="M156.329 118.185L172.951 127.693L172.484 128.675L155.655 119.012C155.863 118.701 156.121 118.443 156.329 118.185ZM115.162 25.6833L93.2069 80.254L92.6891 81.7526L100.663 86.3001C100.456 86.5585 100.197 86.8169 99.9903 87.0753L91.032 81.9593L113.92 24.9598L115.162 25.6833Z" fill="#0065D3"/>
<path fill-rule="evenodd" clip-rule="evenodd" d="M60.6362 138.494C60.5327 138.804 60.688 139.114 61.1023 139.476C61.413 139.734 61.9308 140.096 62.5522 140.457L79.6401 150.224C80.9864 150.999 82.1256 151.361 83.0059 151.31L92.223 156.632H92.1712C93.6729 157.562 95.3299 157.562 97.0905 156.632C97.1423 156.581 97.194 156.529 97.2458 156.477L115.784 145.832L116.871 146.452C117.958 147.072 118.994 147.64 119.926 148.157C123.965 150.121 126.761 150.689 128.211 149.863L154.413 134.825C154.672 134.67 154.827 134.515 154.931 134.36C155.345 133.688 154.827 132.706 153.377 131.466C152.29 130.535 150.684 129.502 148.561 128.262L146.904 127.332C148.924 125.781 150.788 124.179 152.497 122.474L162.18 128.055C163.474 128.83 164.665 129.45 165.753 129.915C169.688 132.551 171.19 134.825 170.258 136.633C169.895 137.202 169.326 137.77 168.446 138.235L111.589 170.998H111.538C109.259 172.342 106.359 172.549 102.942 171.67C100.456 171.05 97.7119 169.861 94.605 168.104L29.7744 130.639C28.6352 129.967 27.5996 129.347 26.7193 128.727C24.8552 127.435 23.6642 126.195 23.0428 125.109C22.991 125.058 22.991 125.006 22.8875 124.903C22.525 124.024 22.5768 123.197 23.0428 122.474C23.4053 121.905 23.9749 121.389 24.7516 120.924L81.6078 88.1605C84.9218 86.3002 89.3232 86.6102 94.8639 89.1424C94.9674 89.1941 95.0192 89.2457 95.1228 89.2974C95.6406 89.6592 96.2102 90.0209 96.8316 90.3826C94.8639 92.2947 92.7408 94.0517 90.3589 95.757C88.3912 95.1886 86.9931 95.1369 86.061 95.7053L59.8077 110.692C59.1864 111.053 58.9792 111.57 59.2899 112.242C59.4453 112.604 59.756 113.017 60.222 113.43L42.5127 123.611C41.8913 123.973 41.5288 124.334 41.5288 124.644C41.3217 124.954 41.1664 125.316 41.2181 125.678C40.9075 126.608 41.4253 127.435 42.7198 128.158L60.6362 138.494Z" fill="url(#paint3_linear_43_3789)"/>
<path fill-rule="evenodd" clip-rule="evenodd" d="M142.865 130.122C143.953 129.399 145.04 128.675 146.076 127.9L148.51 129.295C150.633 130.535 152.238 131.569 153.325 132.499C154.154 133.171 154.723 133.791 154.879 134.308C154.775 134.463 154.62 134.618 154.361 134.773L128.159 149.811C126.658 150.638 123.913 150.069 119.874 148.106C118.942 147.64 117.907 147.072 116.819 146.4L115.732 145.78L117.7 144.643L118.994 145.418V145.47C119.305 145.625 119.615 145.625 119.874 145.47C119.926 145.47 119.978 145.418 120.03 145.418L120.962 144.953L119.046 143.868L120.133 143.248L121.997 144.436L122.929 143.765C122.981 143.765 123.085 143.713 123.137 143.661C123.085 143.661 122.981 143.61 122.878 143.506L121.272 142.576L122.567 141.801L128.677 145.367V145.418C129.092 145.625 129.454 145.625 129.713 145.418V145.367L132.716 143.661V143.713C132.768 143.661 132.82 143.61 132.82 143.558C132.82 143.455 132.768 143.403 132.716 143.3L126.14 139.682L127.227 139.062L133.338 142.576C133.7 142.886 134.011 142.886 134.27 142.679V142.576L137.221 141.077C137.273 140.974 137.325 140.922 137.377 140.922C137.377 140.922 137.325 140.922 137.325 140.871C137.325 140.871 137.273 140.819 137.221 140.716L130.749 136.995L131.732 136.427L133.286 137.305C133.648 137.512 134.011 137.512 134.425 137.305L137.169 135.651C137.325 135.6 137.428 135.496 137.48 135.393C137.428 135.393 137.325 135.393 137.273 135.341H137.221L135.461 134.256L141.001 131.052L142.296 131.776C142.658 131.982 143.073 131.982 143.487 131.776H143.383L144.574 131.156C144.678 131.104 144.73 131.052 144.73 131.001L142.865 130.122ZM125.777 147.692L122.774 145.883C122.463 145.728 122.101 145.728 121.687 145.883L120.651 146.555C120.548 146.607 120.496 146.659 120.444 146.659C120.444 146.71 120.548 146.762 120.703 146.762L123.551 148.467C123.862 148.674 124.172 148.674 124.483 148.467L125.57 147.847H125.622C125.726 147.744 125.777 147.692 125.777 147.692ZM139.862 132.447L137.169 134.153C137.066 134.204 137.014 134.204 136.962 134.204C137.014 134.256 137.066 134.256 137.169 134.256L142.399 137.357V137.408C142.71 137.563 143.124 137.563 143.539 137.408H143.435L146.283 135.703C146.438 135.651 146.542 135.6 146.542 135.548L146.283 135.496L141.105 132.447C140.794 132.292 140.38 132.292 139.862 132.447ZM138.93 140.096L141.778 138.39H141.882C141.933 138.287 141.985 138.235 141.985 138.235L141.882 138.029L138.93 136.478C138.568 136.272 138.205 136.272 137.843 136.478L134.943 138.029C134.891 138.184 134.839 138.235 134.839 138.235C134.839 138.287 134.891 138.339 134.943 138.39L137.843 140.096C138.153 140.302 138.516 140.302 138.93 140.096ZM89.3232 96.5321C88.8054 96.8939 88.2358 97.2556 87.6662 97.6173L60.222 113.43C59.756 112.965 59.4453 112.604 59.2899 112.242C59.4453 112.087 59.6006 111.932 59.8077 111.777L86.061 96.7905C86.8895 96.3254 87.9251 96.2738 89.3232 96.5321ZM149.183 133.843L146.335 132.189H146.438C146.076 132.034 145.765 132.034 145.403 132.189H145.299L144.212 132.809C144.108 132.913 144.056 132.964 144.005 132.964C144.056 133.016 144.108 133.068 144.212 133.119L147.008 134.825C147.422 135.031 147.785 135.031 148.147 134.876L149.338 134.153C149.442 134.049 149.545 133.998 149.597 133.998C149.493 133.998 149.39 133.946 149.183 133.843Z" fill="#E8F9FF"/>
<path fill-rule="evenodd" clip-rule="evenodd" d="M154.879 134.308C154.672 133.791 154.154 133.171 153.325 132.499C152.238 131.569 150.633 130.535 148.51 129.295L146.076 127.9C146.335 127.693 146.594 127.487 146.853 127.28L148.51 128.21C150.633 129.45 152.238 130.484 153.325 131.414C154.775 132.706 155.293 133.636 154.879 134.308ZM90.4107 95.757C90.0482 96.0154 89.6857 96.2738 89.3232 96.5322C87.9251 96.2738 86.8377 96.3255 86.1128 96.7905L59.8595 111.777C59.6524 111.932 59.4453 112.087 59.3417 112.242C59.0828 111.57 59.2381 111.053 59.8595 110.692L86.1128 95.7053C87.0448 95.1369 88.4947 95.1886 90.4107 95.757Z" fill="url(#paint4_linear_43_3789)"/>
<path fill-rule="evenodd" clip-rule="evenodd" d="M61.7237 139.114L61.1023 139.476C60.688 139.114 60.5845 138.804 60.6363 138.494L61.7237 139.114Z" fill="url(#paint5_linear_43_3789)"/>
<path fill-rule="evenodd" clip-rule="evenodd" d="M61.1023 139.475L61.7237 139.114L82.9541 151.309C82.0738 151.361 80.9346 150.999 79.5883 150.224L62.5004 140.457C61.9308 140.096 61.413 139.786 61.1023 139.475Z" fill="#BCE5F2"/>
<path fill-rule="evenodd" clip-rule="evenodd" d="M153.377 174.771V175.753V176.424C153.429 176.528 153.429 176.579 153.429 176.683V178.388C153.532 178.698 153.274 179.008 152.704 179.318L141.571 185.778C140.587 186.346 139.655 186.346 138.723 185.778L127.383 179.318C126.917 179.008 126.658 178.698 126.658 178.44V175.442V174.564C126.658 174.771 126.813 174.977 127.072 175.184C127.176 175.236 127.279 175.339 127.383 175.391L131.784 177.975L132.82 178.543L138.619 181.902C139.603 182.471 140.535 182.471 141.519 181.902L152.652 175.494C152.704 175.494 152.704 175.442 152.756 175.442C153.118 175.184 153.325 174.977 153.377 174.771Z" fill="url(#paint6_linear_43_3789)"/>
<path fill-rule="evenodd" clip-rule="evenodd" d="M126.658 174.616C126.658 174.357 126.917 174.099 127.434 173.789L138.568 167.381C139.551 166.813 140.483 166.813 141.467 167.381L144.678 169.19L149.442 171.929L152.704 173.789C153.17 174.047 153.377 174.306 153.377 174.564C153.429 174.616 153.429 174.719 153.429 174.771C153.377 174.978 153.17 175.236 152.807 175.443C152.756 175.443 152.756 175.494 152.704 175.494L141.519 181.902C140.535 182.471 139.603 182.471 138.619 181.902L132.82 178.543L131.784 177.975L127.383 175.391C127.279 175.339 127.176 175.236 127.072 175.184C126.813 175.029 126.658 174.822 126.658 174.616Z" fill="#DDDDFF"/>
<g opacity="0.451">
<path opacity="0.451" fill-rule="evenodd" clip-rule="evenodd" d="M174.918 61.7537L177.352 63.149H177.3C179.216 64.1309 179.682 65.7845 178.75 68.11L177.87 70.177L173.675 80.5641L171.242 86.6102L162.491 108.159C162.491 108.211 162.491 108.211 162.491 108.211C162.387 108.366 162.335 108.573 162.284 108.728C161.144 111.105 159.798 113.379 158.296 115.549C157.675 116.428 157.002 117.358 156.329 118.185C156.121 118.443 155.863 118.753 155.655 119.012C155.552 119.167 155.397 119.322 155.241 119.477C154.361 120.51 153.429 121.492 152.445 122.474C150.736 124.179 148.872 125.833 146.853 127.332C146.594 127.538 146.335 127.745 146.076 127.952C145.04 128.727 144.005 129.45 142.865 130.174C142.658 130.277 142.503 130.432 142.296 130.535H142.244L141.571 130.949C141.519 131.001 141.416 131.001 141.364 131.052L140.95 131.259L135.409 134.463L131.732 136.582L130.749 137.15L127.176 139.217L126.088 139.837L122.515 141.904L121.221 142.68L120.03 143.351L118.942 143.971L117.596 144.747L115.628 145.883L97.0905 156.529C97.0387 156.581 96.9869 156.632 96.9351 156.684C95.1746 157.614 93.5693 157.614 92.0159 156.684H92.0677L82.8505 151.361L61.6201 139.165L60.5327 138.545L42.6162 128.21C41.3217 127.487 40.8039 126.66 41.1146 125.73C41.1146 125.368 41.2181 125.058 41.4253 124.696C41.4253 125.006 41.6842 125.316 42.202 125.626L91.6016 154.1C92.689 154.72 93.8282 154.668 95.071 153.945H95.1228L139.5 128.417H139.551L140.225 128.003C149.235 122.267 155.759 115.084 159.85 106.402L176.057 66.353C176.627 64.9577 176.368 63.9242 175.281 63.2524L173.779 62.3738L174.918 61.7537ZM168.704 59.3766L132.302 38.4475V37.2073L150.218 47.5426L168.704 58.188V59.3766ZM109 71.6757L109.052 71.469C109.052 71.5206 109.052 71.5723 109 71.6757Z" fill="#00163A"/>
</g>
<path fill-rule="evenodd" clip-rule="evenodd" d="M96.8834 90.3827C97.9708 89.2975 99.0064 88.2122 99.9902 87.0754C100.197 86.817 100.456 86.5586 100.663 86.3002C104.288 81.9077 107.084 77.0501 109 71.624C109 71.5723 109.052 71.5207 109.052 71.4173C109.104 71.2623 109.156 71.1589 109.207 71.0039L123.396 35.8637C123.654 35.2436 123.965 34.7785 124.328 34.5718L128.108 41.083L129.92 40.0495V37.0006L132.25 38.3442L168.653 59.2733V65.2161L173.831 62.2188L175.332 63.0973C176.368 63.7175 176.627 64.751 176.109 66.198L159.902 106.247C155.811 114.929 149.286 122.164 140.276 127.848L139.603 128.262H139.551L95.1746 153.79H95.1228C93.9318 154.514 92.7926 154.565 91.6534 153.945L42.2538 125.471C41.736 125.161 41.4771 124.851 41.4771 124.541C41.4771 124.179 41.8395 123.869 42.4609 123.507L60.1702 113.327L87.6144 97.5141C88.184 97.1523 88.7536 96.7906 89.2715 96.4289C89.6339 96.1705 89.9964 95.9121 90.3589 95.6537C92.7926 94.1034 94.9157 92.2947 96.8834 90.3827ZM63.0182 118.495L61.9826 119.115L67.7303 122.422C67.9892 122.216 68.1446 122.112 68.2481 122.009C68.4035 121.906 68.507 121.802 68.6624 121.75L63.0182 118.495ZM82.2292 118.702L82.5398 118.908L83.3684 121.802L85.4914 120.562L89.5304 122.887L77.4135 129.864L65.7108 123.146C64.9859 122.732 64.261 122.732 63.5878 123.146L57.9954 126.401C57.2704 126.815 57.2704 127.228 57.9954 127.642L83.8862 142.525C84.6111 142.938 85.3361 142.938 86.061 142.525L91.6534 139.269C92.3784 138.855 92.3784 138.442 91.6534 138.029L77.9313 130.122L90.0482 123.146L92.8962 124.799L90.566 126.298L96.3655 126.866C96.2102 127.073 96.262 127.383 96.4691 127.797L99.4724 133.791C99.9902 134.825 101.181 135.496 102.994 135.807L113.453 137.564C115.266 137.874 115.939 137.512 115.421 136.427L112.366 130.38C112.366 130.329 112.314 130.277 112.314 130.225L116.819 127.642L118.683 128.727L119.719 125.936L120.496 125.471C120.806 125.523 121.169 125.575 121.531 125.575H130.749C132.354 125.575 133.182 125.109 133.182 124.179V118.857C133.182 118.443 133.027 118.081 132.664 117.875C133.234 117.41 133.855 116.945 134.425 116.479L136.134 117.461L136.444 114.774C136.496 114.722 136.6 114.671 136.652 114.567L142.762 118.081C143.435 118.495 144.315 118.598 145.351 118.391C146.076 118.236 146.749 117.978 147.37 117.616L148.872 118.495L149.027 118.34C153.066 114.257 156.277 109.71 158.659 104.697L162.542 95.1369L160.834 94.1551L161.869 91.9847H157.934C158.814 90.176 158.918 88.2639 158.348 86.3002C157.778 84.3365 156.639 82.8895 154.931 81.9077L156.536 77.9802C157.364 78.4453 158.193 78.9621 159.073 79.4272C161.248 80.7191 163.371 81.9594 165.546 83.2513C165.753 82.8379 165.96 82.4245 166.167 81.9594C163.216 80.2024 160.212 78.4453 157.105 76.6883L159.28 71.3139L142.037 61.392L143.435 57.9297L156.484 65.4228C157.209 65.8362 157.727 65.6295 158.089 64.906L160.885 59.0666C161.248 58.3431 161.093 57.7746 160.368 57.3612L134.477 42.53C133.752 42.1166 133.234 42.2716 132.872 43.0468L130.024 48.8862C129.661 49.6097 129.816 50.1782 130.541 50.6432L142.917 57.723L140.949 62.6323C140.328 62.3222 139.603 62.1672 138.826 62.1672L128.574 62.1155C127.072 62.1155 126.554 62.6839 127.02 63.8208L123.706 59.79L123.085 61.6504L116.198 57.6713L108.431 76.7917C108.431 76.7917 108.431 76.7917 108.431 76.8434C106.152 81.6493 103.149 85.9901 99.4207 89.8659L99.3689 89.9176V89.9693C96.3655 93.0182 92.6373 95.9638 88.2358 98.7543L67.8339 110.537L69.1284 111.26C69.1284 111.26 69.1284 111.26 69.0766 111.312C68.1963 111.829 67.6268 112.345 67.3678 112.862C67.1089 113.431 67.2125 113.844 67.7303 114.154L77.2581 119.58C77.7759 119.838 78.5009 119.942 79.4847 119.735C80.4168 119.58 81.2971 119.218 82.2292 118.702ZM135.978 114.361L132.509 115.498L133.855 116.273C133.286 116.738 132.664 117.255 132.043 117.72C131.681 117.616 131.266 117.565 130.749 117.565H121.531C119.926 117.565 119.149 118.03 119.149 118.908V124.231C119.149 124.748 119.357 125.109 119.823 125.316L119.46 125.523L114.178 126.195L116.25 127.383L111.952 129.864C111.33 129.14 110.295 128.675 108.793 128.417L98.385 126.711C97.8154 126.608 97.3494 126.608 96.9869 126.608L96.8316 126.505L95.1228 123.404L93.414 124.489L90.566 122.836L98.2815 118.391L100.146 119.477L101.129 116.945C102.579 117.668 104.185 118.185 105.997 118.391L104.961 119.012L107.499 120.459C107.913 120.148 108.275 119.993 108.534 119.89L106.049 118.443C106.67 118.495 107.291 118.547 107.965 118.547C110.761 118.547 113.143 117.926 115.11 116.789C117.078 115.653 118.114 114.257 118.114 112.655C118.114 111.053 117.13 109.658 115.11 108.521C115.007 108.47 114.903 108.418 114.748 108.366C117.078 106.609 119.201 104.697 121.169 102.733L124.224 104.49L124.897 104.852L123.085 106.661L128.263 106.816L128.936 107.178C128.522 107.694 128.263 108.211 128.263 108.78C128.263 109.555 128.574 110.123 129.299 110.485L135.978 114.361ZM103.77 119.683L102.735 120.304L106.774 122.629C106.825 122.577 106.877 122.526 106.981 122.474C107.24 122.319 107.55 122.164 107.913 122.061L103.77 119.683ZM125.985 96.2221L122.878 97.8241L124.276 98.5993C123.862 99.1677 123.396 99.6845 122.929 100.253H122.774C122.205 100.873 121.687 101.493 121.117 102.062L120.34 101.597L121.946 100.15L117.13 99.5811C117.648 99.0127 117.907 98.4959 118.01 97.9275C118.114 97.204 117.803 96.6356 117.182 96.2738L106.825 90.4343C109.052 87.7988 111.02 84.9566 112.625 81.9594L114.955 83.303L113.868 85.6284L118.424 85.3184L118.839 85.5251L117.441 89.0908C116.975 90.331 117.285 91.2612 118.476 91.933L125.985 96.2221ZM131.681 85.37L122.878 80.3057C121.739 79.6339 120.91 79.944 120.496 81.1325L118.994 84.9566L116.043 80.7708L115.11 82.7862L112.366 81.1842L112.211 81.4426C110.554 84.5432 108.586 87.4371 106.308 90.1243L105.168 89.4525C104.547 89.0908 103.719 89.0391 102.735 89.2458C101.751 89.4525 100.922 89.9176 100.146 90.5377V90.5894C99.3689 91.2612 98.9546 91.933 98.851 92.6565C98.7993 93.3799 99.0582 93.9484 99.7313 94.3101L101.285 95.1886L96.0031 95.8604L100.456 98.4442L101.595 95.3953L111.641 101.131C112.262 101.493 113.091 101.545 114.023 101.338C114.955 101.131 115.835 100.666 116.612 100.046L116.871 100.201L118.01 103.56L119.874 101.907L120.651 102.372C118.683 104.335 116.509 106.196 114.178 108.004C112.366 107.178 110.295 106.764 107.861 106.764C105.065 106.764 102.631 107.333 100.663 108.47C98.6957 109.606 97.6601 111.002 97.6601 112.604C97.6601 114.051 98.4368 115.291 99.9902 116.324L95.5888 116.841L97.6601 118.03L89.9446 122.474L85.9574 120.2L87.8216 119.115L82.8505 118.34C83.3684 117.978 83.7308 117.565 83.8862 117.151C84.1451 116.583 84.0415 116.169 83.5237 115.911L74.0477 110.433C73.5299 110.123 72.8049 110.072 71.8211 110.175C71.0443 110.33 70.3194 110.537 69.5945 110.847L68.766 110.382L88.3912 99.0644C92.8962 96.2221 96.6244 93.2766 99.6796 90.1243L99.7831 90.0209C103.563 86.0935 106.567 81.701 108.845 76.895L116.353 58.2914L122.826 62.0121L121.894 64.751L126.399 64.0792L127.538 64.6993L133.13 73.6394C133.752 74.6213 134.529 75.3447 135.512 75.7065L133.234 77.2568L134.684 78.0836L134.218 79.2722V79.3238L131.681 85.37ZM83.2648 106.661L82.2292 107.229L86.2681 109.555C86.3199 109.503 86.3717 109.451 86.4753 109.4C86.7342 109.245 87.0448 109.09 87.4073 108.986L83.2648 106.661ZM81.0382 107.953L80.0026 108.573L85.6985 111.932C85.9574 111.725 86.1128 111.622 86.2163 111.518C86.3717 111.415 86.4753 111.312 86.6306 111.26L81.0382 107.953ZM68.4035 122.577C68.3517 122.629 68.2999 122.629 68.2481 122.732L71.2515 124.489L72.3389 123.869L69.0766 121.957C68.9213 122.164 68.7142 122.371 68.4035 122.577ZM69.2838 119.528L65.2448 117.203L64.1574 117.823L68.1964 120.148C68.2481 120.097 68.2999 120.045 68.4035 119.942C68.6624 119.787 68.9731 119.632 69.2838 119.528ZM66.384 116.531L68.9213 117.978C69.3356 117.668 69.698 117.461 69.9569 117.41L67.4714 115.911L66.384 116.531ZM74.7208 120.148C74.4619 120.304 74.0995 120.51 73.6852 120.769L75.7047 121.957L76.7403 121.337L74.7208 120.148ZM70.3712 121.389C70.4747 121.285 70.6301 121.13 70.8372 120.975C70.9926 120.872 71.1479 120.717 71.355 120.614L70.0605 119.942C69.9569 120.148 69.7498 120.304 69.4909 120.51C69.3873 120.562 69.3355 120.665 69.2838 120.665L70.3712 121.389ZM72.0282 121.13C71.9246 121.285 71.7693 121.389 71.6139 121.544C71.4586 121.699 71.355 121.802 71.1997 121.905L73.4263 123.197L74.5137 122.577L72.0282 121.13ZM70.423 117.616C70.3194 117.771 70.1123 117.926 69.9051 118.133C69.8016 118.236 69.6462 118.288 69.5427 118.391L72.9085 120.355C73.1156 120.252 73.3745 120.097 73.6334 119.942C73.7888 119.89 73.8923 119.787 74.0477 119.787L70.423 117.616ZM136.134 75.9132C136.496 76.0165 136.911 76.0682 137.377 76.0682L147.681 76.1199C149.442 76.1199 149.856 75.3447 148.872 73.6911L143.021 64.4926C142.555 63.7691 142.037 63.2007 141.416 62.7873L141.778 61.8571L158.555 71.5207L157.675 73.6394C156.38 72.9159 155.086 72.1925 153.791 71.4173C153.636 71.8307 153.429 72.2958 153.273 72.7609C154.568 73.4844 155.863 74.2078 157.157 74.9313L154.464 81.5976C152.859 80.7708 151.15 80.6158 149.39 81.1325C147.526 81.701 146.179 82.8895 145.299 84.6982C145.247 84.8533 145.144 85.0083 145.092 85.1633L134.736 79.1688L135.15 78.2386L136.755 79.1688L136.134 75.9132ZM129.299 106.816L129.195 106.764L126.917 102.94L125.311 104.542L121.687 102.475C122.774 101.338 123.81 100.15 124.742 98.961L126.399 99.9429L126.244 96.9973C126.347 96.8423 126.451 96.7389 126.554 96.5839L133.441 100.511C134.58 101.183 135.357 100.873 135.823 99.6845L137.169 96.1188L138.93 99.9946L140.017 97.7724L146.335 101.39C144.833 104.18 143.073 106.816 141.001 109.296L134.787 105.731C134.063 105.317 133.182 105.214 132.147 105.421C131.111 105.576 130.231 106.041 129.506 106.713C129.402 106.713 129.35 106.764 129.299 106.816ZM137.428 95.292L138.826 91.7263C139.292 90.486 138.982 89.5558 137.843 88.884L132.147 85.6284L134.529 79.7889L144.885 85.7318C144.367 87.2821 144.367 88.8324 144.833 90.486C145.403 92.4497 146.594 93.9484 148.354 94.9302C150.115 95.9121 151.927 96.1705 153.791 95.602C155.293 95.1369 156.536 94.2068 157.416 92.9148L157.83 93.1215L159.436 96.6356L160.419 94.6202L161.714 95.3436L157.986 104.49C157.986 104.49 157.986 104.49 157.986 104.542C155.655 109.451 152.549 113.896 148.665 117.875L147.733 117.306C147.785 117.255 147.888 117.203 147.94 117.151C148.665 116.479 149.079 115.756 149.131 115.032C149.183 114.257 148.82 113.689 148.147 113.275L141.519 109.451C143.642 106.868 145.454 104.18 146.956 101.286L147.06 101.08L140.276 97.204L141.208 95.292H137.428ZM127.642 75.1897C127.849 74.7763 128.056 74.3629 128.263 73.8978C125.26 72.1408 122.153 70.3321 118.994 68.4717C118.942 68.6268 118.787 68.8851 118.632 69.2469C118.528 69.4536 118.424 69.6086 118.321 69.7636C119.253 70.3321 120.237 70.8489 121.169 71.3656C123.292 72.6576 125.467 73.8978 127.642 75.1897ZM128.781 72.5025C128.988 72.0374 129.143 71.5723 129.247 71.1589C128.315 70.5905 127.383 70.022 126.451 69.5053C126.399 69.712 126.295 69.9704 126.192 70.2804C126.14 70.4871 126.088 70.6938 125.985 70.8489C126.917 71.4173 127.849 71.9341 128.781 72.5025ZM133.234 59.6867C133.441 59.2733 133.648 58.8599 133.855 58.3948C130.852 56.6378 127.745 54.8291 124.535 52.9687C124.483 53.1237 124.328 53.3821 124.172 53.7439C124.069 53.9506 123.965 54.1056 123.862 54.2606C124.794 54.8291 125.777 55.3458 126.71 55.8626C128.884 57.1545 131.059 58.3948 133.234 59.6867ZM127.797 53.1237C128.729 53.6405 129.661 54.2089 130.593 54.7257C130.645 54.5707 130.697 54.4157 130.749 54.2606C130.904 53.9506 131.059 53.6922 131.266 53.4855C129.661 52.5553 128.056 51.6251 126.399 50.6432C126.347 50.85 126.295 51.16 126.192 51.5218C126.14 51.7285 126.088 51.9352 125.985 52.0385C126.606 52.4519 127.227 52.762 127.797 53.1237ZM134.373 56.9995C134.58 56.5344 134.736 56.0693 134.891 55.6559C133.959 55.0874 133.027 54.519 132.095 54.0022C132.043 54.2089 131.939 54.4673 131.836 54.7774C131.784 54.9841 131.732 55.1908 131.629 55.3458C132.509 55.9143 133.441 56.431 134.373 56.9995ZM158.503 75.0864C158.452 75.2931 158.4 75.4998 158.296 75.6548C158.918 76.0165 159.539 76.3783 160.109 76.6883C161.041 77.2051 161.973 77.7735 162.853 78.2903C162.905 78.1353 162.957 77.9803 163.06 77.7735C163.216 77.4635 163.371 77.2051 163.526 77.0501C161.921 76.1199 160.316 75.1897 158.659 74.2079C158.659 74.4662 158.607 74.7246 158.503 75.0864ZM152.756 74.2079C152.549 74.6213 152.393 75.0347 152.186 75.4998C153.222 76.0682 154.257 76.6883 155.293 77.2568C155.5 76.8434 155.707 76.4299 156.018 76.0682C154.879 75.4481 153.791 74.828 152.756 74.2079ZM114.852 66.1463C114.644 66.5597 114.489 66.9731 114.334 67.4382C115.369 68.0066 116.353 68.6268 117.389 69.2469C117.596 68.8335 117.803 68.4201 118.114 68.0066C117.026 67.3865 115.887 66.7664 114.852 66.1463ZM122.981 53.7439C123.188 53.3304 123.396 52.917 123.706 52.5036C122.619 51.8835 121.531 51.2634 120.444 50.6432C120.237 51.0567 120.082 51.4701 119.926 51.9352C120.91 52.5553 121.946 53.1237 122.981 53.7439ZM120.962 49.248C122.36 50.0231 123.706 50.7983 125.104 51.5734C125.208 51.16 125.467 50.7466 125.777 50.3332C124.379 49.5064 122.981 48.7312 121.531 47.9561C121.324 48.3695 121.169 48.7829 120.962 49.248ZM119.512 67.0765C119.615 66.663 119.874 66.2496 120.185 65.8362C118.787 65.0094 117.389 64.2342 115.939 63.4591C115.784 63.8725 115.628 64.3376 115.421 64.8027C116.767 65.5262 118.114 66.3013 119.512 67.0765ZM122.205 68.6268C123.137 69.1435 124.069 69.712 124.949 70.2287C125.001 70.0737 125.053 69.9187 125.156 69.7636C125.311 69.4536 125.467 69.1952 125.674 68.9885C124.069 68.0583 122.463 67.1281 120.806 66.1463C120.755 66.353 120.703 66.663 120.599 67.0248C120.548 67.2315 120.496 67.4382 120.392 67.5415C121.014 67.955 121.635 68.265 122.205 68.6268ZM91.7052 110.227L93.7247 111.415L94.7603 110.795L92.7408 109.606C92.4819 109.761 92.1712 109.968 91.7052 110.227ZM87.1484 111.415C86.9931 111.57 86.7342 111.777 86.4235 112.035C86.3717 112.087 86.3199 112.139 86.2681 112.19L89.3232 113.947L90.3589 113.327L87.1484 111.415ZM88.8054 110.485C88.9608 110.382 89.1161 110.227 89.3232 110.123L88.0287 109.451C87.9251 109.658 87.718 109.813 87.4591 110.02C87.3555 110.072 87.3038 110.175 87.2002 110.227L88.3394 110.898C88.4947 110.743 88.6501 110.64 88.8054 110.485ZM89.6339 111.002C89.4786 111.157 89.375 111.26 89.2197 111.363L91.4463 112.655L92.5337 112.035L90.1 110.588C89.9446 110.743 89.8411 110.847 89.6339 111.002ZM87.9769 106.868L85.4914 105.421L84.4558 106.041L86.9413 107.488C87.3555 107.178 87.718 106.971 87.9769 106.868ZM91.7052 109.4C91.8605 109.348 91.9641 109.245 92.1194 109.193L88.443 107.074C88.3394 107.229 88.184 107.384 87.9251 107.591C87.8216 107.694 87.6662 107.746 87.5627 107.849L90.9802 109.813C91.1874 109.71 91.4463 109.555 91.7052 109.4ZM112.262 123.249L114.23 124.438L115.266 123.818L113.246 122.629C112.987 122.784 112.625 122.991 112.262 123.249ZM107.602 124.438C107.447 124.593 107.188 124.799 106.929 125.058C106.877 125.109 106.825 125.161 106.774 125.213L109.777 126.97L110.813 126.35L107.602 124.438ZM110.191 124.024C110.036 124.179 109.932 124.283 109.777 124.386L112.004 125.678L113.091 125.058L110.605 123.611C110.45 123.766 110.295 123.869 110.191 124.024ZM109.311 123.507C109.466 123.404 109.622 123.249 109.829 123.146L108.534 122.474C108.431 122.681 108.224 122.836 107.965 123.042C107.861 123.094 107.809 123.197 107.706 123.249L108.845 123.921C109 123.766 109.156 123.663 109.311 123.507ZM108.431 120.614C108.327 120.717 108.224 120.769 108.12 120.872L111.486 122.836C111.693 122.732 111.952 122.577 112.211 122.422C112.366 122.371 112.47 122.267 112.625 122.216L108.897 120.097C108.793 120.252 108.638 120.407 108.431 120.614ZM100.508 121.544L106.204 124.903C106.463 124.696 106.618 124.593 106.774 124.489C106.929 124.386 107.033 124.283 107.188 124.231L101.544 120.975L100.508 121.544ZM164.407 77.5668C164.355 77.7735 164.251 78.0319 164.096 78.342C164.044 78.5487 163.992 78.7554 163.889 78.9104C164.821 79.4789 165.753 79.9956 166.685 80.5641C166.892 80.099 167.047 79.6339 167.203 79.2205C166.271 78.6521 165.339 78.0836 164.407 77.5668ZM108.016 142.369L109.052 141.749L107.033 140.561C106.774 140.716 106.411 140.923 105.997 141.181L108.016 142.369ZM103.563 142.369L105.79 143.661L106.877 143.041L104.392 141.594C104.288 141.749 104.133 141.853 103.977 142.008C103.822 142.163 103.667 142.266 103.563 142.369ZM103.563 144.953L104.599 144.333L101.337 142.421C101.181 142.576 100.922 142.783 100.663 143.041C100.612 143.093 100.56 143.145 100.508 143.196L103.563 144.953ZM95.3299 138.959L94.2943 139.579L99.9902 142.938C100.249 142.731 100.404 142.628 100.56 142.525C100.715 142.421 100.819 142.318 100.974 142.266L95.3299 138.959ZM102.32 140.457C102.217 140.664 102.01 140.819 101.751 141.026C101.647 141.078 101.595 141.181 101.492 141.233L102.631 141.904C102.735 141.801 102.89 141.646 103.045 141.491C103.201 141.388 103.356 141.233 103.563 141.129L102.32 140.457ZM102.683 138.08C102.579 138.235 102.424 138.39 102.165 138.597C102.062 138.7 101.958 138.752 101.854 138.855L105.22 140.819C105.427 140.716 105.686 140.561 105.945 140.406C106.1 140.354 106.204 140.251 106.359 140.199L102.683 138.08ZM99.7313 136.375L98.6957 136.995L101.233 138.442C101.647 138.132 102.01 137.925 102.269 137.822L99.7313 136.375ZM97.5565 137.667L96.5209 138.235L100.56 140.561C100.612 140.509 100.663 140.457 100.767 140.406C101.026 140.251 101.337 140.096 101.699 139.992L97.5565 137.667Z" fill="#F2FAFF"/>
<path fill-rule="evenodd" clip-rule="evenodd" d="M63.0182 118.495L68.6624 121.75C68.507 121.802 68.4035 121.905 68.2481 122.009C68.1446 122.112 67.9374 122.215 67.7303 122.422L61.9825 119.115L63.0182 118.495ZM82.2292 118.701C82.3327 118.65 82.3845 118.598 82.4881 118.546L82.3845 118.185L82.9023 118.288L87.9251 119.218L86.061 120.303L90.0482 122.577L97.7636 118.133L95.6924 116.944L100.094 116.428L101.388 116.273L101.129 116.996L100.146 119.528L98.2815 118.443L90.566 122.887L93.414 124.541L95.1228 123.456L96.8316 126.556L96.9869 126.66C96.9351 126.66 96.9351 126.66 96.8834 126.66L97.0905 127.021L96.3655 126.918L90.566 126.35L92.8962 124.851L90.0482 123.197L77.9313 130.174L91.6534 138.08C92.3783 138.494 92.3783 138.907 91.6534 139.32L86.061 142.576C85.3361 142.99 84.6111 142.99 83.8862 142.576L57.9954 127.693C57.2704 127.28 57.2704 126.866 57.9954 126.453L63.5878 123.197C64.3127 122.784 65.0377 122.784 65.7108 123.197L77.4135 129.915L89.5304 122.939L85.4914 120.613L83.3684 121.854L82.5398 118.96L82.2292 118.701ZM81.0382 107.953L86.6824 111.208C86.527 111.26 86.4235 111.363 86.2681 111.467C86.1646 111.57 85.9574 111.673 85.7503 111.88L80.0543 108.521L81.0382 107.953ZM83.2648 106.661L87.3038 108.986C86.9931 109.09 86.6824 109.245 86.3717 109.4C86.2681 109.451 86.2163 109.555 86.1646 109.555L82.1256 107.229L83.2648 106.661ZM70.423 117.616L74.0994 119.787C73.9441 119.838 73.8405 119.89 73.6852 119.942C73.4263 120.097 73.1674 120.2 72.9602 120.355L69.5944 118.391C69.698 118.288 69.8016 118.236 69.9569 118.133C70.1123 117.926 70.2676 117.771 70.423 117.616ZM72.0282 121.13L74.5655 122.577L73.4781 123.197L71.2515 121.905C71.355 121.802 71.5104 121.699 71.6657 121.544C71.7693 121.389 71.9246 121.285 72.0282 121.13ZM70.3712 121.389L69.232 120.717C69.2838 120.665 69.3873 120.613 69.4391 120.562C69.698 120.355 69.9051 120.2 70.0087 119.993L71.3032 120.665C71.1479 120.769 70.9408 120.872 70.7854 121.027C70.6301 121.182 70.4747 121.285 70.3712 121.389ZM74.7208 120.148L76.7403 121.337L75.7047 121.957L73.6852 120.769C74.0994 120.51 74.4619 120.303 74.7208 120.148ZM66.384 116.531L67.4714 115.911L69.9569 117.41C69.698 117.513 69.3355 117.72 68.9213 117.978L66.384 116.531ZM69.2838 119.528C68.9731 119.632 68.6624 119.787 68.3517 119.942C68.2481 119.993 68.1963 120.097 68.1446 120.148L64.1056 117.823L65.193 117.203L69.2838 119.528ZM68.4035 122.577C68.7142 122.319 68.9213 122.112 69.1284 121.957L72.3907 123.869L71.3032 124.489L68.2999 122.732C68.2999 122.681 68.3517 122.629 68.4035 122.577ZM118.839 85.525L118.424 85.3183L113.868 85.6283L114.955 83.3029L112.625 81.9593C111.02 84.9565 109.104 87.7987 106.825 90.4343L117.13 96.3771C117.751 96.7388 118.062 97.3073 117.958 98.0307C117.855 98.5992 117.596 99.1676 117.078 99.6844L121.894 100.253L120.289 101.7L121.065 102.165C121.635 101.545 122.205 100.976 122.722 100.356H122.878C123.344 99.8394 123.81 99.271 124.224 98.7025L122.826 97.9274L125.933 96.3254L126.088 96.222V96.4288L126.451 96.6355C126.347 96.7905 126.244 96.9455 126.14 97.0489L126.295 99.9945L124.638 99.0126C123.654 100.201 122.671 101.39 121.583 102.527L125.208 104.594L126.813 102.992L129.092 106.816L129.195 106.867C129.04 106.971 128.936 107.126 128.833 107.281L128.159 106.919L122.981 106.764L124.794 104.955L124.12 104.594L121.065 102.837C119.098 104.8 116.975 106.661 114.644 108.469C114.489 108.366 114.282 108.263 114.127 108.211C116.509 106.454 118.632 104.542 120.599 102.578L119.823 102.113L117.958 103.767L116.819 100.408L116.56 100.253C115.784 100.925 114.955 101.338 113.971 101.545C112.987 101.751 112.211 101.7 111.589 101.338L101.544 95.6019L100.404 98.6509L95.9513 96.067L101.233 95.3952L99.6796 94.5167C99.0582 94.155 98.7475 93.5865 98.7993 92.8631C98.9028 92.1396 99.3171 91.4161 100.094 90.796V90.7443C100.819 90.0725 101.699 89.6591 102.683 89.4524C103.667 89.2457 104.495 89.2974 105.117 89.6591L106.256 90.3309C108.534 87.6437 110.502 84.7498 112.159 81.6492L112.314 81.3908L115.059 82.9928L115.991 80.9774L118.942 85.1632L119.149 85.4216H118.839V85.525ZM91.7052 109.4C91.4463 109.555 91.1874 109.658 90.9802 109.813L87.5627 107.849C87.6662 107.746 87.7698 107.694 87.9251 107.591C88.1323 107.384 88.2876 107.229 88.4429 107.074L92.1194 109.193C91.9641 109.296 91.8605 109.348 91.7052 109.4ZM87.9769 106.867C87.718 106.971 87.3555 107.178 86.9413 107.488L84.4558 106.041L85.4914 105.421L87.9769 106.867ZM89.6339 111.002C89.7893 110.847 89.9446 110.743 90.0482 110.588L92.5337 112.035L91.4463 112.655L89.2197 111.363C89.375 111.26 89.5304 111.157 89.6339 111.002ZM88.8054 110.485C88.6501 110.64 88.4947 110.743 88.3912 110.898L87.252 110.226C87.3038 110.175 87.4073 110.123 87.5109 110.02C87.7698 109.813 87.9769 109.658 88.0805 109.451L89.375 110.123C89.1679 110.226 88.9608 110.381 88.8054 110.485ZM87.1484 111.415L90.4107 113.327L89.375 113.947L86.3199 112.19C86.3717 112.138 86.4235 112.087 86.4752 112.035C86.7342 111.828 86.9413 111.622 87.1484 111.415ZM91.7052 110.226C92.1194 109.968 92.4819 109.761 92.7408 109.606L94.7603 110.795L93.7247 111.415L91.7052 110.226ZM103.77 119.683L107.861 122.009C107.55 122.112 107.24 122.267 106.929 122.422C106.825 122.474 106.774 122.577 106.722 122.577L102.683 120.252L103.77 119.683ZM105.997 118.443L108.482 119.89C108.224 119.993 107.861 120.2 107.447 120.458L104.91 119.011L105.945 118.391L105.997 118.443ZM120.444 125.574L119.667 126.04L118.632 128.83L116.767 127.745L112.262 130.329C112.159 130.174 112.055 130.019 111.952 129.915L116.25 127.435L114.178 126.246L119.46 125.574L119.823 125.368C119.978 125.419 120.185 125.523 120.444 125.574ZM100.508 121.544L101.544 120.924L107.188 124.179C107.033 124.231 106.929 124.334 106.774 124.438C106.67 124.541 106.463 124.644 106.204 124.851L100.508 121.544ZM108.431 120.613C108.638 120.407 108.793 120.252 108.948 120.148L112.677 122.267C112.521 122.319 112.418 122.37 112.262 122.474C112.004 122.629 111.745 122.732 111.538 122.887L108.172 120.924C108.224 120.769 108.327 120.717 108.431 120.613ZM109.311 123.507C109.156 123.662 109 123.766 108.897 123.921L107.757 123.249C107.809 123.197 107.913 123.146 108.016 123.042C108.275 122.836 108.482 122.681 108.586 122.474L109.881 123.146C109.673 123.249 109.518 123.404 109.311 123.507ZM110.191 124.024C110.347 123.869 110.502 123.766 110.605 123.611L113.091 125.058L112.004 125.678L109.777 124.386C109.881 124.283 110.036 124.179 110.191 124.024ZM107.602 124.438L110.864 126.35L109.829 126.97L106.825 125.213C106.877 125.161 106.929 125.109 106.981 125.058C107.24 124.851 107.447 124.644 107.602 124.438ZM112.262 123.249C112.677 122.991 113.039 122.784 113.298 122.629L115.318 123.817L114.282 124.438L112.262 123.249ZM131.991 117.72C132.613 117.254 133.234 116.738 133.804 116.273L132.457 115.497L135.927 114.361L136.289 114.257L136.237 114.567L136.444 114.671C136.393 114.722 136.289 114.826 136.237 114.877L135.927 117.565L134.218 116.583C133.648 117.048 133.079 117.513 132.457 117.978C132.406 117.823 132.198 117.771 131.991 117.72ZM137.428 95.2919H141.157L140.225 97.2039L147.008 101.08L146.904 101.286C145.403 104.129 143.59 106.867 141.467 109.451L141.001 109.193C143.073 106.712 144.833 104.077 146.335 101.286L140.017 97.669L138.93 99.8911L137.169 96.0153L136.807 95.2402H137.428V95.2919ZM108.016 142.369L106.049 141.181C106.463 140.922 106.825 140.716 107.084 140.561L109.104 141.749L108.016 142.369ZM97.5565 137.667L101.647 139.992C101.337 140.096 101.026 140.251 100.715 140.406C100.612 140.457 100.56 140.561 100.508 140.561L96.4691 138.235L97.5565 137.667ZM99.7313 136.375L102.269 137.822C102.01 137.925 101.647 138.132 101.233 138.442L98.6957 136.995L99.7313 136.375ZM102.683 138.08L106.411 140.199C106.256 140.251 106.152 140.302 105.997 140.406C105.738 140.561 105.479 140.664 105.272 140.819L101.906 138.855C102.01 138.752 102.113 138.7 102.217 138.597C102.424 138.39 102.579 138.235 102.683 138.08ZM102.32 140.457L103.615 141.129C103.46 141.233 103.304 141.336 103.097 141.491C102.942 141.646 102.786 141.749 102.683 141.904L101.544 141.232C101.595 141.181 101.699 141.129 101.803 141.026C102.01 140.819 102.217 140.664 102.32 140.457ZM95.3299 138.959L100.974 142.214C100.819 142.266 100.715 142.369 100.56 142.473C100.456 142.576 100.249 142.679 99.9902 142.886L94.2943 139.527L95.3299 138.959ZM103.563 144.953L100.56 143.196C100.612 143.145 100.663 143.093 100.715 143.041C101.026 142.783 101.233 142.576 101.388 142.421L104.651 144.333L103.563 144.953ZM103.563 142.369C103.667 142.266 103.822 142.163 103.977 142.008C104.133 141.853 104.288 141.749 104.392 141.594L106.877 143.041L105.79 143.661L103.563 142.369Z" fill="#8EC2FF"/>
<path fill-rule="evenodd" clip-rule="evenodd" d="M181.443 51.315V49.7647L167.047 41.5481V43.0984L181.443 51.315ZM185.275 52.4002L185.016 52.5035L184.912 52.5552C184.084 53.0203 183.721 53.9505 183.721 55.2424C183.721 56.586 184.187 57.9813 185.016 59.4282C185.844 60.8235 186.88 61.857 188.071 62.5288C189.21 63.2006 190.246 63.304 191.074 62.8906V62.9423C191.126 62.9423 191.178 62.8906 191.229 62.8389C192.006 62.3738 192.369 61.4953 192.369 60.2034C192.369 58.8598 191.954 57.4645 191.126 56.0692C190.297 54.674 189.262 53.6404 188.123 52.9686V52.917C187.035 52.1935 186.051 52.0901 185.275 52.4002ZM181.494 57.1545V55.6558L172.588 50.5915V52.1418L181.494 57.1545ZM181.443 54.4156V52.8653L167.047 44.6487V46.1473L181.443 54.4156ZM173.883 62.3738L168.704 65.3711V59.4282V58.188V56.1209L165.442 54.2606C164.251 53.5888 163.682 52.5552 163.682 51.2116V49.7647V47.5426V41.9098V40.5662V35.6569C163.682 34.9851 163.837 34.5717 164.148 34.4167C164.458 34.2617 164.873 34.365 165.442 34.6751L193.042 50.5915C194.233 51.2633 194.802 52.2968 194.802 53.6404V69.1435C194.802 69.8153 194.647 70.2287 194.388 70.3837C194.388 70.3837 194.336 70.4354 194.285 70.4354C193.974 70.5904 193.56 70.4871 192.99 70.177L176.627 60.7718L174.815 61.8054L173.883 62.3738Z" fill="#FFD22E"/>
<path fill-rule="evenodd" clip-rule="evenodd" d="M196.77 61.9605V66.508V68.0583C196.77 68.11 196.77 68.1617 196.77 68.2133C196.77 68.7818 196.615 69.1435 196.356 69.2986L194.44 70.3838C194.699 70.2287 194.854 69.8153 194.854 69.1435V53.6405C194.854 52.2969 194.285 51.2634 193.094 50.5916L165.494 34.6751C164.924 34.3134 164.51 34.2617 164.199 34.4168L166.167 33.3315C166.478 33.1765 166.892 33.2282 167.462 33.5899L195.061 49.5064C196.252 50.1782 196.822 51.2117 196.822 52.5553V59.9451V61.9605H196.77Z" fill="#FA6E00"/>
<path fill-rule="evenodd" clip-rule="evenodd" d="M185.275 52.4003C185.171 52.4519 185.119 52.4519 185.016 52.5036L185.275 52.4003Z" fill="url(#paint7_linear_43_3789)"/>
<path fill-rule="evenodd" clip-rule="evenodd" d="M191.074 62.8906C191.126 62.8906 191.126 62.8389 191.178 62.8389L188.123 57.7229V52.917C189.314 53.5888 190.297 54.6223 191.126 56.0176C191.954 57.4645 192.369 58.8081 192.369 60.1517C192.369 61.4436 192.006 62.3221 191.229 62.7872C191.229 62.8906 191.178 62.8906 191.074 62.8906ZM128.47 23.8746C128.47 25.1666 128.056 26.0967 127.227 26.5102C127.176 26.5618 127.072 26.5618 126.969 26.6135C126.192 26.9236 125.26 26.8202 124.172 26.2001V23.4096C124.638 23.6679 125.001 23.6679 125.311 23.5129C125.622 23.3062 125.778 22.9961 125.778 22.531C125.778 22.4794 125.778 22.376 125.778 22.3243L128.47 23.8746Z" fill="#8ABCF7"/>
<path fill-rule="evenodd" clip-rule="evenodd" d="M105.945 118.443C104.133 118.236 102.528 117.771 101.078 116.996L101.337 116.273L100.042 116.428C98.4886 115.394 97.7119 114.154 97.7119 112.707C97.7119 111.105 98.6957 109.71 100.715 108.573C102.683 107.436 105.117 106.868 107.913 106.868C110.295 106.868 112.418 107.281 114.23 108.108C114.386 108.211 114.593 108.263 114.748 108.366C114.852 108.418 114.955 108.47 115.11 108.521C117.13 109.658 118.114 111.053 118.114 112.655C118.114 114.257 117.078 115.601 115.11 116.789C113.143 117.926 110.709 118.546 107.965 118.546C107.291 118.546 106.67 118.495 106.049 118.443H105.945Z" fill="#FBE57E"/>
<path fill-rule="evenodd" clip-rule="evenodd" d="M82.8506 118.34L82.3327 118.236L82.4363 118.598C82.3845 118.65 82.281 118.702 82.1774 118.753C81.2971 119.27 80.365 119.58 79.3812 119.735C78.3973 119.89 77.6724 119.838 77.1546 119.58L67.6268 114.154C67.109 113.844 67.0054 113.431 67.2643 112.862C67.5232 112.345 68.0928 111.829 68.9731 111.312C68.9731 111.312 69.0249 111.312 69.0249 111.26C69.1802 111.157 69.3873 111.053 69.5427 111.002C70.2159 110.692 70.9926 110.433 71.7693 110.33C72.7531 110.175 73.4781 110.278 73.9959 110.588L83.5237 116.014C84.0415 116.273 84.1451 116.686 83.8862 117.255C83.6791 117.565 83.3166 117.926 82.8506 118.34ZM131.681 85.37L132.147 85.6284L137.843 88.884C138.982 89.5558 139.292 90.486 138.826 91.7263L137.428 95.292H136.755L137.118 96.0671L135.771 99.6328C135.305 100.873 134.529 101.131 133.389 100.46L126.502 96.5322L126.14 96.3255V96.1188L125.985 96.2221L118.476 91.8813C117.337 91.2095 116.975 90.2793 117.441 89.0391L118.839 85.4734L118.942 85.215H119.253L119.046 84.9566L120.548 81.1325C121.014 79.8923 121.79 79.6339 122.93 80.3057L131.681 85.37ZM131.991 117.72C132.198 117.771 132.406 117.875 132.509 117.978C132.872 118.185 133.027 118.547 133.027 118.96V124.283C133.027 125.213 132.25 125.678 130.593 125.678H121.376C120.962 125.678 120.651 125.626 120.34 125.575C120.082 125.523 119.874 125.471 119.667 125.368C119.201 125.161 118.994 124.748 118.994 124.283V118.96C118.994 118.03 119.771 117.616 121.376 117.616H130.593C131.215 117.565 131.629 117.616 131.991 117.72Z" fill="#9999FC"/>
<path fill-rule="evenodd" clip-rule="evenodd" d="M133.234 24.3914V30.0759V32.1429C133.234 32.7631 133.079 33.1765 132.82 33.3315C132.768 33.3315 132.768 33.3832 132.716 33.3832L131.111 34.3134C131.318 34.1066 131.37 33.7449 131.37 33.2281V18.8103C131.37 17.5701 130.852 16.6399 129.713 16.0198L104.288 1.34359C103.77 1.03352 103.356 0.981848 103.097 1.13688L104.806 0.15502C105.065 -0.103364 105.479 -0.0516869 106.1 0.31005L131.577 14.9862C132.664 15.6064 133.182 16.5366 133.182 17.7768V22.9961V24.3914H133.234ZM129.972 37.1039V40.1528L128.159 41.1864V33.1248L129.765 34.1066C129.816 34.1583 129.92 34.1583 129.972 34.21V37.1039Z" fill="#BD1C61"/>
<path fill-rule="evenodd" clip-rule="evenodd" d="M128.47 23.8747L125.829 22.3761C125.829 21.911 125.674 21.4459 125.363 21.0325C125.053 20.5157 124.69 20.1023 124.224 19.8439V16.7433C125.415 17.4151 126.451 18.4486 127.279 19.7922C128.056 21.1875 128.47 22.5828 128.47 23.8747Z" fill="#FFCC00"/>
<path fill-rule="evenodd" clip-rule="evenodd" d="M124.172 16.7433V19.8439C123.706 19.5855 123.344 19.5338 122.981 19.6889C122.671 19.8439 122.515 20.154 122.515 20.5157L119.874 19.0687C119.874 17.7768 120.289 16.8983 121.117 16.4332V16.3816C121.997 15.9681 123.033 16.0715 124.172 16.7433Z" fill="#9494E9"/>
<path d="M137.925 77.2138C137.101 76.7086 136.195 76.0386 135.539 75.3989C135.416 75.279 134.933 74.734 134.817 74.5809C132.788 71.8653 132.384 68.0361 134.104 64.7349C136.464 60.2069 141.933 58.3671 146.295 60.6406C150.618 62.8939 152.251 68.3551 149.978 72.8635L152.835 74.3526C155.961 68.2086 153.739 60.7513 147.84 57.6766C141.905 54.5835 134.461 57.0803 131.248 63.2461C129.032 67.4969 129.407 72.3934 131.792 76.0384C132.226 76.6898 132.92 77.4895 133.167 77.7384C133.973 78.536 135.049 79.348 136.055 79.9775C136.397 80.191 137.634 80.8542 137.996 81.0447L157.67 90.2992L159.211 87.3432L139.569 78.106C139.308 77.9698 138.172 77.3646 137.925 77.2138ZM142.003 73.4368C141.795 73.3286 140.712 72.7549 140.521 72.6327C140.196 72.4255 139.731 72.1159 139.453 71.8753C139.147 71.5894 138.88 71.2827 138.774 71.1174C138.023 69.9681 137.908 68.4252 138.608 67.0821C139.626 65.1283 141.975 64.3378 143.857 65.3185C145.699 66.2787 146.403 68.5817 145.472 70.5148L148.217 71.9455C149.97 68.4408 148.703 64.2194 145.342 62.4679C141.945 60.6969 137.7 62.1215 135.86 65.6503C134.563 68.1388 134.817 71.0037 136.268 73.0988C136.478 73.4464 136.955 73.9442 137.096 74.0747C137.581 74.5234 138.284 75.024 138.875 75.3916C139.092 75.5299 140.202 76.1194 140.436 76.2434L140.434 76.2478L160.156 85.5273L161.644 82.6737L142.003 73.4368ZM124.639 73.5483L121.763 72.0492L130.89 52.6199L126.687 50.4294L128.245 47.4412L135.324 51.1308L124.639 73.5483ZM122.751 50.2766L121.254 53.1499L124.412 54.7957L117.561 69.8587L120.324 71.299L128.673 53.3627L122.751 50.2766Z" fill="#D91920"/>
<path d="M164.169 66.4307C163.133 65.8907 161.827 66.301 161.266 67.3778C160.705 68.4545 161.099 69.7948 162.135 70.3347C163.202 70.8911 164.493 70.4292 165.055 69.3525C165.616 68.2757 165.237 66.9871 164.169 66.4307ZM162.3 70.0172C161.444 69.5712 161.071 68.4884 161.568 67.5352C162.04 66.6304 163.15 66.2985 164.006 66.7445C164.861 67.1901 165.221 68.2887 164.75 69.1935C164.253 70.1467 163.155 70.4628 162.3 70.0172Z" fill="#D91920"/>
<path d="M163.606 69.2718C163.719 69.0545 163.794 68.8365 163.596 68.6319C163.952 68.68 164.088 68.4914 164.153 68.3677C164.413 67.8681 164.009 67.5769 163.83 67.4833L163.004 67.0528L161.995 68.9876L162.34 69.1671L162.753 68.3734L163.025 68.5147C163.415 68.7181 163.35 68.9215 163.261 69.0919C163.089 69.4218 163.057 69.484 163.108 69.5675L163.453 69.7474C163.419 69.6302 163.481 69.5849 163.606 69.2718ZM163.307 68.3028L162.901 68.091L163.218 67.4817L163.566 67.663C163.807 67.7886 163.929 67.9527 163.807 68.1875C163.742 68.3111 163.594 68.4526 163.307 68.3028Z" fill="#D91920"/>
</g>
<defs>
<linearGradient id="paint0_linear_43_3789" x1="65.256" y1="84.8506" x2="35.7664" y2="84.8363" gradientUnits="userSpaceOnUse">
<stop offset="0.3412" stop-color="#1A80CC"/>
<stop offset="0.5686" stop-color="#72C3FF"/>
</linearGradient>
<linearGradient id="paint1_linear_43_3789" x1="183.325" y1="164.365" x2="156.463" y2="164.351" gradientUnits="userSpaceOnUse">
<stop offset="0.3412" stop-color="#F11F79"/>
<stop offset="0.5725" stop-color="#FF4494"/>
</linearGradient>
<linearGradient id="paint2_linear_43_3789" x1="30.7955" y1="113.893" x2="3.68781" y2="113.879" gradientUnits="userSpaceOnUse">
<stop offset="0.3333" stop-color="#FFB200"/>
<stop offset="0.5725" stop-color="#FFD55D"/>
</linearGradient>
<linearGradient id="paint3_linear_43_3789" x1="78.8885" y1="160.251" x2="114.314" y2="98.8269" gradientUnits="userSpaceOnUse">
<stop offset="0.0862745" stop-color="#E8FAFF"/>
<stop offset="0.9686" stop-color="#C4F2FF"/>
</linearGradient>
<linearGradient id="paint4_linear_43_3789" x1="59.5422" y1="114.81" x2="155.04" y2="114.81" gradientUnits="userSpaceOnUse">
<stop offset="0.2118" stop-color="#29C1ED"/>
<stop offset="0.3569" stop-color="#B3E4F2"/>
</linearGradient>
<linearGradient id="paint5_linear_43_3789" x1="60.6353" y1="139.004" x2="97.841" y2="139.081" gradientUnits="userSpaceOnUse">
<stop offset="0.3804" stop-color="#5FCBE3"/>
<stop offset="0.4627" stop-color="#A8EFFF"/>
</linearGradient>
<linearGradient id="paint6_linear_43_3789" x1="153.399" y1="180.397" x2="126.651" y2="180.367" gradientUnits="userSpaceOnUse">
<stop offset="0.3412" stop-color="#9797EE"/>
<stop offset="0.5725" stop-color="#C7C7FF"/>
</linearGradient>
<linearGradient id="paint7_linear_43_3789" x1="191.265" y1="63.0361" x2="185.178" y2="52.4542" gradientUnits="userSpaceOnUse">
<stop offset="0.4863" stop-color="#B80065"/>
<stop offset="0.5333" stop-color="#658000"/>
</linearGradient>
<clipPath id="clip0_43_3789">
<rect width="202" height="188" fill="white"/>
</clipPath>
</defs>
</svg>
