<svg fill="none" height="185" viewBox="0 0 172 185" width="172" xmlns="http://www.w3.org/2000/svg" xmlns:xlink="http://www.w3.org/1999/xlink"><linearGradient id="a"><stop offset="0" stop-color="#ffecf8"/><stop offset="1" stop-color="#e9f7ff"/></linearGradient><linearGradient id="b" gradientUnits="userSpaceOnUse" x1="0" x2="167.754" xlink:href="#a" y1="106.811" y2="106.811"/><linearGradient id="c" gradientUnits="userSpaceOnUse" x1="0" x2="167.754" xlink:href="#a" y1="156.762" y2="156.762"/><linearGradient id="d" gradientUnits="userSpaceOnUse" x1="1.2581" x2="166.548" y1="154.423" y2="154.423"><stop offset="0" stop-color="#ffb5e4"/><stop offset="1" stop-color="#00abff"/></linearGradient><linearGradient id="e"><stop offset="0" stop-color="#d4d4f1"/><stop offset="1" stop-color="#b0b0e2"/></linearGradient><linearGradient id="f" gradientUnits="userSpaceOnUse" x1="88.0707" x2="12.293" xlink:href="#e" y1="99.0324" y2="99.0324"/><linearGradient id="g" gradientUnits="userSpaceOnUse" x1="91.8908" x2="93.5291" xlink:href="#e" y1="144.251" y2="144.251"/><clipPath id="h"><path d="m0 0h172v185h-172z"/></clipPath><g clip-path="url(#h)" clip-rule="evenodd" fill-rule="evenodd"><path d="m.314538 132.873c-.209692-1.408-.314538-2.867-.314538-4.379 0-13.188 8.17799-24.448 24.534-33.7786 16.356-9.3308 36.1719-13.9702 59.3429-13.9702 23.1711 0 42.9341 4.6915 59.2901 13.9702 16.356 9.3306 24.587 20.5906 24.587 33.8306 0 1.46-.105 2.919-.315 4.327-.21-1.408-.524-2.815-.943-4.171 0-.208 0-.469 0-.677 0-13.032-8.074-24.135-24.22-33.3617-16.146-9.2266-35.595-13.8138-58.4516-13.8138-22.8564 0-42.3054 4.5872-58.4517 13.8138-16.14624 9.1747-24.16697 20.2777-24.16697 33.3097v.521c-.366961 1.459-.6815 2.867-.891192 4.379z" fill="url(#b)"/><path d="m166.548 128.702c.419 1.356.734 2.763.944 4.171.209 1.407.314 2.867.314 4.326 0 13.188-8.178 24.5-24.586 33.831-16.356 9.331-36.12 13.97-59.2907 13.97-23.171 0-42.9345-4.692-59.3429-13.97-16.4084-9.331-24.5864-20.59-24.5864-33.831 0-1.459.104846-2.919.314538-4.326.209692-1.46.524231-2.92.943612-4.379 0 .469.05243.938.05243 1.355-.05243.626-.05243 1.251-.05243 1.929 0 13.032 8.07315 24.135 24.16705 33.361 16.1463 9.227 35.5952 13.814 58.4517 13.814 22.8561 0 42.3051-4.587 58.4521-13.814 16.146-9.226 24.219-20.329 24.219-33.361 0-.626 0-1.251-.052-1.877 0-.365.052-.782.052-1.199z" fill="url(#c)"/><path d="m1.31058 129.901c.73392 12.198 8.80702 22.728 24.11462 31.485 16.1463 9.175 35.6476 13.762 58.4517 13.762s42.3051-4.587 58.4521-13.762c15.36-8.757 23.38-19.235 24.114-31.433.053.626.053 1.252.053 1.877 0 13.032-8.074 24.135-24.22 33.362-16.146 9.174-35.595 13.813-58.4516 13.813-22.8564 0-42.3054-4.587-58.4516-13.813-16.14634-9.227-24.16707-20.33-24.16707-33.362.05242-.678.05242-1.303.10485-1.929z" fill="url(#d)"/><path d="m166.496 129.953c-.734 12.198-8.807 22.676-24.115 31.433-16.146 9.175-35.648 13.762-58.5041 13.762-22.8565 0-42.3054-4.587-58.4517-13.814-15.36-8.757-23.3807-19.235-24.11462-31.485 0-.469-.05243-.886-.05243-1.355 0-.156 0-.365 0-.521 0-13.032 8.07315-24.135 24.16705-33.3098 16.1463-9.2265 35.5952-13.8137 58.4517-13.8137 22.8561 0 42.3051 4.5872 58.4521 13.8137 16.146 9.2268 24.219 20.3298 24.219 33.3618v.677c0 .417-.052.834-.052 1.251z" fill="#fff"/><path d="m133.155 116.713c-.315-3.388-.63-6.411-.892-9.174.472-.157.892-.574 1.258-1.147.42-.73.682-1.355.682-1.981 0-.365-.105-.73-.262-1.042 0-.417-.262-.73-.786-.991-.42-.208-.892-.313-1.416-.417-.105-.886-.157-1.772-.262-2.6062 3.355 2.7632 5.033 5.8902 5.085 9.4352 0 2.919-1.153 5.577-3.407 7.923zm-122.4083 6.516c.2621-.104.4718-.208.7339-.365.3146-.208.5243-.313.5767-.313.0524-.417.1048-.781.1573-.99.1048-.678.2097-1.355.3145-2.033l36.7486-21.1115c.2621-.1564.5242-.3127.7863-.417l14.3115 8.2365c-.0524.156-.0524.26-.0524.417l-5.5044-3.18c-2.3067-1.355-4.456-1.46-6.4481-.313l-33.4983 19.079c-1.9397 1.147-1.7824 2.345.5242 3.701l67.4161 38.47c1.6251.938 3.1453 1.251 4.6132.99.1048 2.607.1048 4.014.1048 4.222h.2622v.053h.6814.7864c.2621 0 .5242 0 .7339-.053h.2097c0-.104 0-.312 0-.677 0-.261 0-.521 0-.678 0-.156 0-.313 0-.521l.1048-3.597 32.45-18.505c1.94-1.095 1.782-2.346-.577-3.649l-23.59-13.501 11.061-6.36c1.416 1.773 2.621 2.398 3.617 1.877 1.101-.573 1.783-1.303 2.097-2.137.262-.782.053-1.668-.524-2.659l1.048-.625c.892-.365 1.783-.834 2.622-1.303 4.089-2.346 6.081-5.109 6.081-8.393 0-1.981-.787-3.805-2.307-5.473l.053-.052c.576.052 1.153.052 1.729.104-.104.313-.209.782-.314 1.407l.891 1.356c.524 3.44 1.153 7.714 1.887 12.823-.838.625-1.73 1.199-2.726 1.772-1.992 1.147-4.141 2.085-6.395 2.815l-10.799 6.203 23.538 13.501c.104.574.157 1.199.262 1.773.314.156.786.417 1.31.729.158-.364.21-.677.158-1.042l-.053-.313c1.258 1.147.996 2.242-.734 3.284l-38.6356 22.154c-2.2542 1.303-4.7705 1.147-7.4441-.417l-77.7433-44.673c-2.67362-1.564-2.88331-2.971-.6291-4.222l.1048-.052-.1048 1.199c-.0524.312-.0524.573-.0524.729 0 .261.0524.469.1572.73zm66.8394-61.8229 3.1978 1.8244c-.2621.2086-.8912.5213-1.8348.9905-.1048.0521-.2097.1042-.3145.1563-.2622-.2606-.4718-.5212-.6815-.7297l-21.5459-12.4063c-.1049-.0522-.2097-.1043-.2621-.1564 0 0-.0524 0-.0524-.0522l-18.086-10.3212c-.3145-.2085-.6291-.3127-.8912-.3127l2.3591-1.2511zm-3.1454 50.5639-.3669.208-1.1533-.678c0-.104.0524-.26.0524-.364zm-12.5291-36.1768-1.9921 1.0947c-.3669-.2085-.7863-.417-1.1533-.6776-3.4075-1.9288-6.448-3.649-9.174-5.2128-.6291-.3649-1.2582-.7298-1.8872-1.0425l1.1533-.6777.7863-.417c3.1978 1.8245 6.9199 3.9096 11.1137 6.3074.4194.2085.7864.417 1.1533.6255z" fill="#f3f3ff"/><path d="m113.339 121.613c.104.157.262.365.367.469l-11.062 6.36 23.591 13.501c2.359 1.355 2.516 2.554.576 3.649l-32.4495 18.557.2621-8.288c.0524-.886.2097-5.317.4194-13.293.2097-7.506.3669-12.823.4718-16.055 0-.678 0-1.095 0-1.251.0524-.469.1048-.886.1572-1.251.3146-1.251.7864-2.45 1.5727-3.545.0525-.104.1573-.26.3146-.469.1048-.156.2621-.26.4194-.365.5242-.312 2.0443-1.199 4.5603-2.658 1.888-1.043 3.408-1.929 4.561-2.607.682-.417 1.416-.834 2.202-1.251l4.508 5.891.053.104-.262.626c0 .052-.053.104-.053.156-.209.573-.262 1.147-.209 1.72zm5.504-2.45c-.052-.104-.105-.208-.21-.261l-2.149-1.251.21-.677c.052-.261-.053-.678-.262-1.147-.263-.521-.525-.938-.787-1.199l-.262-.417c-.891-1.199-1.73-2.241-2.411-3.18 3.827-2.189 8.282-4.743 13.368-7.662 1.52 1.668 2.306 3.492 2.306 5.473 0 3.284-2.044 6.099-6.081 8.392-.839.47-1.73.939-2.621 1.304zm-86.7077-47.9049c.7864.6776 1.2058 1.4595 1.2058 2.3457 0 1.1468-.6291 2.0851-1.8873 2.867-1.2057.7819-2.726 1.1468-4.4559 1.1468-1.73 0-3.2503-.3649-4.456-1.1468-1.2581-.7819-1.8872-1.7202-1.8872-2.867 0-.8862.4194-1.7202 1.2581-2.3978v1.9808.3128.2606.0521c.1049.7298.6291 1.3553 1.4679 1.9287.9436.5734 2.0969.8862 3.4075.9383h.2097.5242c1.1533-.0521 2.2018-.3649 3.0405-.9383.8388-.5734 1.363-1.1989 1.4679-1.9287h.0524v-2.5542zm30.9296 44.4129c-.1048.052-.1573.156-.2097.208-.3145.365-.6815.73-.996 1.095-.1573.156-.3146.26-.5242.417-.0525.052-.0525.052-.0525.104-.0524.052-.0524.104-.1048.104-.0524.052-.1049.052-.1573.105l-.0524.052c-1.1533 1.042-2.1494 1.824-3.0405 2.345-.1049.053-.1573.105-.2097.157-.5243.26-.9961.521-1.4679.782-.4194.208-.8387.417-1.2057.677-.8388.47-1.5727 1.095-2.3066 1.825-.6291.677-1.0485 1.355-1.3106 1.981v.156c-.1573.626-.2621 1.199-.2621 1.825v.26c.0524.678.5242 1.355 1.3106 1.929.1048.052.2097.104.2621.156.3669.209.7339.365 1.1009.522h.1572v.052c.3146.052.5767.104.8912.156h.4194c1.6251 0 2.9357-.261 3.9317-.834.6815-.365 1.2582-.99 1.7824-1.772.4718-.834.8388-1.46 1.1009-1.773.4718-.521 1.0485-.782 1.8348-.782.1049 0 .3145.053.6291.157.3145.156.5242.208.5242.208h.2621c.7339-.156 1.2582-.312 1.6251-.417.6291-.156 1.1009-.365 1.363-.521.4718-.313.8912-.886 1.2058-1.772 0-.052.0524-.157.0524-.209.2621-.782.5242-1.459.7863-2.085.2097-.573.3146-1.616.2097-3.075v-.053c0-.052 0-.104 0-.156s0-.052 0-.156c0-.209 0-.365 0-.574-.0524-.469-.1048-.886-.1048-1.355.1573-.104.3669-.209.6291-.365.996-.521 1.5202-1.512 1.6251-2.919 0-.209.0524-.417.1048-.626l1.1533.678.367-.208 7.811 4.483c-.1572.417-.2621.834-.4194 1.198-.9436 2.346-1.5202 3.806-1.7299 4.379-.2097.574-.4718 1.251-.7864 1.929.1573.156.367.26.5243.417-.2622.678-.6815 1.668-1.2058 3.023 0 .052-.0524.105-.0524.157-.2097.417-.4194.99-.6291 1.668-.1048.312-.2097.677-.2621 1.094-.0524.105-.1048.157-.1572.261-.1573.313-.4194.73-.734 1.251-.1572.209-.2621.365-.4194.521-.2621.365-.4718.626-.6815.782-.9436.991-1.5726 1.773-1.8348 2.242-.2097.365-.3145.782-.3669 1.251v.469c0 .469 0 .886.0524 1.251.0524.417.2097.782.4194.938.4718.574 1.5202.834 3.0929.834 1.6252 0 3.1454-.417 4.6133-1.199 1.5202-.834 2.6735-1.98 3.5647-3.492.0525-.104.1573-.521.367-1.199.1573-.573.2621-.938.3145-1.147.1573-.573.3146-.938.4718-1.095.1573 0 .3146-.052.4719-.104.0524-.052.1048-.052.1048-.104 0 0 .0524 0 .0524-.052.3146-.157.6815-.574.9961-1.251.3669-.678.5242-1.199.5242-1.668 0-.052 0-.157 0-.209 0-.625-.1049-1.303-.2097-2.085-.0524-.313-.1048-.678-.2097-1.095-.1573-.521-.2621-.99-.2621-1.303l1.4678-.677.3146-1.043c.1572.521.3145 1.043.4718 1.564.1048.365.1573.625.1573.73 0 .469.1572 4.587.3669 12.25.2621 8.34.4194 13.97.5242 16.941.1573 5.004.3146 8.862.367 11.468-1.4678.261-2.9881-.052-4.6132-.99l-67.416-38.418c-2.3067-1.356-2.5164-2.555-.5243-3.701l33.4983-19.079c1.9397-1.095 4.089-.99 6.4481.313l5.5044 3.18c-.1049.521-.2097 1.042-.3145 1.511-.0525.313-.1573.574-.2097.886l-1.363 5.995c.1048.209.2621.365.4193.521 0 0 .0525.052.1573.105zm-15.3599-32.163v2.1894.1042.6777l12.2145 6.985c1.1533.1564 2.2018-.2606 3.1454-1.1468l-.4194-.2606 5.1899 2.9713c2.0445 1.0946 4.089 2.2936 6.1859 3.5446.9961.5734 1.9921 1.1989 3.0406 1.7722.1572.104.3145.209.5242.313.2621.052.4718.104.5767.104.2096 0 .4718-.104.7863-.365l2.1493-1.4072v-.417l1.4679.8862-6.8674 3.962-42.0433-24.8651 3.1454-1.8244c.0524.0521.0524.1042.1048.1563.2621.3649.5767.6777.9436.8862.367.2085.734.417 1.1009.5734.4718.2606.8912.4691 1.3106.7298.6815.3649 1.3106.7298 1.8872 1.0947.5243.3127 1.0485.6255 1.5727.9383 1.4679.9382 2.8309 1.7202 3.9842 2.3978zm33.3934-19.5999-2.1493 1.2511c-.1048-.2085-.2097-.4692-.3145-.7298.1048-.0521.2097-.1043.3145-.1564.9436-.4691 1.5203-.7819 1.8348-.9904.0524.1564.1573.2606.2097.417.0524.0521.0524.1043.1048.2085zm27.3126 29.5562c-.262.4171-.472.7298-.629 1.0426-.053.0521-.053.1564-.105.2085-.105.1564-.157.2606-.21.417.367 1.1468.891 1.9809 1.625 2.5021.787.5213 1.835.6777 3.041.4692.21-.0522.367-.1043.524-.2085.105-.1043.262-.2085.419-.3128 1.416-1.0947 2.989-1.8245 4.719-2.2415h.052l.157-.1042c.105-.0522.21-.1564.315-.2085v-.0522c0-.1042 0-.2085-.053-.3649-.104-.5212-.262-.9904-.524-1.4595-.157-.3128-.314-.5213-.472-.6777-.157-.1564-.262-.2606-.314-.3127-.053-.0522-.105-.1564-.21-.2086-.891-.6255-1.52-1.0425-1.94-1.1989-.419-.1564-1.363-.1042-2.883.1564s-2.569.8862-3.145 1.8766c-.157.2606-.262.4691-.367.6776zm4.089-5.4733 12.581 7.4542-14.206 8.2358-12.5818-7.4539z" fill="#dcdcfa"/><path d="m127.65 58.7997c.944-5.1084 1.625-9.9563 2.097-14.4914.105-.6255.052-1.1989-.21-1.7202.105 0 .262.2607.525.7298.262.417.419.9383.524 1.4596s.052 1.6159-.157 3.3361c-.158 1.6681-.577 4.2745-1.206 7.8191-.472 2.7107-.891 5.4213-1.206 8.184 0-.3649-.052-.7297-.052-1.1468-.053-1.3032-.158-2.6585-.315-4.1702zm-.629 17.8276c-.157-.1043-.314-.1564-.524-.2085-.053 0-.105-.0521-.157-.0521-.053-.7298-.105-1.4596-.158-2.1373-.052-.5212-.052-.9383-.105-1.3031.263-.2086.472-.4171.734-.6256.158-.417.315-.7819.42-1.1989-.105 1.9287-.053 3.8574.157 5.734-.105-.0521-.21-.1042-.367-.2085zm-2.097 9.7478-.314-1.0425c.629-.3128.891-.7298.838-1.3553-.052-.8341-.262-1.4075-.524-1.8245-.262-.4691-.577-.834-.943-1.1989l-.577.3127-2.988 1.616 1.31 4.6914c-.471-.2606-.943-.5212-1.415-.7819l-.839-3.1276-.052-.2606c-.525.2606-1.416.6776-2.674 1.3031-.367-.2085-.786-.417-1.153-.6776l11.795-6.5159.105-.0522c.105.3128.157.5213.105.7298 0 .0521-.053.1043-.053.1564.053.2085.053.417.105.6255l.21.6777c.157.4691.314 1.251.472 2.2415.157 1.0425.209 1.7202.157 2.0851-.105.3649-.524.834-1.363 1.3553-.472.3127-1.153.6776-2.202 1.0425zm1.73-4.3266c-.052-.8861-.105-1.7202-.157-2.5542-.472.3128-1.206.7819-2.202 1.3032 1.625 1.6159 2.412 2.033 2.359 1.251zm1.52 21.3725c-.576-.052-1.153-.052-1.73-.104.525-.313 1.049-.574 1.573-.887.157.313.315.678.367 1.043-.105 0-.21-.052-.21-.052zm.42 1.72c.052.313.105.678.157 1.043l-.891-1.356zm5.347-1.824c.157.312.262.625.262 1.042 0 .626-.21 1.303-.681 1.981-.367.573-.787.99-1.259 1.147-.104-1.356-.262-2.607-.367-3.806.525-.521.944-.782 1.259-.782.262 0 .524.157.786.418zm-20.235 18.817c-.105-.156-.263-.312-.367-.469l2.673.782c-.105-.573-.052-1.094.105-1.668.052-.208.157-.365.21-.573.419-.834 1.205-1.251 2.359-1.303.052.104.105.208.209.26.63 1.043.787 1.929.525 2.659-.262.834-.996 1.564-2.097 2.137-.996.573-2.202-.052-3.617-1.825zm-21.7035-55.6194c-1.2582.2606-2.3591.5213-3.3027.7819l-.7863-3.4925v-.0522h.0524c.0524 0 .0524.0522.1048.1043l2.2542-1.9287c.9436-1.0426 2.0969-2.2936 3.4075-3.8574.1049-.1564.2621-.3128.367-.4692l.0524.0521c-.0524.1043-.2097.5213-.4718 1.2511-.3146.7298-.6291 1.2511-.996 1.6159-.367.3649-.7864.5734-1.2058.7298s-.6291.417-.7339.7298zm-10.6943-2.1372c.2621-.1043.5242-.2607.8387-.417-.1048.2085-.2621.417-.5242.6255-.1049-.0521-.2097-.1564-.3145-.2085zm32.2398 55.4116.262-.626-.052-.104 1.101.156.629-.208 1.206-2.085-.21.677c.157.417.052.939-.367 1.564-.419.678-1.048 1.043-1.835.991l-.786-.313z" fill="#a6c6d7"/><path d="m129.747 44.3082-.419 1.9288c-.787-3.2319-2.622-5.8383-5.505-7.7149-2.621-1.7202-5.295-3.2319-8.021-4.5872-1.153-.9904-2.359-1.9287-3.564-2.8149 0-.1564 0-.3127 0-.4691.472.1564.996.3649 1.52.6255 2.988 1.4074 5.871 2.9191 8.65 4.6393 2.883 1.7724 5.295 4.0139 7.234 6.7245.157.4691.21 1.0425.105 1.668zm-7.968 43.3179c1.468.834 2.831 1.6159 4.141 2.3978 2.359 1.3553 4.404 2.5021 6.186 3.5447.315.1564.524.3649.786.5734.21.2606.367.5734.42.8862.105.4691-.053 1.0425-.524 1.668-.315.3128-.682.6256-1.101.8862l-34.285 19.7046c-.5766.312-1.1533.573-1.8348.729-.6291.157-1.3106.261-1.9921.261-.8912 0-1.7299-.104-2.4114-.365-.367-.104-.6815-.313-.9961-.469l-75.6988-43.4743c-.3146-.1564-.5767-.417-.8388-.6776-.1573-.2607-.2621-.5213-.3145-.782-.0525-.3127-.0525-.5734.0524-.834.2097-.6255.7339-1.1989 1.5202-1.7202l8.2305-4.7436c0 .1043.0524.1564.0524.2607-.8388.6255-1.2057 1.3031-1.2057 2.085l-5.1375 2.9713c-.7863.4692-1.2582.9904-1.363 1.5638-.0524.3128 0 .6256.1573.8862.1572.2606.3669.5213.6815.6776.1572.1043.3145.2607.5766.4171.367.1564.5767.2606.6291.3127l72.6583 41.7543c.4194.26.8388.469 1.3106.573.2621.052.5242.104.7864.157.7339.104 1.4678.104 2.2541-.053.734-.156 1.4155-.417 2.0445-.834l33.0268-18.9219c1.625-1.0946 1.992-2.0851 1.048-3.0234-.157-.1563-.419-.3649-.681-.5212-.315-.1564-.525-.3128-.682-.417-.996-.5734-1.939-1.1469-2.883-1.6681-1.52-.8862-2.883-1.6681-4.141-2.3458-.525-.3127-.997-.5734-1.416-.834-.157-.1042-.314-.2085-.472-.2606-.209-.1043-.419-.2607-.629-.3649-1.415-.7819-2.569-1.4596-3.512-2.033-.21-.1042-.367-.2085-.577-.3128-.419-.2085-.786-.417-1.048-.6255-.315-.1564-.524-.3127-.734-.417-.157-.1043-.262-.1564-.42-.2606-1.1-.6256-2.149-1.2511-3.145-1.8245-.052-.0521-.105-.0521-.157-.1043-.472-.2606-.891-.5212-1.311-.7819.472-.1042.996-.2606 1.468-.417.262.1564.524.3128.734.417.524-.417 1.153-.834 1.992-1.3031 3.512-1.2511 6.815-2.867 9.908-4.8479h.105c.262.0521.681.1564 1.31.417.525.2085 1.259.4692 2.097.7298.053 0 .105 0 .158.0521.209.0522.367.1043.524.2086.21.2085.21.4691 0 .6776l-12.057 6.3595c.209.1564.471.2607.681.4171.419.2085.786.4691 1.153.6776.158.1043.315.1564.42.2607 1.101.6255 2.149 1.1989 3.145 1.8244.42.3649.891.6255 1.311.8862zm-95.6199-24.0829.4194-.2606c0 .4692 0 .8862-.0524 1.1989-.1573 0-.2622 0-.367 0 0-.3649 0-.6776 0-.9383zm-1.3106.7298c0 .1564.0524.3128.0524.417-.1048.0522-.2096.0522-.3145.1043 0-.1043 0-.2606 0-.3649zm3.1454-1.4595c0-.1564 0-.2607.0524-.3649l.5767-.3649c-.0524.2606-.1049.5734-.1049.834v.3128c-.1048-.1564-.2621-.3128-.4193-.417-.0525 0-.0525 0-.1049 0zm2.1494.1042-.367.2085c.1048-.8861.1573-1.4595.1573-1.7202l.5242-.3127c-.0524.2085-.1049.417-.1573.6255 0 .1042-.0524.2085-.0524.3649s-.0524.4691-.1048.834zm6.3431-5.317v1.6681l-4.5083 2.6064c.1048-.5734.1572-.9905.1572-1.2511 0-.2085 0-.3649-.0524-.5213zm46.1323 5.2128-1.6775.8861c-.0525-.1042-.1573-.2606-.2097-.417l-3.1978-1.8245c.8388-.6255 2.0969-1.3553 3.722-2.2414 1.2582-.6777 2.4115-1.2511 3.5124-1.8245-.0525.2085-.1573.3649-.2097.5734-.1049.2606-.2097.5213-.3146.7819l-1.2581 3.284c-.0524.1043-.1049.2607-.2097.4171 0 .1042-.0524.2085-.1573.3649zm5.0851 5.2127c2.4638 1.4074 4.8229 2.7627 7.0771 4.0659.3145.2085.629.3649.9436.5213 2.9357 1.6681 5.7145 3.284 8.3355 4.7957-.158.0521-.315.1043-.367.1043h-.105c-.21-.0522-.577-.1564-1.206-.3649-.576-.1564-1.101-.2607-1.572-.3128-.263-.1564-.525-.3128-.787-.4691-.4192-.2085-.7862-.4692-1.1531-.6777-.734-.417-1.4679-.834-2.2018-1.251-1.1533-.6777-2.3066-1.3032-3.4599-1.9809-1.73-.9904-3.5648-2.033-5.3996-3.1276.0524-.1564.1048-.3128.1048-.4692 0-.1042-.0524-.2606-.1572-.4691.0524-.0521 0-.2085-.0524-.3649zm-6.6054-2.9713v-.7819c.0525.0521.1573.0521.2097.1043.1049.0521.2097.1564.367.2085-.1573.1564-.367.3128-.5767.4691z" fill="#f3dcfa"/><path d="m122.67 41.3892c-.472-.7298-.944-1.4075-1.363-2.033-.472-.6255-1.049-1.3032-1.73-1.9287-.682-.6256-1.468-1.4075-2.411-2.2936-.472-.417-.892-.8341-1.363-1.2511 2.725 1.3553 5.347 2.867 8.02 4.5872 2.883 1.8766 4.718 4.483 5.505 7.7149-.472 2.3457-.996 5.1606-1.573 8.4967v.2607.1042c-.052.4692-.105 1.0426-.262 1.7723-.21-1.8244-.472-3.5446-.787-5.2648-.262-1.2511-.471-2.5543-.681-3.8574-.315-1.8766-1.048-3.5968-2.202-5.1606-.419-.3649-.734-.782-1.153-1.1468zm-4.299 22.936c-.472-.3128-.996-.6777-1.52-.9904-.105-.2607-.21-.5734-.367-.8862.157-.417.367-.8862.577-1.3553.105-.1564.262-.5213.576-.9383.262 1.1989.525 2.6064.734 4.1702zm1.206 19.3914c-.577.3649-1.363.7819-2.307 1.3032-.157-.1043-.314-.1564-.419-.2607 1.311-.6255 2.202-1.0425 2.674-1.3032z" fill="#edcaf7"/><path d="m129.747 44.3082c-.472 4.5351-1.153 9.383-2.097 14.4914-.052-.417-.105-.834-.157-1.3031 0-.2086-.053-.4692-.105-.6777.105-.6777.21-1.3032.262-1.7723 0-.0522 0-.0522 0-.1043 0-.1042 0-.2085 0-.2606.577-3.3362 1.101-6.1511 1.573-8.4968zm-14.102 39.7732c-.209-.1564-.472-.2606-.681-.417l12.057-6.3595c.262-.2086.262-.4692 0-.6777.157.1043.262.1564.367.2606.21.2085.262.4171.157.6777l-.105.0521zm-24.9007 36.1766c-.1573-.052-.2621-.104-.3146-.157l-2.359-1.303-70.4566-40.3985c-.4718-.2606-.7863-.417-.996-.5734-.367-.2085-.6291-.417-.8912-.6776-.2621-.4692-.4718-.8341-.6291-1.0947v-.0521c-.0524-.1564-.2097-.417-.4718-.8341-.1572-.3127-.3145-.6255-.4194-.834l-.0524-.1043c.1049.1043.2621.2086.4718.3649.1049.1043.3146.2085.5767.3649l67.7305 38.8349 6.9723 4.014c.3145.208.6291.365.996.469.3146.104.6291.208.9961.261.996.156 1.9396.156 2.8833 0 .996-.157 1.8348-.522 2.6211-1.043l33.551-19.2349c.052 0 .472-.3128 1.258-.8341-.105.1564-.262.3649-.419.6256-.21.3127-.315.4691-.367.5212-.105.2085-.21.3649-.315.4692-.105.1564-.157.2606-.21.3649-.209.2606-.419.5212-.576.6781v.052c-.053.052-.105.104-.158.156-.157.104-.314.209-.471.313 0 0-.263.156-.734.417-.105.052-.158.104-.262.156-1.259.73-2.517 1.46-3.722 2.137-4.719 2.711-8.912 5.109-12.477 7.142-.734.417-1.468.834-2.15 1.251-.524.313-1.048.573-1.572.886-5.872 3.336-9.6985 5.578-11.4808 6.62-.3146.157-.5243.313-.6815.417-.2622.157-.5243.313-.734.417-.7863.313-1.6251.522-2.5163.522s-1.7824-.105-2.6211-.313zm26.1587-56.9233c.525.3128.996.6777 1.521.9904.209 1.199.367 2.45.576 3.8575-.052.0521-.105.0521-.157.1042-.419-1.3553-.996-2.9191-1.835-4.6914-.052-.1043-.105-.1564-.105-.2607zm9.437 13.084c-.892-.3128-1.573-.5213-2.097-.7298-.577-.2085-.996-.3649-1.311-.417-.052 0-.052 0-.105 0 .42-.2607.839-.5213 1.206-.7819.681-.4692 1.363-.9904 2.044-1.5117 0 .3649.053.834.105 1.3032.105.6255.158 1.3553.158 2.1372zm-9.07 8.601c.944-.5213 1.73-.9904 2.307-1.3032l.839 3.1277c-1.049-.5734-2.097-1.199-3.146-1.8245zm7.34.3128-1.154-4.066.577-.3127c.367.3127.681.7298.944 1.1989.262.417.419.9904.524 1.8245 0 .6255-.262 1.0946-.891 1.3553zm2.044-3.2841c0 .782-.734.3649-2.307-1.251.996-.5213 1.73-.9904 2.202-1.3032.053.834.105 1.6681.105 2.5542zm-45.6604-18.3488 1.6775-.8862c-.1048.2607-.2621.5734-.4194.9383-.0524.0522-.0524.1564-.1048.2607-.3145.1564-.5766.3127-.8388.417-.0524-.0521-.1572-.1043-.2097-.1043v-.3649c-.0524-.1563-.0524-.2085-.1048-.2606z" fill="#c490d5"/><path d="m113.758 119.059-4.508-5.891c.524-.26 1.048-.573 1.572-.886.839 1.043 1.625 2.033 2.307 2.867 1.101 1.616 1.887 2.398 2.359 2.398.21 0 .629-.208 1.206-.573l-1.206 2.085-.629.208zm-25.1106-51.7626c-.4194.1042-.7864.2085-1.1009.2606l-.5243-2.2936.6815-1.3032c.0525-.0521.1049-.1564.1573-.2085z" fill="#d5e6ef"/><path d="m85.8689 62.3965h-.0524c-.1573-.0521-.2621-.1042-.4194-.1564-.3669-.1042-.7863-.1563-1.2581-.2085-.367-.0521-.734-.0521-1.1009 0l1.2581-3.284c.1049-.2606.2097-.5213.3146-.7819.0524-.2085.1572-.3649.2097-.5734.8912-2.2415 1.8348-4.483 2.8308-6.7244.8388-1.9287 1.7824-3.9096 2.7784-5.8904.9961-1.9809 1.6252-4.066 1.8873-6.2553.2621-2.1894.8912-4.2744 1.9396-6.151.8388-1.5639 2.0969-2.6064 3.6696-3.0755.1049.3127.2097.6255.3146.9382-.6815.3649-1.2582.8862-1.7824 1.5117-1.3106 1.5639-2.0445 3.649-2.2018 6.3596s-.6815 5.2648-1.4678 7.767c-.8388 2.4499-1.73 4.8478-2.6736 7.2457-.3145.7819-.6291 1.5638-.996 2.3457-.367.834-.734 1.6681-1.1533 2.5542-.2622.5734-.5767 1.1468-.8388 1.7202-.1573.3128-.3146.6256-.4718.9905-.2097.3648-.367.7819-.5767 1.1989-.0524.1042-.1572.2606-.2097.4691zm20.2881 17.1499c0-.0521 0-.1042-.053-.1563-.052-.0522-.157-.2607-.314-.5213-.105-.2085-.21-.417-.367-.6255-.262-.4171-.472-.8341-.682-1.1469 0 0-.052-.0521-.052-.1042.943-.6255 1.835-1.3032 2.778-1.9287 1.258-.8862 2.569-1.7202 3.88-2.5543 2.411-1.5117 4.875-2.9191 7.391-4.2223.053-.0521.105-.0521.157-.1042-.209-1.4075-.367-2.6585-.576-3.8575-.262-1.5638-.472-2.9712-.734-4.1701-.262-1.4596-.524-2.6064-.839-3.4405-.681-2.1893-1.258-3.4404-1.835-3.9095l-.524-.2606c-.052 0-.052-.0522-.157-.0522-.21-.0521-.42-.1564-.682-.2606-.314-.1564-.524-.3649-.681-.5734-.21-.3128-.42-.834-.524-1.5638.052-.3128.104-.6256.209-.9383.105-.2607.21-.5213.262-.7819.577-1.3032 1.521-2.1373 2.779-2.5543.314-.1042.681-.1564 1.048-.2085.315-.0521.629-.0521.944-.0521 1.153.5213 2.044 1.251 2.726 2.1893.419.6256.681 1.3032.891 2.033.21.8862.419 1.7202.629 2.6064.839 4.0138 1.363 8.0797 1.573 12.1978.052 1.1468-.105 2.2415-.367 3.284-.053.1043-.053.2606-.105.3649-.629 1.8244-1.73 3.3361-3.407 4.4829-.472.3649-1.049.6777-1.626.9383-1.625.782-3.197 1.5639-4.823 2.3458-2.044.9904-4.141 2.0329-6.185 3.0234-.158.2606-.472.3649-.734.5212zm-40.9952 37.2186s-.0524 0-.1048 0-.1573-.052-.2621-.052c-.5243-.156-.9961-.365-1.4679-.73-.1048-.052-.2097-.104-.2621-.208h-.0524c-.0524-.052-.1049-.104-.1573-.156-.1573-.157-.3145-.313-.4194-.522l1.363-5.994c.0525-.261.1573-.574.2097-.887.1049-.521.2097-1.042.3146-1.511 0-.157.0524-.261.0524-.417l2.2542 1.303c0 .156-.0524.261-.0524.417-.367 2.137-.6816 3.91-.9437 5.369zm16.7754 8.601c-.6815-.104-1.363-.417-2.0969-.938-.1573-.156-.367-.261-.5242-.417.2621-.678.5242-1.355.7863-1.929.2097-.573.7863-2.033 1.73-4.378.1572-.365.2621-.782.4193-1.199l2.2542 1.303c-.1572.573-.3669 1.147-.5766 1.824-.1573.417-.2621.834-.4194 1.304-.1049.26-.1573.521-.2621.729-.2621.782-.4718 1.46-.6815 2.033-.2621.574-.4718 1.147-.6291 1.668zm12.8436-53.2738c-2.2541-1.3032-4.6132-2.6585-7.0771-4.0659-.0524-.1564-.1048-.3128-.1572-.4692h.0524c.367-.1042.7339-.2085 1.1009-.2606.9436-.2085 2.0969-.4691 3.3026-.7819.1573-.0521.3146-.0521.4718-.1043.0525 2.2936.8912 4.1702 2.5688 5.6298-.1049.0521-.2097.0521-.2622.0521z" fill="#369bff"/><path d="m72.9729 111.136c0 .104-.0525.26-.0525.364-.0524.209-.0524.417-.1048.626-.1049 1.407-.6815 2.398-1.6251 2.919-.2097.156-.4194.261-.6291.365-1.7824.938-3.6172 1.407-5.3996 1.355l.5243-3.44c.2621-1.46.5766-3.232.9436-5.369 0-.157.0524-.261.0524-.417zm15.0978 8.653c.6291.834 1.1533 1.72 1.5203 2.71l-.3146 1.043-1.4678.678c-1.9921 1.146-3.9317 1.511-5.8714 1.146.1573-.469.367-1.042.6291-1.72.1572-.573.4194-1.251.6815-2.033.1048-.26.1572-.521.2621-.73.1573-.469.2621-.886.4194-1.303.2097-.625.4194-1.251.5766-1.824zm7.6538-47.1234c-.3146-.1564-.6291-.3649-.9437-.5213.1049 0 .1573-.0521.2622-.0521.1572.1563.3145.2606.4718.417.0524 0 .1048.0521.2097.1564zm-17.09 54.8904c.8912.573 2.5688.886 4.9802.886 1.6776 0 3.093-.157 4.1939-.521v.156c-.0524.208-.2621.521-.5243.938-.1572.313-.4193.626-.6815.991-.629.886-.996 1.511-.996 1.928-.1048 2.138-1.1533 3.858-3.0405 5.057-.3146.208-.7339.417-1.1533.625-.3146.157-.6815.313-1.0485.417-.2097.105-.4194.157-.5766.209-1.2582.417-2.6212.573-4.0366.573-.4194 0-.8912-.052-1.3106-.208-.4718-.157-.7863-.261-.8912-.261-.0524-.313-.0524-.73-.0524-1.251 0-.209 0-.365 0-.469.0524-.469.1573-.886.3669-1.251.3146-.469.9437-1.251 1.8349-2.242.2096-.156.4193-.417.6815-.782.1048-.156.2621-.365.4193-.521.3146-.521.5767-.938.734-1.251.0524-.104.1048-.156.1572-.261.1049-.417.1573-.782.2621-1.094.2097-.678.4194-1.251.6815-1.668zm-7.9683-9.957c.1049 1.46 0 2.502-.2096 3.076-.2622.573-.5243 1.303-.7864 2.085-.5766.104-1.2057.313-1.8872.573-.2621.105-.5242.209-.7864.313-.4718.156-1.2581.417-2.359.73-.8912.313-1.5727.625-2.0969.938-.2621.157-.9436.886-2.0969 2.137-1.1009.991-2.2018 1.564-3.4075 1.721-.2097 0-.367 0-.5767 0 0 0-.0524 0-.1048 0h-.0525c-1.2581 0-2.6211-.417-4.1414-1.199-.3669-.209-.7339-.365-1.0484-.574 0-.573.0524-1.199.2621-1.824 0-.052 0-.052 0-.157.2621-.625.6815-1.303 1.3105-1.98.734-.782 1.4679-1.408 2.3067-1.825.3669-.208.7863-.417 1.2057-.678.4718-.26.9436-.521 1.4678-.781.0525-.053.1049-.105.2097-.157.8912-.521 1.8873-1.303 3.0406-2.346 0-.052.0524-.052.0524-.052.0524-.052.0524-.052.1573-.104.1572.156.4193.365.7339.573.8912.574 1.9921.887 3.2502.887l.5242-.105c.8388.105 2.0445-.156 3.7221-.782.5766-.104.996-.26 1.3105-.469z" fill="#0060e1"/><path d="m70.5614 115.358c0 .469.0524.886.1049 1.355v.574.156.156.052c-.3146.157-.7864.365-1.3106.574-1.6775.677-2.8833.938-3.722.782l-.5243.104c-1.2581 0-2.359-.261-3.2502-.886-.3145-.209-.5767-.417-.7339-.574.0524 0 .0524-.052.1048-.104 0 0 0-.052.0524-.104.1573-.156.3146-.313.5243-.417.3145-.365.6815-.73.996-1.095.0524-.052.1049-.156.2097-.208h.0524c.0525.104.1573.156.2621.208.4194.365.8912.574 1.4679.73.1048 0 .1573.052.2621.052h.1048c1.7824.052 3.6172-.365 5.3996-1.355zm9.2789 9.018c.7339.573 1.4678.886 2.0969.938 1.8872.365 3.8269 0 5.8714-1.147.0524.313.1573.782.2621 1.304.1049.364.1573.729.2097 1.094 0-.052-.0524-.104-.0524-.156l-.3146 1.042c-.0524.157-.0524.313-.1048.47-1.1533.312-2.5687.521-4.1939.521-2.4114 0-4.0889-.313-4.9801-.886 0-.053.0524-.105.0524-.157.4718-1.355.8912-2.345 1.1533-3.023z" fill="#003f95"/><path d="m87.0223 131.778c.1572-.104.2096-.209.2096-.261-.1048.052-.1572.105-.2621.157 0 .052-.0524.104-.1048.208-.1573.052-.3146.104-.4718.104-.1573.157-.3146.522-.4718 1.095-.0525.209-.1573.574-.3146 1.147-.2097.678-.3145 1.095-.3669 1.199-.8912 1.512-2.0445 2.658-3.5648 3.492-1.4678.782-2.9881 1.199-4.6132 1.199-1.5727 0-2.6212-.26-3.093-.834-.2097-.208-.3145-.521-.4194-.938.1049 0 .367.052.8912.261.4718.156.8912.208 1.3106.208 1.4154 0 2.7784-.208 4.0366-.573.2097-.052.4194-.105.5766-.209.367-.104.734-.26 1.0485-.417.4194-.208.8388-.417 1.1533-.625 1.8872-1.199 2.8833-2.919 3.0405-5.057 0-.417.367-1.042.9961-1.928.2621-.365.5242-.678.6815-.991.2621-.417.4194-.73.5242-.938 0-.052 0-.104 0-.157.0524-.156.0524-.312.1048-.469l.3146-1.042c0 .052.0524.104.0524.156.1573.782.2097 1.46.2097 2.085v.209c0 .469-.1573.99-.5242 1.668-.2621.73-.6291 1.147-.9436 1.251zm-17.2997-9.018c0 .052-.0524.104-.0524.208-.3145.887-.6815 1.46-1.2057 1.773-.3145.208-.7864.365-1.363.521-.367.104-.8912.261-1.6251.417-.0524 0-.1573 0-.2621 0-.0525 0-.2097-.052-.5243-.208-.3145-.105-.5242-.157-.629-.157-.7864 0-1.4155.261-1.8349.782-.3145.313-.6815.938-1.1008 1.772-.5243.782-1.1009 1.408-1.7824 1.773-.9961.573-2.3066.834-3.9318.834-.1048 0-.2621 0-.4193 0-.3146 0-.5767-.052-.8912-.157-.0525 0-.1049 0-.1573 0-.367-.104-.7339-.26-1.1009-.521-.0524-.052-.1572-.104-.2621-.156-.7863-.574-1.2581-1.251-1.3106-1.929 0-.104 0-.156 0-.261.3146.209.6291.365 1.0485.574 1.5203.782 2.8833 1.199 4.1414 1.199h.0524.1049.5766c1.2058-.157 2.3066-.73 3.4075-1.721 1.1533-1.251 1.8348-1.98 2.097-2.137.5242-.313 1.2057-.625 2.0969-.938 1.0484-.313 1.8348-.573 2.359-.73.2621-.156.5242-.26.7864-.313.5766-.364 1.2057-.521 1.7823-.625z" fill="#00265b"/><path d="m86.8649 131.934c.0525-.104.1049-.156.1049-.208.1048-.104.1573-.157.2621-.157 0 .053-.0524.105-.2097.261 0 .052-.0524.052-.0524.052s-.0524 0-.1049.052z" fill="#4d4d4d"/><path d="m127.65 58.7997c.157 1.5117.262 2.9191.315 4.118 0 .3649.052.7819.052 1.1468.052 1.1468 0 2.2936-.052 3.3883-.053 1.1468-.315 2.3457-.734 3.7011-.105.3649-.262.7819-.42 1.1989-.262.2085-.471.417-.734.6255-.681.5213-1.31 1.0426-2.044 1.5117-.419.2606-.786.5213-1.206.7819-3.093 1.9809-6.395 3.5968-9.908 4.8479-.891.3127-1.835.6255-2.778.8861-.472.1564-.944.2607-1.468.417-.472.1043-.891.2086-1.363.3128-.052-.1564-.157-.2606-.157-.417-.158-.3128-.367-.6777-.629-1.0947 0-.0521-.053-.1042-.105-.1564-.105-.2085-.21-.3648-.315-.5212.262-.1564.577-.2607.839-.4171 2.044-.9904 4.141-2.0329 6.186-3.0233 1.625-.7819 3.198-1.5639 4.823-2.3458.576-.2606 1.153-.6255 1.625-.9383 1.625-1.1468 2.778-2.6585 3.407-4.4829.053-.1043.105-.2607.105-.3649.315-1.0426.42-2.1372.367-3.284-.209-4.1702-.734-8.2362-1.572-12.1978-.21-.8862-.367-1.7202-.63-2.6064-.209-.7819-.471-1.4596-.891-2.033-.629-.9383-1.52-1.668-2.726-2.1893-.367 0-.681 0-.943.0521-.367.0521-.682.1043-1.049.2085-1.258.417-2.149 1.2511-2.778 2.5543-.105.2606-.21.5212-.262.7819-.053.3127-.158.5734-.21.9383.105.6776.262 1.1989.524 1.5638.157.2085.42.417.682.5734.209.1042.419.1564.681.2606.053 0 .105.0521.157.0521l.525.2607c.576.417 1.153 1.7202 1.835 3.9095.262.8862.524 2.033.838 3.4404-.262.4692-.472.782-.576.9383-.21.4692-.42.9383-.577 1.3553.105.3128.262.6256.367.8862.052.1043.052.1564.105.2606.839 1.7724 1.415 3.3883 1.835 4.6915-2.517 1.3032-4.981 2.7106-7.392 4.2223-.157-.3127-.262-.6255-.367-.8861-.105-.2607-.21-.5734-.315-.8341l-.786-2.6585c-.367-1.8766-.577-3.8053-.629-5.734 0-.2085 0-.4691 0-.6776 0-.9383-.052-1.8766-.052-2.8149 0-.1043 0-.2085 0-.3128-.053-2.1893.104-4.3787.576-6.5159.315-1.5638.891-3.0234 1.835-4.3787.262-.3649.577-.6776.891-.9904.262-1.4075.839-2.7106 1.783-3.9096.681-.834 1.467-1.5117 2.411-2.0329 1.258-.6777 2.569-.8862 3.932-.6256.262.1043.576.2085.839.4171.367.2085.734.5212 1.1.7819.367.3649.734.7298 1.049 1.1989 1.153 1.5638 1.887 3.284 2.202 5.1606.209 1.3032.472 2.5542.681 3.8574.315 1.7202.577 3.4404.787 5.2649.052.2085.052.4691.104.6776.105.3649.158.782.21 1.199zm-29.3568-28.5658c.0524.1564.1048.3649.1573.5213.2097.5212.4193 1.1468.5766 1.7723.0524.1564.1049.3128.1573.4691-1.0485 1.9287-1.9921 3.8053-2.7784 5.5777-.8388 1.8765-1.3106 3.7531-1.4155 5.6818-.1048 1.9288-.0524 3.3362 0 4.2224.1049.8861.1049 1.9808.0525 3.284-.0525 1.251-.0525 2.7627-.0525 4.5351-.3145.4691-.629.8861-.9436 1.3031-.1048.1564-.2621.3128-.3669.4692-1.3106 1.5117-2.4639 2.8149-3.4075 3.8574l-2.2542 1.9287c-.0524-.0521-.0524-.0521-.1049-.1042l-.0524-.0522c-.0524-.0521-.1048-.1042-.1573-.1563h-.0524c-.1572-.1564-.3145-.2607-.5242-.4171l-1.1533-.6776c-.0524-.0521-.1049-.0521-.1573-.1043.1049-.2085.1573-.3649.2621-.5734.2097-.417.367-.7819.5767-1.1989.1573-.3128.3145-.6776.4718-.9904.2621-.5734.5766-1.1468.8388-1.7202.3669-.8341.7863-1.6681 1.1533-2.5543.3145-.7819.6815-1.5638.996-2.3457.9436-2.3457 1.8348-4.7436 2.6736-7.2457.8387-2.45 1.3106-5.0563 1.4678-7.767.1573-2.7106.8912-4.7957 2.2018-6.3595.5766-.4691 1.1533-.9383 1.8348-1.3553z" fill="#4fb6fb"/><path d="m104.217 38.105c-.157-.6255-.315-1.4074-.472-2.2414-.105-.4692-.157-.9904-.262-1.5638 1.468-.5213 2.779-1.199 3.879-1.9809 1.259-.9383 2.15-1.9287 2.622-3.0755.262-.6255.367-1.3032.367-1.9808.157-.4692.314-1.4596.471-3.0234.105-.0522.21-.0522.367-.1043h.262c.105-.0521.21-.1564.367-.2606.053-.0522.053-.0522.105-.1043l-.052-.2606-.053-.1564c-.262.0521-.471.1564-.734.2085.367-.834 1.049-1.1468 1.94-.9383.734.7298.786 1.7202.21 2.867-.367.6256-.629 1.0947-.734 1.4596-.21.417-.367.8862-.472 1.3553v.1043c0 .1563-.052.2606-.052.417.052-.0522.052-.0522.104-.1043v.0521.3128c-.052.1043-.052.2085 0 .3128.158.3649.21.7298.263 1.0947v.1042.4692.0521c0 .7819-.105 1.5117-.42 2.2415-.419.834-1.258 1.7723-2.569 2.8148-1.31 1.0426-2.988 1.7202-4.98 2.0851-.157-.0521-.157-.1042-.157-.1564zm2.988 43.2136c-.629.2607-1.153.5213-1.625.8862-.052.0521-.105.0521-.157.1564-.105.0521-.158.1042-.262.1564l-.053.0521c-.157.1042-.314.2606-.472.3649-.367.417-.891.7298-1.572 1.0425-.262.1043-.525.2085-.787.3128-.052 0-.052 0-.104 0-.367.1564-.787.2606-1.259.3649-.104 0-.262.0521-.367.0521-.314.1043-.786.3649-1.3626.7819 0 0 0 0-.0524 0-.5243.417-.8388.6255-.8912.6255-.1049-.0521-.1573-.0521-.2621-.1042-.2097-.1043-.367-.2085-.4194-.3649v-.0521c.2097-.2085.5242-.4171.8912-.6256.2097-.1042.4718-.2085.7339-.3127.3145-.1043.6291-.2607.9436-.3649.524-.1564.996-.2607 1.415-.3649h.053c.052-.0521.105-.1043.157-.1564.157-.1564.262-.2606.42-.417 1.205-1.2511 1.834-2.5542 1.834-3.8053 0-.3128-.052-.6255-.157-1.0426-.052-.1563-.105-.3127-.157-.5212-.053-.2085-.105-.417-.157-.5213h.104c.053 0 .158-.0521.367-.1043.158-.0521.42-.2085.734-.3648.21.3127.42.6776.682 1.1468.105.2085.209.417.367.6255.157.2606.262.4691.314.5213.053.0521.053.1042.053.1563.105.1564.262.3649.314.5213.053.0521.053.1043.105.1564.21.4691.419.834.629 1.1989zm-20.1827-16.0552c-.0525.2085-.1049.3649-.1049.5213s.1049.5212.367 1.0946c-.4718-.8861-.734-1.5116-.8388-1.8765-.0524-.3128-.2097-.6777-.4194-.9383-.0524-.0522-.0524-.1043-.1048-.1564-.2621-.3649-.734-.7298-1.363-1.1468-.1049-.0521-.2097-.1564-.2621-.2085l-.5767-.3128c-.2621-.1042-.4718-.2085-.6815-.2606h1.1009c.4194.0521.8388.1042 1.2581.2085.1573.0521.2622.1042.4194.1564h.0524c.0525 0 .1049.0521.1573.1042l1.1533.6777c.1573.1042.367.2606.5243.417h.0524c.0524.0521.1048.1042.1572.1564l.0525.0521h-.0525v.0521c-.0524.0522-.1048.1564-.1572.2085zm-5.9239 6.7244v-1.5638c.1573-.2606.3146-.5213.4194-.7298.4718-.6776.6815-.834.6815-.417 0 .0521-.0524.1564-.1572.417 0 .0521-.0525.0521-.0525.1043l-.7339 1.6159zm0 2.8149v-.2085c.0525-.0521.1049-.1043.1573-.2085.1049-.1043.2097-.2607.367-.417.3669-.4692.6291-.7298.6815-.8862.0524-.0521.0524-.1043.1048-.1564.1049-.1564.2097-.3649.3146-.6776.2097-.4692.3145-.8862.4718-1.2511.4194-1.0947.8387-1.9808 1.3105-2.6585.2097-.3127.367-.5213.5243-.6255.2097-.1564.3669-.1043.4194.2606v.1564c.0524.7298 0 1.1989-.2097 1.5638l-.7864-.2606c-.2097.417-.629 1.4596-1.3105 3.1276-.1049.2085-.2097.4692-.2622.7298-.0524.1564-.1048.2606-.1572.417-.2097.5734-.4718.9904-.734 1.199-.1572.1042-.2621.1563-.4193.1563-.1573-.1042-.3146-.1563-.4719-.2606zm6.7102-6.3595c.1048.2085.1573.3649.1573.4691 0 .1043-.0525.2607-.1049.4692-.1572.417-.5242.9904-1.1009 1.7202-.7339.9904-1.2581 1.4595-1.5727 1.4595-.2621 0-.4193-.1042-.5766-.2606.2097-.2085.4718-.4692.7339-.7819.8388-.8862 1.4154-1.4596 1.73-1.7723.1572-.1564.3145-.3649.4194-.5734.0524-.0522.0524-.1043.1048-.1564.1049-.2607.1573-.417.2097-.5734zm6.2383 11.2074v-.0522h-.0524c-.7863.1043-1.4154.3128-1.9396.5213-.1573.0521-.3146.1042-.4718.1564-.2097.0521-.4194.1042-.5767.1042-.2621 0-.4718-.0521-.6291-.1564-.2097-.1563-.3145-.3127-.3145-.5733h.3145c.7339-.0522 1.5727-.2607 2.5688-.5735.3145-.1042.629-.2085.996-.3648.2097-.0522.367-.1564.5766-.2086.734-.3127 1.2582-.4691 1.5203-.4691.4194-.1043.6815 0 .7864.3128-.367.1563-1.0485.4691-1.9397.9383-.2621.1042-.5242.2085-.8388.3649zm-.3669 2.7106c-.0524-.0522-.0524-.1043-.1049-.1564-.0524-.0521-.0524-.1564-.1048-.2085.0524-.1564.1573-.3128.3145-.417.0524-.0522.0525-.0522.1049-.1043.4194-.417.996-.7298 1.6775-.9383.4718-.1564.8912-.2085 1.2057-.2085.1573 0 .2621 0 .4194.0521.4194.1043.6815.3128.7864.6256v.2085c0 .0521-.0525.1564-.2097.2606-.1573-.2606-.3146-.417-.4194-.4691-.1049-.1043-.2621-.1564-.4194-.1564-.3145 0-.5242 0-.7339.0521-.1573.0521-.2621.1043-.367.1564-.1048.0521-.1572.1042-.2621.2085-.0524.0521-.1048.1564-.2097.2085-.1048.1043-.3145.3128-.5242.6777-.2097.3127-.3146.417-.367.417-.2621 0-.4194 0-.5242-.0521-.1573 0-.2097-.0522-.2621-.1564zm3.4075 1.8244c-.2097.1043-.4194.2085-.6291.2085-.0524 0-.1573 0-.2621-.0521-.1049-.0521-.2621-.1564-.367-.2606-.0524-.0522-.0524-.0522-.0524-.0522.0524-.0521.1048-.0521.1573-.1042.1048-.0521.1572-.1043.2621-.1564h.0524c.2097-.1564.4194-.2606.6291-.417 0 0 0 0 .0524-.0521 1.363-.8341 2.1493-1.0426 2.2542-.5734 0 .0521.0524.1042.0524.1563 0 0-.2097.1564-.6291.4692-.3669.2085-.7863.417-1.2581.7298-.1049.0521-.2097.1042-.2621.1042z" fill="#ed8a55"/><path d="m24.534 64.4294v.3649.4691.2085c0 .1564.0524.3128.1048.5734.1049.5734.2097 1.4075.367 2.5543 0 .5213.0524.9383.0524 1.3032-.4718-.1564-.8388-.3649-1.2057-.5734v.0521c-.0524-.0521-.1573-.1043-.2097-.1564-.1049-.6776-.2097-1.4074-.3145-2.1893 0-.0522 0-.1564 0-.2085 0-.1564-.0525-.3649-.0525-.5213-.0524-.2607-.0524-.5213-.1048-.7819 0-.1043 0-.2085-.0524-.2607-.0525-.3127-.0525-.6776-.1049-.9383-.0524-.2606-.0524-.4691-.0524-.6776-.0524-.5734-.1573-1.0426-.2097-1.4596v-.2606c-.1573-1.1989-.2621-1.8245-.2621-1.8245 0-.8861.1048-1.3553.3145-1.4074.2097-.0522.4194.2606.6815.8862.2097.5212.4194 1.0946.5767 1.7201.0524.2086.1572.4692.2097.7298.0524.3128.1048.6777.1572 1.0426l.0525.417c0 .2606.0524.5734.0524.9383zm5.3996-3.0755c0 .2606-.0525.834-.1573 1.7202-.0524.4691-.1049 1.0947-.1573 1.7723-.0524.2085-.0524.417-.1048.6777-.0525.417-.1049.8861-.1573 1.4074 0 .3128-.0524.6255-.1048.9383-.0525.417-.0525 1.0425-.0525 1.9287-.3145.1043-.6815.2085-1.0484.2606.0524-.5734.1572-1.5638.2621-3.0233 0-.0522 0-.1564 0-.2085.0524-.3649.1048-.7298.1048-1.0426.0525-.7819.1049-1.4596.1049-2.033 0-.1563-.0524-.3127-.1573-.4691 0-.1043 0-.2085 0-.3128 0-.3127.0524-.5734.1049-.834.1048-.5213.3145-1.0426.629-1.4596.4718-.6776.6815-.4691.6815.6777.0525-.0521.0525 0 .0525 0zm73.5494-27.0541c-.629.2085-1.31.417-1.992.6255-.262-.0521-.524-.1043-.734-.1564-.577-.1564-.8911-.3649-1.1008-.6776-.2097-.3128-.367-.6777-.5242-1.0947-.0524-.1564-.1049-.3128-.1573-.4692-.1573-.6255-.367-1.251-.5767-1.7723-.0524-.1564-.1048-.3649-.1572-.5213-.1049-.3127-.2097-.6255-.3146-.9383-.2621-.7819-.4718-1.5638-.629-2.3457.1048.1043.2621.1564.4193.1564.2097-.0521.367-.1043.5243-.1564l.0524-.1042c.2097-.1564.3145-.3649.4194-.6777.0524-.2085.1048-.417.1573-.6777.0524-.1042.1048-.2606.1572-.4691.0524-.1043.2097-.1043.4194-.0521.2097 0 .4194.0521.5242.2085.0523 0 .1573.0521.2093.0521 0 .9383.263 1.5638.682 1.9287.472.3649.996.5734 1.52.6256.524 0 .839-.0522.944-.2086.629-.1042 1.048-.3127 1.363-.6776.262-.3649.472-.6255.576-.7819.053-.1564.053-.2607 0-.3649-.052-.1564-.104-.2607-.104-.3128.104-.0521.262-.1042.419-.1564 1.153-.2085 2.254-.417 3.407-.6255.053.0521.158.1564.21.2085.262.7819.315 1.5117.157 2.2936l1.049.0522c0 .6776-.105 1.3553-.367 1.9808-.472 1.1468-1.311 2.1372-2.621 3.0755-1.154.834-2.464 1.5117-3.932 2.033zm-6.7101-12.8234c.2097.1043.4718.2085.7864.3128.0524.1564.2097.3649.4194.5734.3145.3128.6815.5213 1.0484.5734.367-.1564.367-.417 0-.7298.6291.0521 1.5199 0 2.6209-.2085 2.15-.3128 3.303-.4691 3.408-.417.629 0 1.625.7298 2.988 2.0851.157.1564.314.3128.472.4691-.996.2085-1.94.3128-2.779.3128-1.835.1043-3.302.1043-4.456 0-1.153-.1043-2.0966-.2606-2.8305-.4691-.1049-.0522-.2621-.1043-.367-.1564-.5242-.1564-.8912-.3128-1.0485-.417-.0524-.0522-.1048-.0522-.1048-.0522-.1573-.5734-.1573-1.251-.1573-1.8766zm.7864 64.1688c-.0524-.0521-.0524-.1563-.0524-.2606 0-.0521.1048-.2606.3669-.5213.0524-.0521.0524-.0521.0524-.1042.1573-.1564.2622-.3649.4194-.5213.2097-.2606.4194-.5734.5767-.7819v-.0521-.2607c-.1049.0521-.2621.1564-.4194.2607.4194-.3128.6291-.4692.6291-.4692 0-.0521 0-.1042-.0525-.1564-.1572-.417-.8912-.2606-2.2542.5734 0 0-.0524 0-.0524.0522-.2097.1042-.4194.2606-.629.417 0 0 0 0-.0525 0-.0524.0521-.1572.1042-.2621.1564-.0524.0521-.1048.0521-.1572.1042-.1573-.2085-.2622-.417-.2622-.5734v-.0521c.0525-.1564.1573-.3128.4194-.5213.367-.3128.8912-.6776 1.6776-1.1468.0524 0 .1048-.0521.1572-.1043 0-.0521-.0524-.1042-.0524-.1563.1573-.1043.2097-.2085.2097-.2607 0-.0521 0-.1564 0-.2085-.0524-.3127-.3145-.5212-.7864-.6255-.1048-.0521-.2621-.0521-.4193-.0521-.367 0-.7864.0521-1.2058.2085-.6815.2085-1.2057.5212-1.6775.9383-.0524.0521-.0524.0521-.1048.1042-.1049.1564-.2097.2607-.3146.417-.1573-.417-.2621-.6255-.2621-.6255 0-.0521 0-.0521 0-.1042 0-.0522.0524-.1564.1048-.2607.1573-.3649.4194-.834.6815-1.3553.3146-.1564.5767-.3128.8912-.417.8912-.4692 1.5727-.7819 1.9397-.9383-.1049-.3128-.367-.417-.7864-.3128-.2621 0-.7863.1564-1.5202.4692-.2097.1042-.367.1564-.5767.2085-.3145.1564-.6815.2606-.996.3649-.9436.3127-1.8348.5213-2.5687.5734-.1049 0-.2097 0-.3146 0 0-.0521 0-.1043.0524-.1564.1573-.3128.734-.6777 1.7824-1.0425.3146-.1043.6291-.2086.9961-.3128.3669-.1043.8387-.2085 1.3105-.3649 2.5163-.6255 4.456-.9383 5.7666-.9383.2625 0 .5765 0 .8915.0521.471.0522.996.1564 1.572.3128.577.2085.996.3128 1.206.3649.052.1564.105.3649.157.5213.053.1563.105.3649.158.5212.104.4171.157.7819.157 1.0426 0 1.251-.629 2.5021-1.835 3.8053-.105.1564-.262.2606-.419.417-.053 0-.105.0521-.158.1564h-.052c-.419.0521-.891.2085-1.415.3649-.3674.1042-.6819.2085-.944.3649-.2621.1042-.5243.2085-.734.3127-.2621.1564-.5766.3649-.8387.5734zm-10.2749-18.7658c.0524.1564.1048.3127.1572.5213 0 .0521.0524.1042.0524.1563.0525.1564.1049.3128.1573.4692s.1049.3127.1573.417c-.0524.1043-.1573.3128-.2621.5213-.0525.0521-.0525.1042-.1049.1564-.1048.2085-.2621.417-.4194.5734-.3145.3127-.8911.8861-1.7299 1.7723-.3146.3128-.5242.5734-.7339.7819-.0525-.1043-.1573-.2085-.2097-.3128-.0525-.4691 0-.8861.1572-1.251.2097-.417.4194-.7819.6815-1.0426.2097-.3127.2622-.834.2097-1.5638 0-.0521 0-.1042 0-.1564-.0524-.3127-.2097-.417-.4194-.2606-.1572.1042-.3145.3128-.5242.6255-.4718.6777-.8912 1.5638-1.3106 2.6585-.1048.3649-.2621.7819-.4718 1.2511-.1048.3127-.2097.5212-.3145.6776-.0524.0522-.0524.1564-.1049.1564-.1048.1043-.3145.417-.6814.8862-.1573.1564-.2622.2606-.367.417-.0524.0521-.1049.1564-.1573.2085v-1.4596c0-.0521.0524-.1042.0524-.2085.1049-.2606.1573-.5734.2622-.9383.0524-.1563.1048-.2606.1572-.417.3146-.9383.4718-1.4595.4718-1.5117l.0525-.3649c.1048-.2085.1572-.3649.1572-.417 0-.417-.2097-.3128-.6815.417-.1572.2085-.3145.4692-.4194.7298v-5.4212c.2097-.1564.4194-.3128.5243-.4692.2097-.2085.3669-.417.5242-.6255.0524-.1043.0524-.1564.1048-.2606.1573-.3649.2622-.6777.4194-.9383.0525-.1564.1049-.2607.1573-.3649.1048-.2085.1573-.3128.2097-.4171.2097.0522.4194.1564.6815.2607l.5766.3128c.1049.0521.2097.1042.2622.2085.629.417 1.1008.7819 1.363 1.1468.0524.0521.0524.1042.1048.1563.2097.3128.367.6256.4194.9383.1048.5213.367 1.1468.8388 1.9809z" fill="#feb37c"/><path d="m115.75 33.8829c.472.417.891.7819 1.363 1.251.944.8862 1.73 1.6681 2.412 2.2936.681.6256 1.258 1.3032 1.729 1.9287.472.6256.944 1.3032 1.363 2.033-.314-.3128-.681-.5734-1.1-.7819-.263-.1564-.577-.3128-.839-.417-1.363-.2607-2.674-.0521-3.932.6255-.944.5213-1.782 1.1989-2.411 2.033-.944 1.1989-1.521 2.5021-1.783 3.9095-.314.2607-.629.5734-.891.9904-.944 1.3554-1.52 2.8149-1.835 4.3787-.472 2.1894-.629 4.3787-.576 6.516v.3127c0 .9383.052 1.8766.052 2.8149v.6777c.052 1.9287.262 3.8053.629 5.734l.786 2.6585c.105.2606.21.5212.315.834s.262.5734.367.8862c-1.311.834-2.621 1.6681-3.879 2.5542-.944.6255-1.888 1.3032-2.779 1.9287 0 .0522.053.1043.053.1043-.315.1564-.525.2606-.734.3649-2.621-1.5117-5.3998-3.1277-8.3355-4.7957-.1049-.0522-.1573-.1564-.2621-.2086-.1573-.1042-.3146-.2606-.4719-.417-1.6775-1.5117-2.5163-3.3883-2.5687-5.6297 0-.0522 0-.1043 0-.2085.7339-1.2511 1.363-2.6585 1.8348-4.2224.4718-1.5638.6815-3.3361.7339-5.3169 0-.1564 0-.2607 0-.4171 0-1.7723.0525-3.284.0525-4.535.0524-1.3032 0-2.3979-.0525-3.2841-.1048-.8861-.1048-2.2414 0-4.2223.0525-1.9287.5243-3.8574 1.4155-5.6819.7863-1.7723 1.7299-3.6489 2.7784-5.5776.1573.417.3145.7819.5242 1.0947.1573.3127.5244.5212 1.1014.6776-.9965 1.8245-1.2587 3.7011-.9441 5.734l3.3031-2.1372.838 3.8574c.787.1564 1.521.1043 2.202-.0521 2.307-.5734 4.037-1.9287 5.19-4.0659.577-1.0947 1.048-2.2415 1.415-3.3883.21-.7298.262-1.4596.105-2.1372-.105-.4692-.314-.9383-.629-1.4075v-.0521c1.153.8341 2.359 1.7723 3.46 2.7628zm-2.778 46.1848c-.839.4692-1.521.8862-1.992 1.3032-.263-.1564-.472-.2606-.734-.417.891-.2607 1.782-.5734 2.726-.8862z" fill="#75d2fe"/><path d="m100.757 34.7689c.21.0521.472.1043.734.1564.682-.1564 1.363-.3649 1.992-.6255.105.5212.157 1.0425.262 1.5638-.314.1042-.472.3649-.576.7819-.105.2606-.105.5213-.105.834 0 .1564.052.3128.209.4692.105.1564.263.2085.472.2606h.472v.1564c2.045-.3649 3.67-1.0426 4.98-2.0851 1.311-1.0426 2.15-1.9808 2.569-2.8149.314-.7298.419-1.4595.419-2.2415.315.4692.525.9383.629 1.4075.158.6776.158 1.4074-.104 2.1372-.367 1.1468-.787 2.2936-1.416 3.3883-1.153 2.1372-2.883 3.4925-5.19 4.0659-.681.1564-1.415.2085-2.202.0521l-.838-3.8574-3.3029 2.1372c-.2621-2.0851 0-3.9616.9959-5.7861z" fill="#eefcff"/><path d="m103.745 35.8636c.157.8862.315 1.616.472 2.2415-.157 0-.315 0-.472 0-.209 0-.367-.1042-.472-.2606-.157-.1564-.209-.2607-.209-.4692 0-.3127 0-.5734.105-.834.104-.3649.262-.6255.576-.6777z" fill="#b2d9e1"/><path d="m125.92 90.024c-1.31-.7298-2.673-1.5638-4.141-2.3979l-1.311-4.6914 2.988-1.616 1.154 4.066.314 1.0425z" fill="#bed6e3"/><path d="m97.5068 21.8413c-.2621-.1042-.5242-.2085-.7863-.3127h.0524c0-.2607.0524-.5213.0524-.7819.2097-.1043.4718-.2085.6815-.3128-.1572.5734-.1572.9904-.1048 1.3032.1048-.0521.1048 0 .1048.1042zm10.9042 2.3458c-.157-.1564-.315-.3128-.472-.4692-1.363-1.3553-2.359-2.0329-2.988-2.0851-.105-.0521-1.258.0522-3.408.4171-1.1.1563-1.9392.2085-2.6207.2085-.1049-.1043-.1573-.2085-.2622-.2607.0525-.9383.6815-1.4074 1.9399-1.4074 1.258 0 2.254-.1564 3.04-.417.787-.2607 1.363-.5213 1.783-.7819.209.5734.576 1.1989 1.101 1.8765.262.3128.629.7298 1.153 1.3554.052.1042.157.2606.262.417.315.3649.577.7298.786 1.0946h-.052c-.052 0-.157.0522-.262.0522zm.524.5213h.105c.052.0521.052.1563.105.2085-.053-.0522-.105-.1564-.21-.2085z" fill="#fd9f6c"/><path d="m94.1518 21.2158c.1048-.5734.2097-1.0425.2621-1.3032.1573-.6255.4718-1.1989.996-1.6159l1.5727-1.0426c.6815-.5212.9436-.9904.9436-1.5117v-.0521l-.1048.0521c-.0524 0-.4194.0522-1.0485.2086-.996.2085-2.3066.2085-3.9317.0521.2621-.1564.6815-.3128 1.2057-.417.5243-.1043.9961-.1564 1.363-.2085-.4193-.4171-.629-.782-.6815-1.0947 0-.3128 0-.7298 0-1.1989.3146.2085.6815.417 1.0485.5734.4194.1563 1.0485.1563 1.9921.0521-.2621-.2085-.2621-.5734.1048-.9904.2097.4691.9961.5212 2.3592.0521 1.153-.6777 2.359-1.1468 3.617-1.3553 2.988-.5213 5.504 0 7.601 1.7202-.681.9383-1.467 1.8244-2.359 2.5542-1.048.8341-2.201 1.5117-3.512 2.033-.157.1042-.367.2085-.524.3128-1.154.5212-2.464.834-3.88.9904-1.048.1042-1.8343.417-2.3061.8861-.1573.1564-.2622.3128-.367.5213-.367.7819-.4718 1.3032-.367 1.616 0 .0521.0525.0521.0525.1042.1572.2607.4718.5734.8387.8341-.3669-.0522-.7339-.2607-1.0484-.5734-.2097-.2086-.3146-.3649-.4194-.5734 0-.0522-.0524-.1043-.0524-.1564-.0525-.3128-.0525-.7298.1048-1.3032.1049-.3128.2097-.6255.367-.8341.0524-.1042.1048-.1563.1572-.2606.2097-.3649.4719-.5734.734-.7819s.7863-.5213 1.5731-.9383c-1.311.1043-2.4643.417-3.5128.9383-.996.6255-1.9396 1.5117-2.7784 2.7106zm18.2952-7.0893c.577.6255 1.049 1.3032 1.416 2.0851v.0521c-.105.1564-.21.3128-.262.5734-1.416 2.867-3.303 4.7436-5.714 5.6819-.053 0-.105.0521-.158.0521-.524-.5734-.891-1.0425-1.153-1.3553-.524-.6776-.891-1.3032-1.101-1.8766.053-.0521.157-.0521.21-.0521.314-.1564.629-.2606.943-.417 1.101-.5734 2.202-1.2511 3.356-1.9287 1.048-.5734 1.887-1.5638 2.463-2.8149z" fill="#6f47cb"/><path d="m95.41 18.2967c-.4719 0-.8388-.0521-1.2058-.1564-1.0484-.3127-1.6775-.7819-1.7824-1.4595-.0524-.2607.0525-.4692.367-.6777 1.6251.1564 2.9357.1564 3.9317-.0521.6815-.1564 1.0485-.2085 1.0485-.2085l.1048-.0522v.0522c.0525.5213-.2621.9904-.9436 1.5117zm-1.2582 2.9192c.8388-1.1469 1.7824-2.0851 2.726-2.7107 1.0485-.5212 2.2018-.834 3.5122-.9383-.8386.4171-1.3629.7298-1.5726.9383-.2621.1564-.4718.417-.7339.7819-.0524.0522-.1048.1564-.1572.2607-.1573.2606-.2622.5212-.367.834-.2621.1043-.4718.2085-.6815.3128-.6291.2606-1.2582.4691-1.73.5734-.629.1042-.9436.0521-.996-.0521zm17.2472-8.0798 1.048 1.0426c-.576 1.251-1.415 2.1893-2.516 2.867-1.101.6776-2.254 1.3553-3.355 1.9287-.314.1042-.629.2606-.944.417-.052 0-.104.0521-.209.0521-.367.2607-.996.5213-1.783.7819-.786.2607-1.834.3649-3.04.417-1.2583-.0521-1.8874.4171-1.9398 1.4075.1048.1042.2097.2085.2621.2606.3145.3128.3145.5213 0 .7298-.367-.3128-.6815-.5734-.8388-.834 0-.0522-.0524-.0522-.0524-.1043-.1573-.3127 0-.8861.367-1.6159.1048-.2085.2097-.3649.3669-.5213.4718-.4692 1.258-.7819 2.307-.8862 1.415-.1564 2.726-.4691 3.879-.9904.21-.1042.419-.2085.524-.3128 1.311-.5212 2.464-1.1989 3.513-2.0329.943-.8341 1.729-1.6681 2.411-2.6064zm.577 15.5861c-.053.0521-.053.1042-.105.1042 0-.1563.052-.2606.052-.417 0-.0521 0-.0521.053-.1042.104-.4692.262-.9383.471-1.3553.105-.3128.367-.8341.734-1.4596.577-1.1468.525-2.0851-.209-2.867-.892-.2085-1.573.0521-1.94.9383-.786.2085-1.52.3649-2.254.4691-.21-.3649-.472-.7298-.787-1.0946-.104-.1564-.209-.2607-.262-.4171.053 0 .105-.0521.158-.0521 2.359-.9383 4.246-2.8149 5.714-5.6819.105-.2085.209-.417.262-.5734v-.0521c.419.8862.734 1.8245.891 2.8149.052.5212.105 1.0425.157 1.5117 0 .1563-.052.3127-.052.417-.053 2.9191-.996 5.5255-2.883 7.8191zm-1.154-4.483c-.209 1.5639-.367 2.6064-.471 3.0234l-1.049-.0521c.157-.7298.105-1.5117-.157-2.2936-.053-.0521-.053-.1564-.105-.2085.367-.1043.734-.2085 1.101-.2607.262-.0521.472-.1563.681-.2085z" fill="#4721a1"/><path d="m108.935 24.7083c-1.101.2085-2.254.417-3.407.6255-.158.0522-.263.1043-.42.1564 0 .1043 0 .2085.105.3128.052.1042 0 .2085 0 .3649-.105.1564-.262.417-.577.7819-.314.3128-.734.5213-1.363.6776-.104.1564-.419.2086-.943.2086-.524-.0522-.996-.2607-1.52-.6256-.472-.3649-.682-.9904-.682-1.9287-.052-.0521-.105-.0521-.2097-.0521-.1573-.1043-.3145-.1564-.5242-.2085s-.3146 0-.4194.0521c-.0524.2085-.0524.3649-.1573.4692-.0524.2085-.1048.4691-.1572.6776-.0525.2606-.2097.5213-.4194.6777l-.0524.1042c-.1573.0521-.3146.1564-.5243.1564-.1572 0-.3145-.0521-.4194-.1564-.1048-.1042-.2097-.2085-.2621-.3127-.1572-.3649-.3145-.7298-.4718-1.0947-.1573-.3128-.2621-.6777-.2621-1.0426 0-.1563 0-.417.1048-.7297.0525-.3128.2097-.4171.367-.3649.0524 0 .0524.0521.1049.0521.1572.1042.5242.2606 1.0484.417.1049.0521.2621.1043.367.1564.7339.2085 1.6775.3649 2.8312.4691 1.153.1043 2.621.1043 4.456 0 .891-.0521 1.782-.1563 2.778-.3127.105 0 .21-.0522.315-.0522h.052c.734-.1042 1.468-.2606 2.254-.4691.262-.0521.472-.1564.734-.2085l.052.1564.053.2606c-.053.0521-.053.0521-.105.1043-.105.1042-.262.1563-.367.2606-.052.0521-.157.0521-.262 0-.105.0521-.21.0521-.367.1043-.21.0521-.419.1042-.681.2085-.367.0521-.734.1563-1.101.2606.104-.1564.104-.1564.052-.1564zm-5.714.6255c-.367-.0521-.734-.0521-1.101-.0521-.314 0-.681-.0521-.996-.1564-.105 0-.21 0-.21.0522-.367.5212-.262.9904.315 1.4074.21.2085.419.3649.681.3649.42.0521.787.1042 1.206.0521.367-.1042.734-.2606 1.101-.4691.367-.1564.472-.4692.419-.8341-.104-.0521-.157-.1042-.262-.1563-.367-.1043-.734-.2086-1.153-.2086zm-5.1375.3128c.1049-.3128.2097-.6776.2621-1.0425l-1.4678-.3649c.1048.834.4194 1.5117.8912 2.1372.0524-.1043.1048-.2606.1572-.417.0525-.0522.1049-.2085.1573-.3128z" fill="#1f7fff"/><path d="m103.221 25.3339c.419.0522.786.1043 1.101.2085.052.0522.157.1043.262.1564.105.417-.052.6777-.419.8341-.315.2085-.682.3648-1.101.4691-.42.0521-.787.0521-1.206-.0521-.262 0-.472-.1564-.682-.3649-.576-.417-.681-.8862-.314-1.4075 0-.0521.105-.0521.21-.0521.314.0521.629.1043.996.1564.419 0 .786 0 1.153.0521zm-5.1375.3128c-.0524.1564-.1048.2606-.1573.3649-.0524.1564-.1048.3127-.1572.417-.4718-.6255-.734-1.3553-.8912-2.1372l1.4678.3649c-.0524.3127-.1572.6255-.2621.9904z" fill="#e6edf6"/><path d="m132.263 107.539c.262 2.762.577 5.838.892 9.174.419 4.014.838 8.445 1.31 13.293v.26l1.416 14.179.052.313c.052.312 0 .677-.157 1.042l-4.718-39.773c-.053-.365-.053-.73-.105-1.043-.105-.781-.315-1.407-.524-1.824-.525-1.043-1.363-1.251-2.464-.73-.525.313-1.049.574-1.573.886-.052 0-.052.053-.052.053-5.138 2.919-9.594 5.473-13.368 7.662-.734.417-1.468.834-2.15 1.251-.524.313-1.048.626-1.572.886-.787.417-1.521.835-2.202 1.252-1.153.677-2.674 1.563-4.561 2.606-2.5163 1.459-4.0365 2.346-4.5608 2.658-.1572.105-.2621.209-.4193.365-.1573.209-.2622.365-.3146.469-.7339 1.095-1.2581 2.242-1.5727 3.545-.0524.365-.1572.782-.1572 1.251v1.251c-.1049 3.18-.2622 8.549-.4718 16.055-.2097 7.976-.367 12.407-.4194 13.293l-.2621 8.288-.1049 3.597c-.0524.208-.0524.365 0 .521v.678.678h-.2097c0-.261 0-2.033-.0524-5.317-.0524-6.777-.1573-19.965-.3145-39.565 0-.157 0-.365-.1573-.574 0 0-.1049-.156-.2621-.469-.2621-.417-.5243-.886-.8388-1.407-.4194-.574-.7863-1.095-1.1533-1.46-.2097-.26-.4194-.469-.5242-.625.8387.208 1.7299.313 2.6211.26.8912-.052 1.73-.208 2.5163-.521.2097-.104.4718-.208.7339-.417.1573-.104.4194-.208.6815-.417 1.7824-1.042 5.6093-3.232 11.4803-6.62.525-.313.996-.573 1.573-.886.682-.417 1.416-.834 2.149-1.251 3.565-2.033 7.707-4.431 12.477-7.142 1.206-.677 2.412-1.407 3.722-2.137.105-.052.157-.104.262-.156.472-.261.734-.417.734-.417.157-.105.315-.209.472-.313.052-.052.105-.104.157-.156 0 0 0 0 0-.053.158-.156.367-.3645.577-.6773.052-.1042.157-.2085.21-.3649.104-.1042.209-.2606.314-.4691v.417c0 .1043 0 .2606.053.3649.052.8344.157 1.6684.262 2.6064.052.573.105 1.147.157 1.772.157 1.251.314 2.502.419 3.858zm-121.5163 15.69c-.1048-.208-.1572-.469-.1572-.782 0-.156.0524-.417.0524-.73l.1048-1.199 4.2987-43.7866c.1573.1043.4194.2086.6815.4171s.5242.417.8912.6776c.2097.1564.5242.3128.996.5734-.7863-.2606-1.4154-.1042-1.8348.417-.4193 1.0426-.7339 2.7628-.996 5.2128-.2621 2.3978-.4718 4.4308-.6815 6.0468-.2097 1.6159-.367 3.2319-.5242 4.8478-.1573 1.4074-.3146 2.8149-.4194 4.2744-.2097 2.0327-.4718 4.0657-.6815 6.0467-.1049 1.095-.2097 2.137-.3146 3.18-.2096 2.137-.5766 5.369-.996 9.591-.0524.261-.0524.678-.0524 1.147-.0524.313-.1049.782-.1573 1.303-.0524.417-.1048.834-.1573 1.356 0 .156-.0524.417-.0524.729.1049.209.0524.417 0 .678zm70.3517-42.6923v.6777 1.4596.5212 1.5639 1.1468.9383.834l12.1098 6.9329c.2621.1564.5242.1564.8387 0h.0525l13.0006-7.4542.262.2085c.158.0522.263.1564.21.3128 0 .1042-.052.2085-.21.3128l-13.2626 7.5584h-.0525c-.3145.1564-.5766.1564-.8387 0l-12.1098-6.9329v10.0084.4171l-2.1493 1.407v-35.2898l-4.9802 2.7627s-.0524 0-.0524.0522l-13.1058 7.2457c-4.1938-2.3979-7.8634-4.483-11.1137-6.3075l-.7863.4171-11.7952-28.8786c.2621 0 .5767.1043.8912.3128l18.086 10.3733s.0524 0 .0524.0521c.1048.0522.2097.1043.2621.1564l21.5459 12.4063c.2097.2085.4194.4171.6815.7298.1048.2607.2621.5213.3145.7298l2.1493-1.2511v.3649.7819 5.4213 1.5638.1564.0521.7298.1564 1.4596.2085.2606.7298.6255.7819.6777 1.9808zm-21.1789-3.6489v16.5765l-12.2145-6.9329v-.6777c0-.0521 0-.1042 0-.1042v-2.1894-13.5531c.629.3649 1.2057.6777 1.8872 1.0426 2.726 1.5638 5.819 3.284 9.174 5.2127.4194.2085.7864.417 1.1533.6255z" fill="#b0b0e2"/><path d="m135.776 145.8c-.577-.313-1.049-.573-1.311-.73-.105-.625-.157-1.199-.262-1.772-.944-6.255-1.625-11.051-2.097-14.439 0-.052-.052-.157-.052-.209-.525-3.492-.996-6.724-1.468-9.695-.734-5.057-1.363-9.331-1.887-12.824-.053-.365-.105-.73-.158-1.042-.105-.574-.157-1.095-.262-1.616-.052-.365-.21-.678-.367-1.043 1.101-.573 1.94-.313 2.464.73.21.469.419 1.095.524 1.824.053.313.105.678.105 1.043zm-123.2993-26.22c-.1049.678-.2097 1.355-.3146 2.033 0 .209-.0524.521-.1572.99-.0524 0-.2621.105-.5767.313-.2621.105-.4718.261-.7339.365.0524-.208.1048-.469.1048-.782.0525-.313.0525-.573.0525-.73.0524-.521.1048-.938.1572-1.355.0525-.521.1049-.99.1573-1.303.0524-.261.5767-4.587 1.5203-13.032 1.2057-10.1126 1.9921-16.7849 2.4114-20.0168 0-.2606 0-.417 0-.5213l.4718-3.8053c.1049-.3127.2097-.5734.3146-.7819.1573-.2606.3145-.5213.5242-.6776.2097-.1564.4194-.3128.6291-.4692.2621-.1564.5242-.2085.7863-.2085l.734.417c-.1573.3128-.3146.6256-.367.9383-1.2582 8.6532-3.1454 21.5283-5.7141 38.6263zm47.4428-26.1157v-16.5765l1.9921-1.0947v15.8989l.7864.417.4193.2606c-.9436.8862-1.992 1.2511-3.1978 1.0947zm32.1354-1.3032s-.0525 0-.0525.0521l-.629.3128c-.2097.1043-.367.1043-.5243 0l-1.5727-.9383s0-.0521.0525-.0521l.6291-.3128c.2096-.1042.3669-.1042.5766 0l1.5203.8862v-.0521c-.0525.0521 0 .0521 0 .1042zm2.4114 1.3553c.0524 0 .1049.0521.1049.1043 0 0-.0525 0-.1049.0521l-.5766.3649c-.2097.1042-.367.1042-.5243 0l-1.5726-.9383.629-.417c.2097-.1043.4194-.1043.6291 0zm.3146-2.1893c.2097-.1043.4193-.1043.5766 0l1.5203.834v-.0521c.0524.0521.0524.0521.1048.1042-.0524 0-.0524 0-.1048.1043l-1.5203.834c-.1573.1043-.3669.1043-.5242 0l-1.4679-.834-.1048-.1043s.0524-.0521.1048-.1042v.0521zm-2.8833-2.5543.1573-.0521 1.4678-.834h-.0524c.2097-.1043.4194-.1043.5766 0l1.5203.834c.0524.0521.0524.0521.1049.0521-.0525 0-.0525.0522-.1049.1043l-1.4678.8861c-.2097.1043-.367.1043-.5767 0zm.5242 1.1468c.2097-.1042.367-.1042.5767 0l1.5202.8862v-.0521c.0525.0521.0525.1042.0525.1042s-.0525.0521-.0525.1043l-1.5202.7819c-.2097.1042-.4194.1564-.5767.0521l-1.5202-.8862c-.0525-.0521-.1049-.0521-.1049-.1042 0 0 .0524-.0521.1049-.1043v.0522zm-.3669-.4691h.0524c0 .0521-.0524.0521-.1049.1042l-1.5726.8341c-.1573.1042-.3146.1042-.5243 0l-1.4678-.8341c-.0524-.0521-.1049-.0521-.1049-.1042l.1049-.1043 1.4678-.834c.1573-.1043.367-.1043.5767 0zm-1.363-3.4926c.0524 0 .0524 0 .1048.0522-.0524 0-.0524 0-.1048.0521l-1.4679.8862c-.2097.0521-.3669.0521-.5242 0l-1.6251-.9383c0-.0522.0524-.0521.1572-.1043l1.4679-.834c.1573-.1043.3145-.0521.5242.0521zm.4194.5213c.1572-.1042.3669-.1042.5766 0l1.5203.8862h.0524s-.0524.0521-.1573.0521l-1.4678.8862c-.2097.1042-.4194.1042-.5767 0l-1.5727-.9383s.0525-.0521.1049-.0521zm3.8268-.834c.0525.0521.1049.0521.1049.1042 0 0-.0524 0-.1049.1043l-1.4678.834c-.2097.1043-.367.1043-.5242 0l-1.5203-.834c-.0524-.0521-.0524-.0521-.0524-.1043 0 0 0-.0521.0524-.1042v.0521l1.5203-.834c.1572-.1043.3669-.1043.5242 0zm1.4155 2.9191h-.0525c-.0524 0-.0524 0-.0524 0s.0524-.0521.1573-.1042l1.4678-.7819v-.1043c.1573-.1043.3146-.1043.5243 0v.0521l3.1979 1.8245c.052.0521.105.0521.105.0521s-.053 0-.105.0521l-1.416.8341c-.2093.1042-.3665.1042-.5238 0zm-.367.7819c.1573-.1042.367-.1042.5766 0l2.6212 1.4596c.0524.0521.0524.0521.0524.1042l-.1048.0522-1.4679.8861c-.2097.1043-.3669.1043-.5242 0l-2.6212-1.5116c-.0524-.0522-.0524-.0522-.1048-.0522.0524-.0521.1048-.0521.1573-.1042zm1.4154-2.2936c.0524 0 .0524.0522.0524.0522l-.0524.0521-1.5203.8861c-.2096.1043-.3669.1043-.5242 0l-1.5727-.9382c0-.0522.0524-.0522.1573-.1043l1.4678-.834c.1573-.1043.3146-.1043.5243 0zm.2097-1.4074-.5766.3127c-.1573.1043-.367.1043-.5243 0l-1.4678-.7819-.1049-.1042.1049-.0521 1.2057-.7298c.1049.0521.1573.0521.2621.0521.1573 0 .367-.0521.6291-.2085l.8912.5213c0 .0521-.0524.0521-.0524.1042-.2622.3128-.367.4692-.367.5213-.1048.2085-.0524.2606 0 .3649zm2.8313-.3128h.052l1.468-.8861c.052-.0522.105-.0522.157-.0522.157-.0521.262-.0521.419 0v.0522l1.468.8861c.053 0 .105.0521.158.0521-.053 0-.053.0522-.105.1043l-1.521.834c-.209.0522-.366.0522-.576 0l-1.52-.834-.053-.1043c0-.0521 0-.0521.053-.0521zm-1.2062.1564c.0524 0 .1049 0 .1573.0521l4.4559 2.6064v-.0521c.052.0521.105.1042.105.1042l-.105.1043-1.468.7819c-.157.1042-.367.1042-.524 0l-4.6133-2.6064c0-.0521.0525-.0521.1049-.1042l.6815-.3649c.0524.0521.1573.0521.2621.1042.0524 0 .367-.2085.9436-.6255-.0524 0 0 0 0 0zm-18.1384-12.5106c.0525.0522 0 .1043 0 .1564zm0-.7819c0-.0521.0525-.0521.0525 0zm.8912 2.6585c.2622-.2085.5243-.5734.734-1.1989.0524-.1564.1048-.3128.1572-.417l1.1533.6776c.0525 0 .1049.0522.1573.1043 0 0-.0524 0-.0524.0521l-1.5203.834c-.1572.0522-.3669.0522-.5242 0zm-.8912 1.5117.9437-.5213h-.0525c.2097-.1042.4194-.1042.5767 0v.0522l1.4678.834c.0525.0521.1049.0521.1573.0521-.0524 0-.0524 0-.1048.0522l-1.4679.834c-.1572.1043-.3669.1043-.5766.0521h.0524l-.9436-.5212v-.8341zm0-.5734v-.7298l.5243.3128c.0524 0 .0524.0521.0524.0521s-.0524 0-.0524.0521zm0 2.033c.1049 0 .2097 0 .2622.0521l1.4678.834c.0524.0522.0524.0522.1049.1043-.0525.0521-.0525.0521-.1049.1043l-1.4678.834c-.1049.0521-.2097.1042-.2622.1042zm0 2.7106v-.1043h.0525c0 .0522 0 .0522-.0525.1043zm0 2.0851v-1.4596l.3146-.1564c.2097-.1042.3669-.1563.5766-.0521v.0521l1.5203.8341c.0524 0 .0524.0521.0524.0521s-.0524 0-.0524.0521l-1.4678.8862c-.2097.1043-.4194.1043-.6291 0zm0 2.1372v-1.5638l1.2582.7298c.0524 0 .0524.0521.1049.1042-.0525 0-.0525 0-.1049 0zm0 2.0851v-.9383l.7864.4692c.0524 0 .0524.0521.1048.0521-.0524 0-.0524 0-.1048.1043l-.5767.3127c-.0524-.0521-.1572 0-.2097 0zm10.7992-8.4446c-1.0485.3649-1.6251.7298-1.7824 1.0425l-7.0771-4.0138-.1048-.0521c0-.0521.0524-.1043.1572-.1043l1.4154-.7819c.0525-.0521.1573-.1042.2097-.1042.1049 0 .2097 0 .3146.1042zm-7.4965-1.1468c.1573-.1043.367-.1043.5767 0l1.4678.7819c.0524.0521.1048.0521.1573.1042-.0525 0-.0525 0-.1049.0522l-1.4678.8861c-.2097.1043-.4194.1043-.5767 0l-1.4678-.8861h-.0524l-.0525-.0522s0-.0521.1049-.1042zm-1.1009 2.0329c.1573-.1042.3145-.1042.5242 0l1.5203.8341v-.0521c.0524.0521.1049.0521.1049.1042 0 0-.0525 0-.1049.0521l-1.4678.8341c-.2097.1042-.4194.1042-.6291 0l-1.4679-.7819-.1048-.0522c0-.0521.0524-.1042.1573-.1042zm-.9436 4.0139c-.0524-.0522-.1048-.1043-.1573-.1043.0525 0 .1049-.0521.1573-.0521l1.4678-.8341h-.0524c.2097-.1042.4194-.1042.6291 0l1.4678.8341v-.0522c0 .0522.0525.0522.0525.1043 0 0-.0525 0-.0525.1043l-1.4678.834c-.2097.1042-.4194.1042-.6291 0h.0524zm1.7824-1.7203s0-.0521.0524-.0521l1.4679-.8861c.1572-.1043.3145-.1043.5242 0v.0521l1.4678.834c.0525 0 .0524.0521.1049.0521 0 0-.0524.0001-.1049.0522l-1.4678.8861c-.2097.0522-.367.0522-.5242 0l-1.4679-.8861zm9.1216-.3127-1.6775-.9904c.1572-.0522.3145-.1043.4718-.1564.4718-.2085 1.1533-.3649 1.9396-.5213l.0524.0521c-.2621.5213-.5242.9905-.6815 1.3553-.0524.1043-.0524.2086-.1048.2607zm.3145.9383c0 .0521.0525.1564.1049.1564l-1.4679.834c-.2097.1043-.3669.1043-.5242 0l-1.4678-.834c-.1049-.0522-.1573-.0522-.1573-.1043 0 0 .0524-.0521.1048-.1042l1.4679-.8341c.1573-.1042.3145-.1042.5242 0zm-7.3392 1.5117c.1573-.1043.367-.1043.5767 0l1.4678.834v-.0521c.0524.0521.1049.0521.1049.1042 0 0-.0525 0-.1049.0522l-1.4678.834c-.2097.1043-.4194.1043-.5243.0521l-1.4678-.8861c-.0524-.0522-.1049-.0522-.1573-.0522 0-.0521.0524-.0521.1573-.0521zm.367-.8341 1.4678-.7819c.1573-.1042.367-.1042.5242 0l1.4679.8341c.0524 0 .1048 0 .1048.0521 0 0-.0524.0521-.1048.0521l-1.4679.8862c-.1572.0521-.3669.0521-.5242 0l-1.5727-.9383c0-.0521.0524-.1043.1049-.1043zm2.4114-3.3361c-.0524 0-.0524 0-.1048.0521l-1.4679.8862c-.2097.1042-.3669.1042-.5242 0l-1.5203-.8862h-.0524c-.0524-.0521-.0524-.0521-.1048-.0521 0 0 .0524-.0521.1572-.1043l1.4679-.7819v-.0521c.1573-.1043.3669-.1043.5766.0521l1.4679.7819c0 .0522.0524.0522.1048.1043zm.7864.4691 1.5202.8862c.0525.0521.0525.0521.1049.0521 0 0-.0524.0521-.1049.1043l-1.4678.834c-.2097.1043-.4194.1043-.5242 0l-1.5203-.834c-.0524-.0522-.0524-.0522-.0524-.1043s0-.0521.0524-.0521l1.5203-.8862c.0524-.1042.2621-.1042.4718 0zm5.7665 3.3362v.0521c0 .2085.1049.3649.2621.5734l-1.1533.6255c-.2097.1043-.3669.1043-.5766 0l-1.4679-.7819c-.0524-.0521-.0524-.0521-.1048-.0521.0524 0 .1048-.0521.1572-.0521l1.4679-.8341c.1573-.1042.3669-.1042.5766 0zm.6291-2.45-.6815.3649c.1048-.1043.2097-.1564.2621-.2085.1048-.0522.2621-.1043.4194-.1564zm1.4678.7298c-.7863.4691-1.363.834-1.6775 1.1468l-.4194-.2607h.1049l1.4678-.8861c.0524-.0521.1048-.0522.1573-.0522.1048 0 .2097.0001.3669.0522zm1.3106 1.7723c-.1573.2606-.367.5734-.5766.834l-.4194-.2085s0-.0521.0524-.1042zm-8.4925 0c.1572-.1042.3669-.1042.5242 0l1.5203.8862c.0524 0 .1048.0521.1572.1042-.0524 0-.0524 0-.1048.0522l-1.4678.8861c-.2097.1043-.4194.1043-.5767 0l-1.4679-.8861c-.0524-.0522-.0524-.0522-.0524-.1043 0 0 0-.0521.0524-.1043v.0522zm-7.6014 3.4925 1.5203.8862v-.0521c.0524.0521.0524.0521.1048.1042-.0524 0-.0524 0-.1048.0522l-.5767.3127c-.2097.1043-.3669.1043-.5242 0l-1.5727-.9383.1049-.0521.5766-.3128c.1049-.1042.3146-.1042.4718 0zm1.9397-1.6159h.0524s-.0524 0-.0524.0521l-1.5203.8341c-.2097.1042-.3669.1042-.5766 0l-1.4679-.8341c-.1048-.0521-.1573-.0521-.1573-.1042 0 0 0-.0522.1049-.1043v.0521l1.4678-.8861c.2097-.1043.367-.1043.5767 0zm2.0445 4.8478.5766-.3127c.1573-.1043.367-.1564.5243-.0522v.0522l1.4678.834c.0524 0 .0524.0521.1049.1043-.0525 0-.0525 0-.1049.0521l-.5242.3649c-.2097.0521-.367.0521-.5242 0l-1.5727-.9383c-.0525-.0521 0-.0521.0524-.1043zm-.5767-.4691c-.1572.1042-.3669.1042-.5242 0l-1.4678-.834c-.1049-.0522-.1573-.0522-.1573-.1043 0 0 .0524-.0521.1048-.1043v.0522l.5767-.3128c.2097-.1042.4194-.1042.6291 0l1.4678.834.1049.0522-.1049.1042zm-.5766-3.8574 1.4678.834v-.0521c.0524.0521.0524.1042.1049.1042 0 0-.0525 0-.1049.0522l-1.5202.8861c-.1573.1043-.367.1043-.5243 0l-1.5727-.9383s0-.0521.0525-.1042v.0521l1.5202-.834c.2097-.1043.367-.1043.5767 0zm1.8348 1.3553c.1573-.1043.3669-.1043.5242 0l1.4679.8861c.0524 0 .1048.0522.1048.0522s-.0524 0-.1048.1042l-1.4679.8341c-.2097.1042-.3669.1042-.5242 0l-1.4679-.8341-.1048-.1042s0-.0522.1048-.0522zm17.4045-1.3553 1.468.8861c.052 0 .105.0522.157.0522 0 0-.052 0-.105.0521l-1.468.834c-.209.0522-.419.0522-.629 0l-1.468-.8861c-.052-.0522-.052-.0522-.104-.0522h.104l1.468-.8861c.053-.0522.105-.0522.21-.1043.105.0521.21.0521.367.1043z" fill="#8c8cc8"/><path d="m17.8763 79.5464-.734-.4692c-.6815-.0521-1.1533.3128-1.3105 1.0947-.1573.7298-.2097 1.2511-.2622 1.4596l-.4718 3.8053c-.3145 1.1989-.5242 2.3457-.629 3.5446-.1049.8862-.4718 4.066-1.1009 9.6436-.6815 5.734-1.0485 8.966-1.1533 9.696.1048-1.043.2097-2.085.3145-3.18.2097-1.981.4194-4.014.6815-6.0469.1573-1.4074.2621-2.867.4194-4.2744.1573-1.616.3145-3.1798.5242-4.8478.2097-1.616.4194-3.649.6815-6.0468.2621-2.3979.5767-4.1702.9961-5.2128.4193-.5212.996-.6776 1.8348-.417l70.4041 40.4507v1.043l-3.6172-2.085-2.2542-1.304-7.811-4.483-1.4678-.834-6.2908-3.596-2.2542-1.304-14.3115-8.2357-31.5062-18.0882z" fill="url(#f)"/><path d="m17.8763 79.5463c-.2622 0-.5243.0521-.7864.2085-.2097.1043-.4194.2606-.6291.4692-.2097.2085-.3669.417-.5242.6776-.1048.2085-.2097.4692-.3145.7819 0-.2606.1048-.7298.2621-1.4595.1573-.782.5766-1.1469 1.3106-1.0947z" fill="#ada7a2"/><path d="m15.0978 76.0538c.1573.2607.367.6256.6291 1.0947-.2621-.1564-.5242-.3128-.6815-.417z" fill="#9b9591"/><path d="m11.2185 119.059c0-.469.0525-.834.0525-1.147.4193-4.274.7863-7.454.996-9.591.1048-.73.4718-3.962 1.1533-9.696.6291-5.5255.996-8.7574 1.1009-9.6436.1048-1.1468.3145-2.3457.6291-3.5446v.5212c-.4194 3.2319-1.2058 9.9042-2.4115 20.017-.9436 8.497-1.4678 12.823-1.5203 13.084z" fill="#bcb5b0"/><path d="m93.9945 169.675c-.2097.052-.4718.052-.7339.052-.3145 0-.5767 0-.7863 0-.3146 0-.5243 0-.6815 0v-.052h-.2622c0-.209-.0524-1.669-.1048-4.223-.1049-2.606-.2097-6.411-.367-11.468-.1048-2.919-.2621-8.549-.5242-16.941-.2097-7.715-.3145-11.833-.367-12.25 0-.104-.0524-.365-.1572-.73-.1049-.521-.2621-1.042-.4718-1.564-.367-.99-.8912-1.876-1.5203-2.71v-1.043l2.359 1.303c.1049.052.2097.105.3146.157.1572.156.3145.365.5242.625.367.417.7339.886 1.1533 1.46.3145.469.5767.938.8388 1.407.1573.313.2621.469.2621.469.1048.209.1573.417.1573.574.1572 19.6.2621 32.788.3145 39.564.0524 3.337.0524 5.109.0524 5.37z" fill="url(#g)"/><path d="m26.6309 70.1633c-.0524-.3648-.1048-.7297-.1573-1.1468-.0524-.6255-.1048-1.1468-.1572-1.668.0524-.9383.1048-1.7202.1572-2.3458 0 0 0 0 0-.0521s0-.1564 0-.2085c0-.1043 0-.2085 0-.3128 0-.3127 0-.6776.0525-1.1989 0-.1564 0-.3127 0-.5213 0-.8861 0-1.6159 0-2.085-.2097-1.616-.0525-2.5022.5766-2.6585.2621-.0522.4718.0521.6815.2606.2097.2606.3146.5734.3146.9904 0 .6777-.0525 1.7202-.1573 3.1798 0 .1042 0 .2606-.0524.3649-.3146-.2085-.5767.0521-.6815.7819-.0525.2606-.0525.5734-.1049.9904v.7819.417c-.0524.2607-.0524.6256-.1573 1.0947 0 .1043-.0524.2085-.0524.3649 0 .3128-.0524.6255-.1048.9383v.834.1564c0 .2606-.0524.6255-.0524 1.0425 0 0-.0525 0-.1049 0zm3.1454-5.2127c.1573-.7819.3145-1.4596.367-2.033.0524-.3648.1048-.6255.1048-.8861 0-.1043.0524-.2606.0524-.3649.0524-.2085.1049-.417.1573-.6255.1573-.5734.4194-.9905.8388-1.2511.4193-.3128.7339-.2085.7863.3128 0 .1564.0524.3127.0524.5213 0 .2606-.0524.6255-.1572 1.251 0 .1043-.0525.2606-.0525.417-.1572.8862-.4193 2.033-.7863 3.4926-.1049.2606-.1573.5734-.2097.834-.0524.1564-.1048.3128-.1573.4691-.0524.3649-.1572.9905-.2621 1.8766-.1573.1564-.3145.2607-.5242.417-.2621.1564-.5242.3128-.8388.4692 0-.8862.0524-1.5117.0524-1.9287.0525-.3128.0525-.6256.1049-.9383.1048-.417.1573-.8862.2621-1.3553.1048-.2607.1573-.4692.2097-.6777z" fill="#6c32eb"/><path d="m29.1996 69.7986c.3146-.1043.5767-.2607.8388-.4692.2097-.1042.367-.2606.5242-.417.1049-.1043.2097-.2085.3146-.3128l.2097-.3649v-.0521c0-.0521.0524-.1042.0524-.1564.0524-.1563.1048-.3649.1048-.5212 0-.3649-.1572-.6777-.3145-.9905.0524-.3127.1048-.5734.2097-.834.6291.5734.9436 1.1989.9436 1.8766 0 .1564 0 .3128-.0524.4691-.1049.6777-.5767 1.3032-1.4154 1.8245-.0525 0-.1573.0521-.1573.1043-.367.2085-.7864.417-1.2057.5212h-.0525c-.3145.1043-.6815.1564-.996.2085-.367.0522-.7339.0522-1.1533.0522-.0524 0-.1049 0-.2097 0-.0524 0-.1048 0-.1573 0-.5766 0-1.0484-.1043-1.5202-.2085-.1049-.0522-.2622-.0522-.367-.1043-.367-.1043-.6815-.2606-.9436-.417-.1573-.1043-.3146-.1564-.4718-.2607-.8388-.5212-1.3106-1.1468-1.4679-1.8244 0-.1564 0-.2607 0-.4692 0-.7819.4194-1.4595 1.2058-2.0851.0524.2607.0524.5213.1048.7819-.2097.2607-.367.5213-.4718.782-.0524.1563-.0524.3127-.1048.4691 0 .1564.0524.3649.1048.5213.1048.417.4194.7819.8388 1.1468.0524.0521.1572.0521.2097.1564v.1042c.3669.2085.7863.417 1.2057.5734.4718.1043.9436.2085 1.5203.2607h.2097.1572c.4194 0 .8388-.0522 1.2057-.1043.4194-.1043.7864-.1564 1.1009-.2606zm.4194-4.9521c.0524.0521.1049.0521.1573.1042-.0524.2085-.1049.417-.1573.6777-.0524 0-.0524-.0522-.1048-.0522.0524-.2606.0524-.5212.1048-.7297zm-3.4075.2085c0-.2085 0-.4171 0-.5734h.367v.3127.2085.0522h-.0524c-.1573-.0522-.2622 0-.3146 0zm-1.6775-.2607c.1048-.0521.2097-.0521.3145-.1042 0 .2085.0524.417.0524.5734-.1048.0521-.2621.1042-.3669.1564 0-.0522 0-.1564 0-.2085 0-.1043 0-.2607 0-.4171z" fill="#e3f0fa"/><path d="m29.5142 65.5241c.0524 0 .0524.0521.1048.0521-.1048.4692-.1572.9383-.2621 1.3553.0524-.4691.1573-.9383.1573-1.4074zm1.4154 1.0947c.2097.2606.3145.6255.3145.9904 0 .1564-.0524.3649-.1048.5212 0 .0522-.0524.1043-.0524.1564v.0522l-.2097.3648c-.1049.1043-.2097.2607-.3146.3128.1049-.8862.1573-1.5117.2622-1.8766 0-.2606.0524-.417.1048-.5212zm-7.2868 2.6063c-.4718-.3649-.7339-.7298-.8388-1.1468-.0524-.1564-.1048-.3649-.1048-.5213 0-.1563.0524-.3127.1048-.4691.1049-.2606.2621-.5734.4718-.7819 0 .1564.0525.3128.0525.5213v.2085c.1048.834.2621 1.5638.3145 2.1893zm1.4154-.6255c-.1573-1.1468-.3145-1.9808-.3669-2.5542-.0525-.2607-.0525-.4171-.1049-.5734.1049-.0522.2097-.1043.367-.1564v.5734c0 .417.0524.7298.0524 1.0425 0 .6255.0524 1.1468.0524 1.6681zm1.4154-3.5968c-.0524.6255-.1048 1.4074-.1572 2.3457-.0525-.834-.1049-1.5117-.1573-1.9287 0-.1042 0-.2085 0-.2606s0-.0521 0-.1043c.1048 0 .2097-.0521.3145-.0521z" fill="#222"/><path d="m21.9128 71.206v-3.1276c.1573.6776.6291 1.3032 1.4679 1.8244.1572.1043.3145.1564.4718.2607.3145.1563.6291.2606.9436.417.1048 0 .2097.0521.367.1042.4718.1043.996.2085 1.5202.2085h.1573.2097c.4194 0 .7863 0 1.1533-.0521s.6815-.1042.996-.2085h.0525c.4193-.1564.8387-.3649 1.2057-.5213.0524-.0521.1048-.1042.1573-.1042.8387-.5213 1.3105-1.1468 1.4154-1.8245h.1048v3.1798 2.5542h-.0524c-.1048.7298-.5767 1.3553-1.4678 1.9287-.8912.5734-1.8873.8862-3.0406.9383-.1573 0-.3669 0-.5242 0-.0524 0-.1573 0-.2097 0-1.3106-.0521-2.4639-.3649-3.4075-.9383-.8388-.5734-1.3106-1.1989-1.4678-1.9287v-.0521c0-.1043 0-.2085 0-.2606 0-.1043 0-.2085 0-.3128v-2.0851zm88.5952 23.6658c-.053.1564-.158.417-.262.8862-.158.417-.42.6255-.787.6255s-.524-.2606-.524-.834c-.052-.0521-.105-.1043-.157-.2085-.053-.1564-.105-.3649-.105-.5734 0-.3649.052-.6777.157-.9383.21-.4692.629-.8862 1.206-1.1989.734-.4171 1.153-.4171 1.311-.0522.314-.0521.524.1564.524.6777 0 .3127-.158.5213-.42.6776-.367.2085-.629.5213-.838.8341-.053 0-.105.0521-.105.1042zm-2.831-.1564v.1564c.052.2085.105.3649.21.5213.052.1564.419.4691.996 1.0425.629.5213 1.415.782 2.464.782.733 0 1.887-.4171 3.407-1.3032 1.52-.8862 2.621-1.3032 3.25-1.3032h.315c0 .1042.052.2606.052.3649v.0521c-.105.0521-.209.1043-.314.2085l-.158.1043h-.052c-1.73.417-3.303 1.1468-4.718 2.2415-.157.1042-.262.2085-.419.3127-.158.1043-.315.1564-.525.2085-1.205.2085-2.254.0522-3.04-.4691-.734-.5213-1.258-1.3553-1.625-2.5021 0-.1564.052-.2607.157-.4171z" fill="#afcad8"/><path d="m58.8711 16.3158v2.7628l-1.0485-.6255v-2.7628zm3.9317 13.6574v-2.7627l1.363.834v2.7627zm4.4559-1.6159v-2.7628l5.9238 3.4404v2.7628zm-20.2352.834v-2.7628l6.5528 3.7532v2.8149zm8.7022-5.9946v2.8148l-8.7022-5.0042v-2.8149zm-4.0366 21.1637v-2.8149l3.6172 2.0851v2.7627zm2.2018-5.734v2.7627l-6.815-3.9095v-2.7628zm19.2392 2.8148v2.8149l-5.9238-3.3883v-2.8148zm-12.1621-6.985 1.3106.7819v2.8149l-1.3106-.782zm.2621 15.2733v-2.7628l1.7824 1.0426v2.8149zm2.5163 1.5638v-2.8149l1.7824 1.0426v2.7627zm4.7181-1.5117v-2.8149l4.6656 2.7107v2.7627z" fill="#ff79d6"/><path d="m59.7098 16.8371 1.1009.5734v2.7107l-1.1009-.5734zm2.3591 12.7191-1.3106-.7819v-2.7627l1.3106.834zm-3.3027-4.6393 1.363.7819v2.7627l-1.363-.7819zm4.1414-1.7202v2.7627l-1.6251-.9904v-2.7106zm4.7705.9383v-2.7628l5.452 3.0755v2.8149zm-1.5726 7.7669-1.363-.834v-2.8149l1.363.8341zm-19.082-6.8286v-2.8149l2.726 1.5638v2.8149zm7.0771-11.4681v2.7628l-7.0771-4.0659v-2.76279zm2.7784 1.616v2.7627l-.996-.6255v-2.7627zm-5.6093 1.251v2.7628l-4.1938-2.45v-2.7627zm6.815 3.9617v2.7628l-1.5727-.9383v-2.7628zm-7.8634 20.2776v2.7627l-3.1978-1.8244v-2.8149zm4.5608-5.6298v2.7628l-2.2542-1.3553v-2.7107zm-7.7586-4.4829 2.0969 1.1989v2.7627l-2.0969-1.1468zm9.4885-.0522v-2.8148l1.8873 1.0946v2.7628zm-2.5163-4.2223v2.8149l-1.8872-1.0947v-2.8149zm3.4599 17.1499v-2.7627l2.6736 1.5117v2.8148zm15.6745-6.151v2.7627l-4.4559-2.6063v-2.7628zm-16.6181 9.7478v-2.7106l3.6697 2.0851v2.7627zm2.4115-9.6435 2.5163 1.4074v2.7627l-2.5163-1.4595zm.4718-3.9096v2.8149l-3.4599-2.033v-2.7627zm13.7348-.3649v2.8149l-1.8348-1.0947v-2.7106zm-6.7625 16.785 1.7299 1.0426v2.8148l-1.7299-1.0425zm-4.1415-6.4638 2.9357 1.6681v2.8149l-2.9357-1.7202zm7.7062 8.5489 3.1978 1.8245v2.8148l-3.1978-1.8765zm3.1978-3.701-1.4154-.8341v-2.7627l1.4154.834z" fill="#ddcffb"/><path d="m97.6117 85.6453c.1048.1564.2097.2607.4194.3649l-.6815.3649c-.0524.0521-.1049.0521-.1049.1043l4.6133 2.6063c.157.1043.367.1043.524 0l1.468-.7819.105-.1042s0-.0522-.105-.1043v.0521l-4.4559-2.6063c-.0524-.0522-.1049-.0522-.1573-.0522.5767-.417 1.0482-.6776 1.3632-.7819.105-.0521.209-.0521.367-.0521.472-.1043.891-.2085 1.258-.3649h.105c.314-.1042.576-.2085.786-.3128l4.246 2.45c.158.0522.262.1564.21.3649 0 .1043-.052.2085-.21.3128l-.262.1564-13.0007 7.4542h-.0524c-.3145.1564-.5766.1564-.8387 0l-12.1098-6.933v-.834c.0525 0 .1573-.0521.2097-.0521l.5767-.3128c.0524-.0521.0524-.1042.1048-.1042-.0524 0-.0524-.0522-.1048-.0522l-.7864-.4691v-1.1468l1.2582-.7298h.1048c-.0524-.0521-.0524-.0521-.1048-.1043l-1.2582-.7297v-.5213l.3146.2085c.2097.1043.4194.1043.6291 0l1.4678-.8862c.0524-.0521.0524-.0521.0524-.0521l-.0524-.0521-1.5203-.8341v-.0521c-.2097-.1042-.3669-.0521-.5766.0521l-.3146.1564v-.6776c.0525 0 .0525-.0522.0525-.0522h-.0525v-.6255c.1049 0 .2097 0 .2622-.1042l1.4678-.8341c.0524-.0521.0524-.0521.1048-.1042-.0524 0-.0524-.0522-.1048-.1043l-1.4678-.834c-.1049-.0522-.2097-.0522-.2622-.0522v-.6776l.9437.5213h-.0525c.2097.1042.4194.0521.5767-.0522l1.4678-.834c.0525-.0521.0525-.0521.1049-.0521-.0524 0-.1049 0-.1573-.0522l-1.4678-.834v-.0521c-.1573-.1043-.367-.1043-.5767 0h.0524l-.9436.5212v-.6255l.5243-.3127c.0524-.0522.0524-.0522.0524-.0522l-.0524-.0521-.5243-.3128v-.2606c.1573.1042.3146.2085.4718.2085.1573 0 .2621-.0521.4194-.1564l.0524.0522c.2097.0521.367.0521.5243 0l1.5202-.8341c.0525-.0521.0524-.0521.0524-.0521 0-.0521-.0524-.1043-.1572-.1043l-1.1533-.6776c.1048-.2607.2097-.4692.2621-.7298l9.6982 5.5776c-.3669.1043-.7339.2085-.996.3128l-6.815-3.9096c-.1048-.0521-.2097-.1042-.3145-.1042-.0524 0-.1573 0-.2097.1042l-1.4154.7819c-.1049 0-.1573 0-.1573.1043l.1048.0521 7.0772 4.0138c0 .0522-.0525.1043-.0525.1564 0 .2607.1049.417.3146.5734.1572.1043.3669.1564.629.1564.1573 0 .367 0 .5767-.1043l1.6775.9905v.1042s.1049.2085.2621.6256c0 .0521.0525.1042.1049.2085l-1.363-.782c-.2097-.1042-.367-.1042-.5242 0l-1.4679.8341c-.0524.0521-.1048.1042-.1048.1042s.0524.0522.1572.1043l1.4679.834c.1573.1043.3145.1043.5242 0l1.4679-.834c.0524.1042.1048.1564.2097.1564.1048.0521.2621.0521.5242.0521 0 0 .1573-.1564.3669-.417.2622-.3649.4194-.5734.5243-.6777.0524-.0521.1572-.1564.2097-.2085l.629-.3649h.0525c.2097-.0521.4718-.0521.7339-.0521.1573 0 .2621.0521.4194.1564.1048.0521.2621.2085.4194.4691 0 .0522.0524.1043.0524.1564-.0524 0-.1049.0521-.1573.1043-.1573-.0522-.2621-.0522-.3669 0-.0525 0-.1049 0-.1573.0521l-1.4679.8862h-.1048l.4194.2606c-.2621.2085-.367.417-.4194.5213l-.8912-.5213c-.2097-.1043-.4194-.1043-.5767 0l-1.4678.834c-.0524 0-.1048.0522-.1573.0522.0525 0 .0525 0 .1049.0521l1.4678.7819c.2097.1043.367.1043.5767 0l1.1533-.6255.0524.0521c.1049.1043.2621.2085.367.2606l-1.2058.7298-.1048.0521.1048.1043 1.4679.7819c.1573.1043.3669.1043.5242 0zm2.8313-.3127c-.053 0-.053.0521-.053.0521l.053.1042 1.52.8341c.209.0521.367.0521.576 0l1.521-.8341c.052-.0521.052-.1042.105-.1042-.053 0-.053-.0521-.158-.0521l-1.468-.8862v-.0521c-.104-.0522-.262-.1043-.419 0-.052 0-.157 0-.157.0521l-1.468.8862zm-19.3446-13.3447.2097-.5212.2622.1564c-.0525.1042-.1049.2606-.1573.417-.1049.3649-.2097.6776-.2621.9383l-.0525.0521v-.7298h.0525c-.0525 0-.0525 0-.0525 0zm3.3027 5.2649-1.4679.7819c-.0524.0521-.1048.0521-.1048.1043l.0524.0521h.0524l1.4679.8862c.2097.1042.4194.1042.5766 0l1.4679-.8862c.0524-.0521.0524-.0521.1048-.0521-.0524 0-.0524-.0522-.1572-.1043l-1.4679-.7819c-.1572-.1042-.3669-.1042-.5242 0zm-1.1009 2.033-1.4678.834c-.1049 0-.1573 0-.1573.1043l.1048.0521 1.4679.7819c.2097.1043.4194.1043.6291 0l1.4678-.834c.0524-.0522.1049-.0522.1049-.0522 0-.0521-.0525-.0521-.1049-.1042v.0521l-1.5203-.834c-.2097-.1043-.3669-.1043-.5242 0zm-.9436 4.0138 1.4678.834h-.0524c.2097.1043.4194.1043.6291 0l1.4678-.834c0-.0521.0525-.1043.0525-.1043s-.0525-.0521-.0525-.1042v.0521l-1.4678-.7819c-.2097-.1043-.4194-.1043-.6291 0h.0524l-1.4678.834c-.0524 0-.1049.0522-.1573.0522.1049 0 .1049 0 .1573.0521zm1.7824-1.7202.1048.0521 1.4679.8862c.1572.0521.3145.0521.5242 0l1.4678-.8862c.0525-.0521.0525-.0521.1049-.0521 0 0-.0524-.0521-.1049-.0521l-1.4678-.8341v-.0521c-.2097-.1043-.367-.1043-.5242 0l-1.4679.8862c-.1048 0-.1048 0-.1048.0521zm9.9079-1.9287-.0524-.0522h.0524zm-4.2462.3649c-.2097-.1043-.367-.1043-.5243 0l-1.5202.8861c-.0525.0522-.0525.0522-.0525.0522s0 .0521.0525.1042l1.5202.8341c.1573.1042.3146.1042.5243 0l1.4678-.8341c.0524-.0521.0524-.0521.1049-.1042 0 0-.0525-.0522-.1049-.0522zm-.7864-.4692c-.0524 0-.0524-.0521-.1048-.1042l-1.4679-.782c-.2097-.1563-.4194-.1563-.5766-.0521v.0521l-1.4679.782c-.0524.0521-.1048.0521-.1572.1042 0 0 .0524 0 .1048.0521h.0524l1.5203.8862c.1573.1043.3145.1043.5242 0l1.4679-.8862c0-.0521.0524-.0521.1048-.0521zm-2.4114 3.3362c-.0525.0521-.1049.0521-.1049.1042l1.5727.9383c.1573.0521.367.0521.5242 0l1.4679-.8861c.0524-.0522.1048-.0522.1048-.0522s-.0524 0-.1048-.0521l-1.4679-.834c-.1572-.1043-.3669-.1043-.5242 0zm-.367.834-1.4679.834c-.0524 0-.1048 0-.1572.0522 0 0 .0524.0521.1572.0521l1.4679.8862c.1573.0521.367.0521.5242-.0522l1.4679-.834c.0524-.0521.1048-.0521.1048-.0521 0-.0522-.0524-.0522-.1048-.1043v.0521l-1.4679-.834c-.1572-.1042-.3669-.1042-.5242 0zm11.1661 3.3362-1.5203-.8341c-.2097-.1042-.3669-.1042-.5242 0l-1.4678.8341c-.1049 0-.1573.0521-.1573.1042l1.5727.9383c.1572.1043.3669.1043.5242 0l1.5203-.8862.0524-.0521c.0524-.1042 0-.1042 0-.1042zm-1.4154 2.2936-1.4679.834c-.0524 0-.1048.0521-.1572.1043.0524 0 .0524 0 .1048.0521l2.6212 1.5117c.1572.1042.3669.1042.5242 0l1.4678-.8862.1049-.0521s0-.0521-.0524-.1043l-2.6212-1.4595c-.1573-.1564-.3145-.1564-.5242 0zm.3669-.782 3.1978 1.8766c.1573.1043.3146.1043.5247 0l1.415-.834c.052-.0521.105-.0521.105-.0521s-.053-.0522-.105-.0522l-3.1978-1.8244v-.1043c-.1573-.1042-.3145-.1042-.5242 0v.0522l-1.4679.7819c-.0524.0521-.1048.0521-.1573.1042h.0525.1572zm-1.4154-2.9191-1.4678-.7819c-.2097-.1042-.367-.1564-.5243 0l-1.5202.834v-.0521c-.0525.0521-.0524.0521-.0524.1043 0 .0521-.0001.0521.0524.1042l1.5202.8341c.1573.1042.367.1042.5243 0l1.4678-.8341c.0524-.0521.1049-.1042.1049-.1042 0-.0522 0-.1043-.1049-.1043zm-3.8269.8341-1.5202.8861c-.0525 0-.1049.0521-.1049.0521l1.5727.9383c.1573.1043.367.1043.5767 0l1.4678-.8861c.0524-.0521.1049-.0522.1573-.0522h-.0524l-1.5203-.8861c-.2097-.1564-.4194-.1564-.5767-.0521zm-.4193-.5213-1.4679-.8341c-.2097-.1042-.367-.1563-.5242-.0521l-1.4679.8341c-.1048.0521-.1572.0521-.1572.1042l1.6251.9383c.1572.0521.3145.0521.5242 0l1.4679-.8862c.0524-.0521.0524-.0521.1048-.0521-.0524 0-.0524-.0521-.1048-.0521zm1.363 3.4925-1.5203-.8862c-.2097-.1042-.367-.1042-.5767 0l-1.4678.8341-.1049.1042c0 .0522.0525.0522.1049.1043l1.4678.834c.1573.1043.367.1043.5243 0l1.5727-.834c.0524-.0521.0524-.0521.1048-.1043-.0524-.0521-.1048-.0521-.1048-.0521zm.3669.4692-1.5203.8861v-.0521c-.0524.0521-.1048.1043-.1048.1043s.0524.0521.1048.1042l1.5203.8862c.2097.1042.4194.0521.5767-.0521l1.5202-.782c.0525-.0521.0525-.1042.0525-.1042s-.0525-.0521-.0525-.1043v.0522l-1.5202-.8862c-.2097-.1564-.4194-.1564-.5767-.0521zm-.5242-1.1468 1.5727.9383c.1572.1042.3669.1042.5766 0l1.4679-.8862c.0524-.0521.0524-.0521.1048-.1043-.0524 0-.0524-.0521-.1048-.0521l-1.5203-.834c-.1573-.1043-.367-.1043-.5767 0h.0525l-1.4679.834zm2.8832 2.5542-1.4678.834v-.0521c-.0524.0521-.1048.0521-.1048.1043l.1048.1042 1.4678.8341c.1573.1042.367.1042.5243 0l1.5202-.8341c.0525-.0521.0525-.1042.1049-.1042-.0524 0-.0524-.0522-.1049-.1043v.0521l-1.5202-.834c-.1049-.1043-.3146-.1043-.5243 0zm-.3145 2.1894-1.4678-.8341c-.2097-.1042-.4194-.1042-.6291 0l-.6291.417 1.5727.9383c.1573.1043.3145.1043.5242 0l.5767-.3649c.0524-.0521.1048-.0521.1048-.0521.0525-.0521 0-.1042-.0524-.1042zm-2.4114-1.3554s-.0525-.0521-.0525-.1042v.0521l-1.5202-.8862c-.2097-.1042-.367-.1042-.5767 0l-.6291.3128c-.0524.0521-.0524.0521-.0524.0521l1.5727.9383c.1573.1043.367.1043.5242 0l.6291-.3127c.0524-.0522.1049-.0522.1049-.0522zm6.3431-7.9233c-.1572.1564-.2621.3127-.4194.5213l-.8911-.5213c.0524-.0521.1572-.1043.2097-.1564.4718-.3128.8911-.5213 1.2581-.7298.1573-.1042.3145-.2085.4194-.2606v.2606l-.9436.5213c-.0524.0521-.0525.0521-.0525.1042zm-7.9158-.8341-1.4679.8862v-.0521c-.0524.0521-.0524.1042-.0524.1042s0 .0522.0524.1043l1.4679.8862c.1572.1042.3669.1042.5766 0l1.4679-.8862c.0524-.0521.0524-.0521.1048-.0521-.0524-.0522-.1048-.0522-.1573-.1043l-1.5202-.8862c-.1049-.0521-.3146-.0521-.4718 0zm-2.9357 3.7532-1.4679.8862c-.0524.0521-.1048.0521-.1048.0521l.1048.1043 1.4679.834c.1572.1043.3145.1043.5242 0l1.4678-.834c.0525-.0522.1049-.1043.1049-.1043s-.0524-.0521-.1049-.0521l-1.4678-.8862c-.1573-.1042-.367-.1042-.5242 0zm-1.8348-1.3553c-.2097-.1043-.4194-.1043-.5243 0l-1.5202.834v-.0521c-.0525.0521-.0525.1043-.0525.1043l1.5727.9383c.1573.1042.3146.1042.5243 0l1.5202-.8862c.0525-.0521.0525-.0521.1049-.0521 0 0-.0524-.0522-.1049-.1043v.0521zm.5766 3.8574.6291-.3127.1048-.1043-.1048-.0521-1.4678-.8341c-.2097-.1042-.4194-.1563-.6291 0l-.5767.3128v-.0521c-.0524.0521-.1048.0521-.1048.1042 0 .0522.0524.0522.1572.1043l1.4679.834c.2097.1043.367.1043.5242 0zm.5767.4692c-.0525 0-.1049.0521-.1049.0521l1.5727.9383c.1573.0521.3146.0521.5242 0l.5243-.3649c.0524-.0521.0524-.0521.1048-.0521-.0524-.0522-.0524-.0522-.1048-.1043l-1.4679-.834v-.0521c-.2097-.1043-.3669-.1043-.5242.0521zm-2.0445-4.8479-1.5203-.8861c-.2097-.1043-.367-.1564-.5766 0l-1.4679.8861v-.0521c-.0524.0521-.1048.1043-.1048.1043s.0524.0521.1572.1042l1.4679.834c.2097.1043.3669.1043.5766 0l1.5203-.834c.0524-.0521.0524-.0521.0524-.0521-.0524-.0521-.1048-.0521-.1048-.1043zm-1.9397 1.616c-.1572-.1043-.3669-.1043-.5242 0l-.5767.3127-.1048.0522 1.5727.9383c.1573.1042.3669.1042.5242 0l.5767-.3128c.0524-.0521.0524-.0521.1048-.0521-.0524-.0522-.0524-.0522-.1048-.1043v.0521zm34.8612 6.3074c-.681.1564-1.468.4691-2.411.9383-1.311.6776-2.621 1.0425-3.932 1.0425-.21 0-.524-.1042-.944-.2606 0-.0521.053-.1043.053-.1043.157-.3649.472-.6776.839-.834.314-.1564.419-.3649.419-.6777 0-.4691-.157-.6776-.524-.6776-.158-.3649-.577-.3649-1.311.0521-.577.3128-.944.7298-1.206 1.1989-.104-.1042-.262-.2085-.419-.3127.105-.2085.21-.417.367-.6255.629-.9905 1.677-1.616 3.145-1.8766 1.521-.2607 2.464-.3128 2.884-.1564.419.1564 1.048.5734 1.939 1.1989.105.0521.158.1564.21.2085.052.0522.157.1564.314.3128.263.0521.42.2606.577.5734zm-12.791-7.4021c-.157-.0521-.262-.1043-.419-.0521-.053 0-.158.0521-.21.1042l-1.468.8862c-.052 0-.052 0-.105 0 .053 0 .053 0 .105.0521l1.468.8862c.21.0521.419.0521.629 0l1.468-.834c.052-.0522.052-.0522.105-.0522 0-.0521-.053-.0521-.158-.0521z" fill="#f6fcff"/><path d="m108.83 93.8293c-.105.2606-.157.5734-.157.9383 0 .2085.052.417.105.5734.052.1042.105.1563.157.2085 0 .5734.21.834.524.834.315 0 .577-.2085.787-.6255.105-.417.209-.7298.262-.8862.367.1564.681.2607.943.2607 1.259 0 2.569-.3128 3.932-1.0426.944-.4691 1.73-.7819 2.412-.9383.262.4692.471.9383.524 1.4596h-.367c-.629 0-1.73.417-3.25 1.3032-1.521.834-2.674 1.3032-3.408 1.3032-1.048 0-1.835-.2607-2.464-.782-.576-.5212-.943-.8861-.996-1.0425-.105-.1564-.157-.3128-.209-.5213 0-.0521 0-.1042 0-.1564.052-.0521.052-.1563.104-.2085.158-.3127.367-.6255.629-1.0425.21.1564.367.2606.472.3649z" fill="#dbe8ee"/><path d="m37.1155 40.4508 11.7952 28.8786-1.1533.6776v13.5531c-1.2057-.6776-2.5163-1.4595-4.089-2.3457-.5242-.3128-1.0485-.5734-1.5727-.9383-.5767-.3649-1.2057-.7298-1.8872-1.0947-.4194-.2606-.8388-.4691-1.3106-.7297-.367-.2086-.7339-.4171-1.1009-.5734-.3669-.2086-.6815-.4692-.9436-.8862-.0524-.0521-.0524-.1043-.1048-.1564-.2097-.3649-.3146-.6776-.3146-.9904 0-.5213 0-.9904 0-1.4074v-15.1691-1.6681-15.4297c.2097-1.0425.4194-1.6681.6815-1.7202zm41.8336 24.7084v35.3428c-.3145.26-.5767.364-.7863.364-.1049 0-.3146-.052-.5767-.104-.1573-.104-.367-.208-.5242-.313-1.0485-.573-2.0445-1.1985-3.0406-1.7719-2.0969-1.2511-4.1414-2.45-6.1859-3.5447l-5.1899-2.9712-.7863-.4171v-15.8988c-.367-.2085-.7339-.417-1.1009-.6255l13.1058-7.2457.0524-.0522zm-40.3657 8.3404.3669.2085z" fill="#9c9cd2"/><path d="m38.5834 73.4996.3669.2085z" fill="#364860"/><path d="m166.653 28.9828 4.299 2.3979c.733.417 1.048 1.0425 1.048 1.8766v9.4871c0 .3649-.052.5734-.157.7298-.053 0-.105.0521-.158.0521-.157.0522-.419 0-.786-.2085l-5.924-3.3882-2.359-1.3554c-.734-.417-1.101-1.0425-1.101-1.8244v-9.4872c0-.417.105-.6776.315-.7819.157-.1043.419-.0521.786.1564l3.303 1.8766v-.0522zm-42.935-16.1595s-.052.0522-.104.0522c-.105.0521-.263 0-.42-.1043l-4.613-2.6585c-.419-.2085-.629-.57339-.629-1.04254v-5.26486c0-.20851.052-.36489.157-.41702s.262-.05213.472.05213l4.613 2.65849c.42.20851.577.5734.577 1.04255v5.26485c0 .2085 0 .3649-.053.417zm16.304 27.6797 4.613 2.6585c.42.2085.577.5734.577 1.0425v5.2649c0 .2085-.053.3127-.105.417l-.052.0521c-.105.0521-.263 0-.42-.1042l-4.613-2.6585c-.419-.2085-.577-.5734-.577-1.0426v-5.317c0-.2085.053-.3649.158-.417.104-.0521.262 0 .419.1043zm18.872 36.6455c.315.2085.472.4691.472.834v4.2223c0 .1564 0 .2607-.105.3128l-.052.0521c-.105.0522-.21 0-.367-.1042l-1.049-.6255-2.621-1.5117c-.314-.2085-.472-.4692-.472-.8341v-4.1702c0-.2085.053-.3127.105-.3649.105-.0521.21 0 .367.1043l1.783 1.0425zm-3.669 5.4212 1.782 1.0426 1.887 1.0425c.315.2085.472.4692.472.8341v4.2223c0 .1564 0 .2606-.105.3127l-.052.0522c-.105.0521-.21 0-.367-.1043l-1.049-.6255-2.621-1.5117c-.314-.2085-.472-.4691-.472-.834v-4.1702c0-.2085.053-.3128.105-.3649.158 0 .262.0521.42.1042zm0 7.5585 1.782 1.0426 1.887 1.0425c.315.2085.472.4691.472.834v4.2224c0 .1563 0 .2606-.105.3127l-.052.0522c-.105.0521-.21 0-.367-.1043l-1.049-.6255-2.621-1.5117c-.314-.2085-.472-.4692-.472-.8341v-4.1702c0-.2085.053-.3127.105-.3649.158 0 .262.0522.42.1043zm-78.1631-90.023945 1.7824 1.042545 1.9396 1.04255c.3146.20851.4718.46915.4718.83404v4.22231c0 .15639 0 .26064-.0524.31277h-.0524c-.1049.05212-.2097 0-.3146-.05213l-1.0484-.62553v.05213l-2.6212-1.51169c-.3145-.20851-.4718-.46915-.4718-.83404v-4.222318c0-.20851.0524-.3127646.1049-.364892-.0525 0 .0524 0 .2621.104255zm4.1414 10.477645v4.2223c0 .1564 0 .2606-.0524.3127h-.0525c-.1048.0522-.2096 0-.3145-.0521l-1.0484-.6255v.0521l-2.6212-1.5117c-.3145-.2085-.4718-.4691-.4718-.834v-4.22234c0-.20851.0524-.31277.1048-.36489.1049-.05213.2097 0 .367.05212l1.7824 1.04255 1.9396 1.04255c.2097.26064.367.52131.367.88621zm0 7.5584v4.2223c0 .1564 0 .2607-.0524.3128h-.0525c-.1048.0521-.2096 0-.3145-.0521l-1.0484-.6256v.0522l-2.6212-1.5117c-.3145-.2085-.4718-.4692-.4718-.8341v-4.2223c0-.2085.0524-.3127.1048-.3649.1049-.0521.2097 0 .367.0522l1.7824 1.0425 1.9396 1.0426c.2097.2606.367.5212.367.8861z" fill="#ede9ff"/></g></svg>