<svg width="182" height="55" viewBox="0 0 182 55" fill="none" xmlns="http://www.w3.org/2000/svg">
<path fill-rule="evenodd" clip-rule="evenodd" d="M131.665 33.5029V38.1469H136.31V42.7907H140.956V38.1469H145.601V33.5029H140.956V28.858H136.31V33.5029H131.665ZM176.683 21.2082H174.024V23.8669H176.683V26.5258H179.341V23.8669H182V21.2082H179.341V18.5512H176.683V21.2082ZM112.994 42.7907H119.987V35.8074H126.97V28.8141H119.987V21.8298H112.994V42.7907ZM119.987 21.8298H126.97V14.8364H133.963V21.8298H140.956V28.8141H147.941V21.8298H154.933V14.8364H159.579V19.4811H164.225V14.8364H168.871V10.1923H164.225V5.54829H159.579V10.1923H154.933V14.8364H147.941V7.85177H140.956V14.8364H133.963V7.85177H126.97V0.868652H119.987V7.85177H112.994V14.8364H119.987V21.8298ZM164.225 23.0258V26.6852H160.565V30.3434H164.225V34.0018H167.885V30.3434H171.545V26.6852H167.885V23.0258H164.225Z" fill="white"/>
<path d="M0 49.1523H1.50048V54.4039H0V49.1523ZM6.91095 49.1523V50.6079H5.6729V54.4041H4.17241V50.6079H2.93478V49.1523H6.91095Z" fill="#FFCC00"/>
<path d="M15.4562 54.4042L15.1409 53.4588H13.0479L12.7327 54.4042H11.6151L13.453 49.1526H14.7359L16.5815 54.4042H15.4562ZM13.3778 52.4911H14.8184L14.0981 50.3453L13.3778 52.4911ZM20.9251 49.1526H21.9604L20.3848 52.9563C19.9645 53.9766 19.2743 54.4595 18.3141 54.4044V53.4367C18.5943 53.4615 18.8206 53.4229 18.9931 53.3204C19.1655 53.2179 19.3094 53.0515 19.4244 52.8214L17.7064 49.1528H18.7417L19.8896 51.6886L20.9249 49.1528L20.9251 49.1526ZM27.2268 49.1526V50.1428H25.8088V54.4042H24.7735V50.1428H23.363V49.1526H27.2268ZM31.2253 54.5092C30.4351 54.5092 29.7823 54.2465 29.2674 53.7215C28.7522 53.1964 28.4947 52.5487 28.4947 51.7784C28.4947 51.0032 28.7522 50.3543 29.2674 49.8315C29.7825 49.3087 30.4351 49.0476 31.2253 49.0476C31.7003 49.0476 32.1396 49.1588 32.5421 49.3814C32.9446 49.6037 33.2584 49.9052 33.4835 50.2852L32.591 50.8027C32.4607 50.5679 32.2757 50.3839 32.0358 50.2516C31.7957 50.119 31.5256 50.0526 31.2256 50.0526C30.7153 50.0526 30.304 50.2127 29.9913 50.5328C29.6789 50.8529 29.5226 51.2681 29.5226 51.7782C29.5226 52.2834 29.6789 52.6959 29.9913 53.0162C30.3038 53.3363 30.7153 53.4964 31.2256 53.4964C31.5256 53.4964 31.797 53.43 32.0396 53.2974C32.2822 53.1651 32.4659 52.9836 32.591 52.7536L33.4835 53.2711C33.2584 53.6511 32.9459 53.9526 32.5459 54.1751C32.1456 54.3977 31.7055 54.5088 31.2253 54.5088V54.5092ZM39.718 53.7177C39.1879 54.2455 38.5426 54.5092 37.7824 54.5092C37.0223 54.5092 36.3782 54.2455 35.8506 53.7177C35.323 53.1901 35.0591 52.5435 35.0591 51.7784C35.0591 51.013 35.323 50.3668 35.8506 49.839C36.3784 49.3114 37.0223 49.0476 37.7824 49.0476C38.5426 49.0476 39.1879 49.3114 39.718 49.839C40.2481 50.3668 40.5132 51.0132 40.5132 51.7784C40.5132 52.5437 40.2483 53.1901 39.718 53.7177ZM36.5744 53.0127C36.8995 53.3352 37.3022 53.4966 37.7822 53.4966C38.2624 53.4966 38.6649 53.3352 38.99 53.0127C39.3151 52.6899 39.4775 52.2786 39.4775 51.7784C39.4775 51.2783 39.3151 50.8656 38.99 50.5403C38.6649 50.2155 38.2622 50.0528 37.7822 50.0528C37.302 50.0528 36.8995 50.2155 36.5744 50.5403C36.2494 50.8654 36.0869 51.2781 36.0869 51.7784C36.0869 52.2784 36.2494 52.6899 36.5744 53.0127ZM44.4293 49.1526C44.9345 49.1526 45.3594 49.3227 45.7045 49.6628C46.0496 50.0029 46.222 50.4207 46.222 50.9157C46.222 51.4109 46.0496 51.8285 45.7045 52.1686C45.3594 52.5087 44.9343 52.6788 44.4293 52.6788H43.5063V54.4044H42.4709V49.1528H44.4293V49.1526ZM44.4293 51.7109C44.6493 51.7109 44.8318 51.6345 44.9767 51.4819C45.1218 51.3293 45.1942 51.1405 45.1942 50.9155C45.1942 50.6854 45.1218 50.4952 44.9767 50.3453C44.8318 50.1952 44.6491 50.1203 44.4293 50.1203H43.5063V51.7107H44.4293V51.7109ZM50.5811 54.5092C49.7909 54.5092 49.138 54.2465 48.6232 53.7215C48.1079 53.1964 47.8505 52.5487 47.8505 51.7784C47.8505 51.0032 48.1079 50.3543 48.6232 49.8315C49.1382 49.3087 49.7909 49.0476 50.5811 49.0476C51.0561 49.0476 51.4953 49.1588 51.8979 49.3814C52.3004 49.6037 52.6142 49.9052 52.8392 50.2852L51.9467 50.8027C51.8164 50.5679 51.6315 50.3839 51.3916 50.2516C51.1515 50.119 50.8813 50.0526 50.5813 50.0526C50.071 50.0526 49.6598 50.2127 49.347 50.5328C49.0347 50.8529 48.8783 51.2681 48.8783 51.7782C48.8783 52.2834 49.0347 52.6959 49.347 53.0162C49.6595 53.3363 50.071 53.4964 50.5813 53.4964C50.8813 53.4964 51.1527 53.43 51.3953 53.2974C51.6379 53.1651 51.8216 52.9836 51.9467 52.7536L52.8392 53.2711C52.6142 53.6511 52.3016 53.9526 51.9016 54.1751C51.5014 54.3977 51.0613 54.5088 50.5811 54.5088V54.5092ZM57.7457 54.4042V51.2007L55.4951 54.4042H54.7072V49.1526H55.7425V52.3638L57.9933 49.1526H58.781V54.4042H57.7457ZM63.9725 49.1526H65.0001V54.4042H63.9725V52.2285H62.0217V54.4042H60.9863V49.1526H62.0217V51.2383H63.9725V49.1526ZM70.192 49.1526V50.1428H68.2411V54.4042H67.2058V49.1526H70.192ZM79.6748 49.1526V54.4042H78.6395V50.1428H76.7864V54.4042H75.7511V49.1526H79.6748ZM83.8387 49.1526C84.3439 49.1526 84.7688 49.3227 85.1139 49.6628C85.459 50.0029 85.6315 50.4207 85.6315 50.9157C85.6315 51.4109 85.459 51.8285 85.1139 52.1686C84.7688 52.5087 84.3437 52.6788 83.8387 52.6788H82.9157V54.4044H81.8804V49.1528H83.8387V49.1526ZM83.8387 51.7109C84.0587 51.7109 84.2412 51.6345 84.3861 51.4819C84.5312 51.3293 84.6036 51.1405 84.6036 50.9155C84.6036 50.6854 84.5312 50.4952 84.3861 50.3453C84.2412 50.1952 84.0585 50.1203 83.8387 50.1203H82.9157V51.7107H83.8387V51.7109ZM91.9186 53.7177C91.3885 54.2455 90.7432 54.5092 89.983 54.5092C89.2228 54.5092 88.5788 54.2455 88.0512 53.7177C87.5236 53.1901 87.2597 52.5435 87.2597 51.7784C87.2597 51.013 87.5236 50.3668 88.0512 49.839C88.579 49.3114 89.2228 49.0476 89.983 49.0476C90.7432 49.0476 91.3885 49.3114 91.9186 49.839C92.4487 50.3668 92.7138 51.0132 92.7138 51.7784C92.7138 52.5437 92.4489 53.1901 91.9186 53.7177ZM88.775 53.0127C89.1001 53.3352 89.5028 53.4966 89.9828 53.4966C90.463 53.4966 90.8655 53.3352 91.1906 53.0127C91.5156 52.6899 91.6781 52.2786 91.6781 51.7784C91.6781 51.2783 91.5156 50.8656 91.1906 50.5403C90.8655 50.2155 90.4628 50.0528 89.9828 50.0528C89.5026 50.0528 89.1001 50.2155 88.775 50.5403C88.45 50.8654 88.2875 51.2781 88.2875 51.7784C88.2875 52.2784 88.45 52.6899 88.775 53.0127ZM99.5108 50.3155C99.9459 50.6906 100.163 51.1781 100.163 51.7784C100.163 52.3786 99.9459 52.8661 99.5108 53.2413C99.0755 53.6164 98.4928 53.839 97.7627 53.9091V54.5169H96.7499V53.9091C96.0144 53.834 95.4319 53.6102 95.0018 53.2375C94.5717 52.865 94.3567 52.3784 94.3567 51.7784C94.3567 51.1781 94.5717 50.6919 95.0018 50.3192C95.4319 49.9468 96.0146 49.7227 96.7499 49.6478V49.04H97.7627V49.6478C98.4928 49.7177 99.0755 49.9403 99.5108 50.3155ZM97.7627 52.964C98.6729 52.8588 99.1281 52.4638 99.1281 51.7786C99.1281 51.0884 98.6727 50.6908 97.7627 50.5856V52.964ZM95.3845 51.7786C95.3845 52.4638 95.8396 52.8565 96.7499 52.9563V50.5931C95.8394 50.6929 95.3845 51.0881 95.3845 51.7784V51.7786ZM103.082 53.4141H105.295V54.4044H102.046V49.1528H105.258V50.143H103.082V51.2608H105.07V52.2362H103.082V53.4139V53.4141ZM109.706 54.5094C108.916 54.5094 108.263 54.2467 107.748 53.7217C107.233 53.1966 106.976 52.549 106.976 51.7786C106.976 51.0034 107.233 50.3545 107.748 49.8317C108.263 49.3089 108.916 49.0478 109.706 49.0478C110.181 49.0478 110.62 49.159 111.023 49.3816C111.425 49.6039 111.739 49.9054 111.964 50.2854L111.072 50.803C110.942 50.5681 110.757 50.3841 110.517 50.2518C110.277 50.1192 110.006 50.0528 109.706 50.0528C109.196 50.0528 108.785 50.213 108.472 50.533C108.16 50.8531 108.003 51.2683 108.003 51.7784C108.003 52.2836 108.16 52.6961 108.472 53.0164C108.785 53.3365 109.196 53.4966 109.706 53.4966C110.006 53.4966 110.278 53.4302 110.52 53.2976C110.763 53.1653 110.947 52.9838 111.072 52.7538L111.964 53.2713C111.739 53.6513 111.427 53.9528 111.027 54.1753C110.626 54.3979 110.186 54.509 109.706 54.509V54.5094ZM116.271 54.5094C115.481 54.5094 114.828 54.2467 114.313 53.7217C113.798 53.1966 113.54 52.549 113.54 51.7786C113.54 51.0034 113.798 50.3545 114.313 49.8317C114.828 49.3089 115.481 49.0478 116.271 49.0478C116.746 49.0478 117.185 49.159 117.588 49.3816C117.99 49.6039 118.304 49.9054 118.529 50.2854L117.636 50.803C117.506 50.5681 117.321 50.3841 117.081 50.2518C116.841 50.1192 116.571 50.0528 116.271 50.0528C115.761 50.0528 115.349 50.213 115.037 50.533C114.724 50.8531 114.568 51.2683 114.568 51.7784C114.568 52.2836 114.724 52.6961 115.037 53.0164C115.349 53.3365 115.761 53.4966 116.271 53.4966C116.571 53.4966 116.842 53.4302 117.085 53.2976C117.328 53.1653 117.511 52.9838 117.636 52.7538L118.529 53.2713C118.304 53.6513 117.991 53.9528 117.591 54.1753C117.191 54.3979 116.751 54.509 116.271 54.509V54.5094ZM123.435 54.4044V51.2009L121.185 54.4044H120.397V49.1528H121.432V52.364L123.683 49.1528H124.471V54.4044H123.435ZM131.095 53.7179C130.565 54.2457 129.92 54.5094 129.16 54.5094C128.399 54.5094 127.755 54.2457 127.228 53.7179C126.7 53.1903 126.436 52.5437 126.436 51.7786C126.436 51.0132 126.7 50.367 127.228 49.8392C127.756 49.3117 128.399 49.0478 129.16 49.0478C129.92 49.0478 130.565 49.3117 131.095 49.8392C131.625 50.367 131.89 51.0134 131.89 51.7786C131.89 52.5439 131.626 53.1903 131.095 53.7179ZM127.952 53.0129C128.277 53.3354 128.679 53.4968 129.159 53.4968C129.64 53.4968 130.042 53.3354 130.367 53.0129C130.692 52.6901 130.855 52.2788 130.855 51.7786C130.855 51.2785 130.692 50.8658 130.367 50.5405C130.042 50.2157 129.639 50.053 129.159 50.053C128.679 50.053 128.277 50.2157 127.952 50.5405C127.627 50.8656 127.464 51.2783 127.464 51.7786C127.464 52.2786 127.627 52.6901 127.952 53.0129ZM136.835 49.1528H137.862V54.4044H136.835V52.2287H134.884V54.4044H133.848V49.1528H134.884V51.2385H136.835V49.1528ZM143.444 54.4044L143.129 53.459H141.036L140.72 54.4044H139.603L141.441 49.1528H142.724L144.569 54.4044H143.444ZM141.366 52.4913H142.806L142.086 50.3455L141.366 52.4913ZM145.965 54.4044V53.4442C146.275 53.4893 146.507 53.4267 146.662 53.2565C146.817 53.0866 146.895 52.754 146.895 52.2588V49.1528H150.466V54.4044H149.438V50.143H147.923V52.2287C147.923 52.6838 147.868 53.0665 147.758 53.3763C147.648 53.6866 147.496 53.9167 147.304 54.0666C147.111 54.2167 146.906 54.3167 146.689 54.3666C146.471 54.4167 146.229 54.4292 145.965 54.4042V54.4044ZM154.63 50.8783C155.135 50.8783 155.56 51.0485 155.905 51.3886C156.25 51.7287 156.422 52.1464 156.422 52.6414C156.422 53.1367 156.25 53.5542 155.905 53.8943C155.56 54.2344 155.135 54.4046 154.63 54.4046H152.671V49.153H153.707V50.8785H154.63V50.8783ZM154.63 53.4367C154.85 53.4367 155.032 53.3615 155.177 53.2114C155.322 53.0615 155.395 52.8713 155.395 52.6412C155.395 52.4162 155.322 52.2274 155.177 52.0748C155.032 51.9222 154.849 51.846 154.63 51.846H153.707V53.4365H154.63V53.4367ZM161.314 49.1528H162.342V54.4044H161.314V52.2287H159.363V54.4044H158.328V49.1528H159.363V51.2385H161.314V49.1528ZM168.967 53.7179C168.437 54.2457 167.791 54.5094 167.031 54.5094C166.271 54.5094 165.627 54.2457 165.099 53.7179C164.572 53.1903 164.308 52.5437 164.308 51.7786C164.308 51.0132 164.572 50.367 165.099 49.8392C165.627 49.3117 166.271 49.0478 167.031 49.0478C167.791 49.0478 168.437 49.3117 168.967 49.8392C169.497 50.367 169.762 51.0134 169.762 51.7786C169.762 52.5439 169.497 53.1903 168.967 53.7179ZM165.823 53.0129C166.148 53.3354 166.551 53.4968 167.031 53.4968C167.511 53.4968 167.914 53.3354 168.239 53.0129C168.564 52.6901 168.726 52.2788 168.726 51.7786C168.726 51.2785 168.564 50.8658 168.239 50.5405C167.914 50.2157 167.511 50.053 167.031 50.053C166.551 50.053 166.148 50.2157 165.823 50.5405C165.498 50.8656 165.336 51.2783 165.336 51.7786C165.336 52.2786 165.498 52.6901 165.823 53.0129Z" fill="white"/>
<path fill-rule="evenodd" clip-rule="evenodd" d="M17.0251 27.8506H23.9579L20.4916 15.0012L17.0253 27.8506H17.0251ZM101.132 0.954996H113.085V42.7905H101.132V35.8754C100.4 37.5913 99.2795 39.0501 97.7694 40.2519C94.8408 42.5827 90.8664 43.7481 85.8461 43.7481C81.304 43.7481 77.5188 42.8018 74.4907 40.9091C73.753 40.4479 73.0747 39.9473 72.4554 39.4071L74.505 42.7919H61.237L50.8381 24.8621V42.7919H40.8118H38.8848H27.962L26.5279 37.413H14.4552L13.021 42.7919H0.171257L13.4992 0.95638H27.4842L38.885 36.7435V0.95638H50.8381V17.6905L60.6397 0.95638H73.9073L61.4761 21.2767L68.6314 33.0926L78.6147 27.313C80.0092 30.859 82.5194 32.6322 86.1449 32.6322C88.8544 32.6322 90.2091 31.9149 90.2091 30.4806C90.2091 30.0821 90.1094 29.7236 89.9102 29.4048C89.7111 29.0861 89.3323 28.8072 88.7744 28.568C88.2167 28.3287 87.7288 28.1398 87.3102 28.0001C86.8921 27.8608 86.1648 27.6514 85.1289 27.3725C84.093 27.0937 83.3161 26.8745 82.798 26.7151C74.4706 24.2051 70.307 19.7225 70.307 13.268C70.307 9.44302 71.6914 6.27556 74.4607 3.7653C77.2299 1.25522 80.8655 0 85.3678 0C88.9139 0 92.0915 0.836811 94.9003 2.51026C97.7092 4.18388 99.7711 6.5943 101.086 9.74186L91.1649 15.5391C90.0096 12.5908 88.097 11.1165 85.4273 11.1165C84.3915 11.1165 83.6046 11.3257 83.0668 11.7441C82.5288 12.1625 82.2601 12.6904 82.2601 13.3279C82.2601 14.2045 82.7281 14.8818 83.6646 15.3597C84.6007 15.838 86.4038 16.4554 89.0731 17.2128C91.0653 17.8101 92.6991 18.3782 93.9739 18.916C95.2488 19.4538 96.5838 20.2108 97.9781 21.1869C99.3728 22.163 100.419 23.4182 101.116 24.9521L101.131 25.0022V0.954996H101.132ZM103.698 28.5332C103.698 27.825 103.92 27.2339 104.365 26.7598C104.81 26.2855 105.403 26.0484 106.144 26.0484C106.884 26.0484 107.477 26.2855 107.922 26.7598C108.367 27.2339 108.59 27.8252 108.59 28.5332V29.3128H110.519V31.2617H103.698V28.5332H103.698ZM106.699 28.5332C106.699 28.3839 106.649 28.2571 106.548 28.1531C106.447 28.0493 106.312 27.9972 106.144 27.9972C105.975 27.9972 105.84 28.0493 105.739 28.1531C105.639 28.2569 105.588 28.3837 105.588 28.5332V29.3128H106.699V28.5332ZM110.509 21.946L108.365 23.0277V23.5148H110.509V25.4637H103.688V22.7353C103.688 21.9881 103.907 21.371 104.346 20.8838C104.784 20.3967 105.364 20.153 106.085 20.153C106.488 20.153 106.852 20.2456 107.177 20.4307C107.501 20.6159 107.764 20.8742 107.966 21.2054L110.509 19.8606V21.9459L110.509 21.946ZM105.481 23.5148H106.748V22.7742C106.754 22.5664 106.702 22.4023 106.592 22.2823C106.482 22.162 106.326 22.1019 106.124 22.1019C105.923 22.1019 105.765 22.162 105.652 22.2823C105.538 22.4023 105.481 22.5664 105.481 22.7742V23.5148H105.481ZM109.647 13.5316C110.332 14.2301 110.675 15.086 110.675 16.0993C110.675 17.1127 110.332 17.9686 109.647 18.667C108.962 19.3654 108.115 19.7145 107.108 19.7145C106.102 19.7145 105.255 19.3654 104.57 18.667C103.885 17.9686 103.542 17.1127 103.542 16.0993C103.542 15.086 103.885 14.2301 104.57 13.5316C105.255 12.8332 106.102 12.484 107.108 12.484C108.115 12.484 108.962 12.8332 109.647 13.5316ZM108.292 17.2931C108.607 16.978 108.765 16.58 108.765 16.0993C108.765 15.6186 108.607 15.2206 108.292 14.9057C107.977 14.5905 107.583 14.4329 107.108 14.4329C106.634 14.4329 106.239 14.5905 105.925 14.9057C105.609 15.2206 105.452 15.6186 105.452 16.0993C105.452 16.58 105.609 16.978 105.925 17.2931C106.239 17.608 106.634 17.7656 107.108 17.7656C107.583 17.7656 107.977 17.608 108.292 17.2931Z" fill="url(#paint0_linear)"/>
<defs>
<linearGradient id="paint0_linear" x1="7.44871" y1="-4.27922" x2="124.124" y2="43.4713" gradientUnits="userSpaceOnUse">
<stop stop-color="#FFCC00"/>
<stop offset="1" stop-color="#FF9200"/>
</linearGradient>
</defs>
</svg>
